<?xml version="1.0" encoding="UTF-8"?>
<svg width="107px" height="24px" viewBox="0 0 107 24" version="1.1" xmlns="http://www.w3.org/2000/svg" xmlns:xlink="http://www.w3.org/1999/xlink">
    <title>Group 13</title>
    <g id="Homepage" stroke="none" stroke-width="1" fill="none" fill-rule="evenodd">
        <g id="1.-10P-WEB-REVAMP_HOMEPAGE_UPDATE-1" transform="translate(-1128.000000, -1099.000000)" fill="#434343" fill-rule="nonzero">
            <g id="Group-6" transform="translate(190.000000, 896.000000)">
                <g id="Group-13" transform="translate(938.000000, 203.000000)">
                    <g id="red" transform="translate(0.000000, 0.300293)">
                        <path d="M18.4903594,18.308321 C18.5105391,18.3055327 18.5307188,18.299956 18.5480156,18.2971676 L16.927875,22.5410398 L16.8413906,22.5410398 L10.5799219,22.5410398 L10.4934375,22.5410398 L12.0588047,18.9078168 C12.0588047,18.9078168 12.0789844,18.9078168 12.1135781,18.9078168 L12.1135781,18.9078168 L12.1164609,18.9078168 C12.5517656,18.9078168 15.4893516,18.8827216 18.4932422,18.2971676 L18.4903594,18.308321 Z M106.041375,8.00535938 C106.041375,12.8041136 102.12075,15.8908196 95.66325,15.8908196 L91.7772188,15.8908196 L91.7772188,22.5410398 L74.2295391,22.5410398 L67.1464688,13.5123551 L67.1464688,22.5410398 L50.2185938,22.5410398 L48.3591797,17.5861378 C48.2381016,17.563831 46.3498594,17.2208636 44.1185625,17.2208636 C41.8930313,17.2208636 39.9211875,17.5582543 39.8087578,17.5749844 L37.9003359,22.5410398 L29.2691953,22.5410398 L27.8623828,18.7711875 C29.9754844,19.281456 31.595625,20.1179616 32.4056953,20.5808281 L32.7631641,19.7275923 C31.4601328,18.9775256 27.8191406,17.1957685 22.5926016,17.1957685 C18.5508984,17.1957685 15.9794297,18.1493849 11.7762891,18.1493849 C4.95267188,18.1493849 0.245039063,14.9344148 3.69482223e-13,14.7754787 L1.81328906,10.4897813 C2.2831875,10.7853466 6.82073438,13.6211009 12.0472734,13.6211009 C12.9351797,13.6211009 13.6962422,13.5764872 14.4025313,13.5095668 L20.0701406,0.1226875 L20.8802109,0.1226875 L25.5100078,0.1226875 L29.4882891,0.1226875 L35.0953594,14.1815597 L41.0310703,0.1226875 L50.4636328,0.1226875 L58.7142422,20.8150497 L58.7142422,0.119899148 L69.9918047,0.119899148 C77.6600859,0.119899148 81.4163906,3.52168892 81.4163906,8.00814773 C81.4163906,12.4973949 77.7638672,14.2289616 76.7491172,14.6723097 L83.3536406,21.6208835 L83.3536406,0.119899148 L95.6574844,0.119899148 C102.466688,0.119899148 106.041375,3.45198011 106.041375,8.00535938 Z M25.7608125,13.1303509 L23.1720469,6.22639063 L20.6351719,12.8403622 C21.0647109,12.8236321 21.5230781,12.815267 22.0189219,12.815267 C24.07725,12.8124787 25.5964922,13.099679 25.7608125,13.1303509 Z M46.7015625,12.9909332 L44.1185625,6.31282955 L41.4894375,12.9909332 C41.6105156,12.9742031 43.0259766,12.8180554 44.1185625,12.8180554 C45.2861016,12.815267 46.5747188,12.9714148 46.7015625,12.9909332 Z M72.7564219,8.00535938 C72.7564219,5.78025426 71.5946484,3.81446591 68.3831953,3.81446591 L67.1464688,3.81446591 L67.1464688,12.1823111 L68.3831953,12.1823111 C71.2775391,12.1795227 72.7564219,10.5957386 72.7564219,8.00535938 Z M97.3785234,8.00535938 C97.3785234,5.56555114 96.0408984,3.81446591 93.4867266,3.81446591 L91.7772188,3.81446591 L91.7772188,12.1823111 L93.4867266,12.1823111 C95.8852266,12.1795227 97.3785234,10.6124688 97.3785234,8.00535938 Z" id="AARP_1_"></path>
                    </g>
                    <g id="Group-12" transform="translate(60.603187, 0.000000)">
                        <path d="M2.50228125,0.172877841 C2.80657813,0.172877841 3.0978623,0.225633814 3.37613379,0.331145761 C3.65440527,0.436657708 3.89964453,0.585967066 4.11185156,0.779073837 C4.32405859,0.972180608 4.49322363,1.2060986 4.61934668,1.48082782 C4.74546973,1.75555704 4.80853125,2.06213893 4.80853125,2.40057347 C4.80853125,2.7429896 4.74546973,3.05156228 4.61934668,3.3262915 C4.49322363,3.60102072 4.32405859,3.83593411 4.11185156,4.03103167 C3.89964453,4.22612923 3.65440527,4.37543859 3.37613379,4.47895974 C3.0978623,4.5824809 2.80657813,4.63424148 2.50228125,4.63424148 C2.19798438,4.63424148 1.9067002,4.5824809 1.62842871,4.47895974 C1.35015723,4.37543859 1.10491797,4.22612923 0.892710938,4.03103167 C0.680503906,3.83593411 0.511338867,3.60102072 0.38521582,3.3262915 C0.259092773,3.05156228 0.19603125,2.7429896 0.19603125,2.40057347 C0.19603125,2.06213893 0.259092773,1.75555704 0.38521582,1.48082782 C0.511338867,1.2060986 0.680503906,0.972180608 0.892710938,0.779073837 C1.10491797,0.585967066 1.35015723,0.436657708 1.62842871,0.331145761 C1.9067002,0.225633814 2.19798438,0.172877841 2.50228125,0.172877841 Z M2.50228125,0.451713068 C2.22081516,0.451713068 1.95723886,0.500398584 1.71155236,0.597769616 C1.46586586,0.695140648 1.25238098,0.830132305 1.07109774,1.00274459 C0.889814495,1.17535687 0.746696144,1.38005734 0.641742686,1.61684598 C0.536789229,1.85363463 0.4843125,2.11365954 0.4843125,2.39692073 C0.4843125,2.68018191 0.536789229,2.94131331 0.641742686,3.18031494 C0.746696144,3.41931656 0.889814495,3.62623 1.07109774,3.80105526 C1.25238098,3.97588052 1.46586586,4.11197867 1.71155236,4.2093497 C1.95723886,4.30672073 2.22081516,4.35540625 2.50228125,4.35540625 C2.77897673,4.35540625 3.04016772,4.30672073 3.28585422,4.2093497 C3.53154072,4.11197867 3.7450256,3.97588052 3.92630884,3.80105526 C4.10759209,3.62623 4.25190309,3.41931656 4.35924186,3.18031494 C4.46658062,2.94131331 4.52025,2.68018191 4.52025,2.39692073 C4.52025,2.11365954 4.46658062,1.85363463 4.35924186,1.61684598 C4.25190309,1.38005734 4.10759209,1.17535687 3.92630884,1.00274459 C3.7450256,0.830132305 3.53154072,0.695140648 3.28585422,0.597769616 C3.04016772,0.500398584 2.77897673,0.451713068 2.50228125,0.451713068 Z" id="Combined-Shape"></path>
                        <path d="M2.47921875,1.23524006 C2.782875,1.23524006 3.01638281,1.2872893 3.17974219,1.39138778 C3.34310156,1.49548627 3.42478125,1.67394081 3.42478125,1.92675142 C3.42478125,2.03456771 3.40844531,2.12658333 3.37577344,2.2027983 C3.34310156,2.27901326 3.2979375,2.34128646 3.24028125,2.3896179 C3.182625,2.43794934 3.11535938,2.47512737 3.03848437,2.50115199 C2.96160938,2.52717661 2.87896875,2.54390672 2.7905625,2.55134233 L2.7905625,2.55134233 L3.4363125,3.57187926 L2.93470313,3.57187926 L2.34660938,2.57364915 L2.04679688,2.57364915 L2.04679688,3.57187926 L1.56825,3.57187926 L1.56825,1.23524006 Z M2.45039062,1.59772585 L2.04679687,1.59772585 L2.04679687,2.21116335 L2.47345312,2.21116335 C2.61182812,2.21116335 2.72521875,2.19257434 2.813625,2.15539631 C2.90203125,2.11821828 2.94623437,2.028991 2.94623437,1.88771449 C2.94623437,1.82451184 2.93085937,1.7743215 2.90010937,1.73714347 C2.86935937,1.69996544 2.82996094,1.67115246 2.78191406,1.65070455 C2.73386719,1.63025663 2.68005469,1.61631487 2.62047656,1.60887926 C2.56089844,1.60144366 2.50420312,1.59772585 2.45039062,1.59772585 L2.45039062,1.59772585 Z" id="Combined-Shape"></path>
                    </g>
                </g>
            </g>
        </g>
    </g>
</svg>