<?xml version="1.0" encoding="UTF-8"?>
<svg width="121px" height="18px" viewBox="0 0 121 18" version="1.1" xmlns="http://www.w3.org/2000/svg" xmlns:xlink="http://www.w3.org/1999/xlink">
    <title>blackboard-vector-logo</title>
    <g id="Homepage" stroke="none" stroke-width="1" fill="none" fill-rule="evenodd">
        <g id="1.-10P-WEB-REVAMP_HOMEPAGE_UPDATE-1" transform="translate(-1121.000000, -1003.000000)" fill="#434343" fill-rule="nonzero">
            <g id="Group-6" transform="translate(190.000000, 896.000000)">
                <g id="blackboard-vector-logo" transform="translate(931.000000, 107.000000)">
                    <path d="M0.16,0.86 L7.5,0.86 C9.36,0.86 10.84,1.38 11.78,2.3 C12.5,3.02 12.88,3.92 12.88,5 L12.88,5.04 C12.88,7 11.76,8.06 10.54,8.68 C12.46,9.34 13.78,10.44 13.78,12.64 L13.78,12.68 C13.78,15.6 11.38,17.16 7.74,17.16 L0.16,17.16 L0.16,0.86 Z M10,5.48 C10,4.2 8.98,3.4 7.12,3.4 L3,3.4 L3,7.74 L6.92,7.74 C8.76,7.74 10,7.02 10,5.52 L10,5.48 Z M7.54,10.18 L3,10.18 L3,14.66 L7.76,14.66 C9.72,14.66 10.92,13.88 10.92,12.42 L10.92,12.38 C10.9,10.98 9.8,10.18 7.54,10.18" id="Shape"></path>
                    <rect id="Rectangle" x="15.64" y="0.16" width="2.82" height="17.04"></rect>
                    <path d="M20.2,13.66 L20.2,13.6 C20.2,10.94 22.28,9.64 25.28,9.64 C26.66,9.64 27.64,9.84 28.6,10.16 L28.6,9.86 C28.6,8.1 27.52,7.18 25.54,7.18 C24.16,7.18 23.14,7.48 22.02,7.96 L21.28,5.74 C22.64,5.14 23.96,4.74 25.92,4.74 C27.76,4.74 29.14,5.24 30,6.12 C30.92,7 31.34,8.32 31.34,9.92 L31.34,17.2 L28.58,17.2 L28.58,15.66 C27.74,16.66 26.46,17.46 24.56,17.46 C22.24,17.46 20.2,16.12 20.2,13.66 M28.64,12.76 L28.64,11.92 C27.92,11.64 26.96,11.42 25.84,11.42 C24.02,11.42 22.94,12.2 22.94,13.48 L22.94,13.52 C22.94,14.72 23.98,15.38 25.34,15.38 C27.22,15.4 28.64,14.32 28.64,12.76" id="Shape"></path>
                    <path d="M32.8,11.1 L32.8,11.06 C32.8,7.56 35.5,4.62 39.22,4.62 C41.54,4.62 42.98,5.48 44.14,6.74 L42.36,8.64 C41.5,7.72 40.58,7.1 39.18,7.1 C37.12,7.1 35.6,8.88 35.6,11.02 L35.6,11.06 C35.6,13.26 37.12,15 39.28,15 C40.62,15 41.6,14.4 42.48,13.48 L44.18,15.16 C42.96,16.52 41.54,17.48 39.14,17.48 C35.5,17.48 32.8,14.6 32.8,11.1" id="Path"></path>
                    <polygon id="Path" points="45.7 0.16 48.54 0.16 48.54 10.34 53.64 4.88 57.08 4.88 52.18 9.9 57.24 17.2 53.92 17.2 50.28 11.86 48.54 13.68 48.54 17.2 45.7 17.2"></polygon>
                    <path d="M61.58,15.28 L61.58,17.2 L58.76,17.2 L58.76,0.16 L61.58,0.16 L61.58,6.92 C62.5,5.64 63.78,4.6 65.78,4.6 C68.68,4.6 71.5,6.88 71.5,11 L71.5,11.04 C71.5,15.12 68.7,17.44 65.78,17.44 C63.72,17.46 62.44,16.42 61.58,15.28 M68.62,11.06 L68.62,11.02 C68.62,8.64 67,7.08 65.1,7.08 C63.2,7.08 61.5,8.66 61.5,11.02 L61.5,11.06 C61.5,13.42 63.18,15 65.1,15 C67.04,15 68.62,13.48 68.62,11.06" id="Shape"></path>
                    <path d="M72.52,11.1 L72.52,11.06 C72.52,7.54 75.32,4.62 79.1,4.62 C82.88,4.62 85.66,7.5 85.66,11.02 L85.66,11.06 C85.66,14.56 82.86,17.48 79.06,17.48 C75.3,17.48 72.52,14.6 72.52,11.1 M82.84,11.1 L82.84,11.06 C82.84,8.88 81.28,7.1 79.06,7.1 C76.8,7.1 75.34,8.88 75.34,11.02 L75.34,11.06 C75.34,13.2 76.9,15 79.1,15 C81.4,15 82.84,13.24 82.84,11.1" id="Shape"></path>
                    <path d="M86.58,13.66 L86.58,13.6 C86.58,10.94 88.66,9.64 91.66,9.64 C93.04,9.64 94.02,9.84 94.98,10.16 L94.98,9.86 C94.98,8.1 93.9,7.18 91.92,7.18 C90.54,7.18 89.52,7.48 88.4,7.96 L87.66,5.74 C89.02,5.14 90.34,4.74 92.3,4.74 C94.14,4.74 95.52,5.24 96.38,6.12 C97.3,7 97.72,8.32 97.72,9.92 L97.72,17.2 L94.96,17.2 L94.96,15.66 C94.12,16.66 92.84,17.46 90.94,17.46 C88.64,17.46 86.58,16.12 86.58,13.66 M95.02,12.76 L95.02,11.92 C94.3,11.64 93.34,11.42 92.22,11.42 C90.4,11.42 89.32,12.2 89.32,13.48 L89.32,13.52 C89.32,14.72 90.36,15.38 91.72,15.38 C93.6,15.4 95.02,14.32 95.02,12.76" id="Shape"></path>
                    <path d="M99.9,4.88 L102.72,4.88 L102.72,7.66 C103.5,5.82 104.92,4.56 107.08,4.64 L107.08,7.62 L106.92,7.62 C104.44,7.62 102.72,9.24 102.72,12.5 L102.72,17.2 L99.9,17.2 L99.9,4.88 Z" id="Path"></path>
                    <path d="M107.42,11.06 L107.42,11.02 C107.42,6.94 110.2,4.62 113.14,4.62 C115.18,4.62 116.46,5.62 117.34,6.8 L117.34,0.18 L120.16,0.18 L120.16,17.2 L117.34,17.2 L117.34,15.14 C116.42,16.42 115.14,17.46 113.14,17.46 C110.24,17.46 107.42,15.14 107.42,11.06 M117.38,11.06 L117.38,11.02 C117.38,8.64 115.7,7.08 113.8,7.08 C111.86,7.08 110.26,8.58 110.26,11.02 L110.26,11.06 C110.26,13.44 111.9,15 113.8,15 C115.7,15 117.38,13.42 117.38,11.06" id="Shape"></path>
                </g>
            </g>
        </g>
    </g>
</svg>