<?xml version="1.0" encoding="UTF-8"?>
<svg width="101px" height="37px" viewBox="0 0 101 37" version="1.1" xmlns="http://www.w3.org/2000/svg" xmlns:xlink="http://www.w3.org/1999/xlink">
    <title>Capital_One_logo</title>
    <g id="Homepage" stroke="none" stroke-width="1" fill="none" fill-rule="evenodd">
        <g id="1.-10P-WEB-REVAMP_HOMEPAGE_UPDATE-1" transform="translate(-444.000000, -994.000000)" fill="#434343" fill-rule="nonzero">
            <g id="Group-6" transform="translate(190.000000, 896.000000)">
                <g id="Capital_One_logo" transform="translate(254.000000, 98.000000)">
                    <path d="M68.4108835,26.1686966 C68.4052034,26.1743766 68.3995234,26.1743766 68.3995234,26.1800567 C64.1053829,29.2188995 59.0217113,32.4111045 53.5517942,35.7623517 L53.3359512,35.8873134 C53.2621102,35.9384342 53.2450699,36.0406756 53.2961906,36.1145166 C53.3473114,36.1883577 53.4495528,36.2053979 53.5233938,36.1542772 L53.7051564,36.0577158 C58.3457818,33.6380018 63.6736968,30.7638813 69.0356923,27.8159198 C69.0640927,27.7988795 69.0924931,27.7818393 69.1208935,27.7704791 C68.8255294,27.2819922 68.5812859,26.7480647 68.4108835,26.1686966 L68.4108835,26.1686966 Z M96.5840803,3.36317537 C89.819105,-4.10044975 46.2812918,2.61340481 27.7699111,6.65762177 L27.338225,6.74850305 C27.2473438,6.76554329 27.190543,6.85074449 27.2075832,6.93594569 C27.2246234,7.02682697 27.3098246,7.08362777 27.3950258,7.06658753 L27.8210318,6.98138633 C43.1572478,4.24926785 75.0565771,0.466334568 81.9181138,7.27107041 C84.0140633,9.34997969 83.5142162,12.0196173 81.083142,15.1777418 C82.3895604,16.0183936 83.3210935,17.3418522 83.7414194,18.9947555 C93.227153,12.7012269 99.5945227,6.68602217 96.5840803,3.36317537 L96.5840803,3.36317537 Z" id="Shape"></path>
                    <g id="Group" transform="translate(0.000000, 14.768208)">
                        <path d="M71.1486821,9.44086097 C71.2338833,12.0650579 72.8981467,14.2178082 75.0622572,14.2178082 C79.2598363,14.2178082 81.0490615,9.06029561 80.9240998,5.61816713 C80.8332185,2.98829009 79.1291945,0.84121514 76.965084,0.84121514 C73.3582332,0.835539768 71.0237203,5.97033209 71.1486821,9.44086097 L71.1486821,9.44086097 Z M68.9334509,9.29885897 C68.7800887,4.81727585 72.2903782,0.233451288 77.39109,0.233451288 C80.799138,0.233451288 83.0314094,2.50548329 83.1563712,5.98737233 C83.3210935,10.7131989 80.0380073,15.05278 74.7044122,15.05278 C71.285004,15.05278 69.0527326,12.7864281 68.9334509,9.29885897 L68.9334509,9.29885897 Z" id="Shape"></path>
                        <path d="M20.6260745,8.11740233 C20.4443119,8.18556329 20.2114287,8.25372425 19.9160645,8.31620513 C19.6263804,8.38436609 19.0924529,8.47524737 18.319962,8.60020913 C17.7860345,8.68541033 17.4168293,8.79333185 17.2066663,8.94669401 C17.0078635,9.09437609 16.8885819,9.27045857 16.8545014,9.49198169 C16.8147408,9.72486497 16.8885819,9.90662753 17.0873847,10.0543096 C17.2918675,10.1963116 17.6326723,10.2701526 18.1154791,10.2701526 C18.4790043,10.2701526 18.8311692,10.2133518 19.171974,10.0997502 C19.5184589,9.98614865 19.8138231,9.83278649 20.0353462,9.63966377 C20.2000685,9.49766177 20.3193502,9.31589921 20.4102315,9.09437609 C20.4670323,8.94669401 20.5408733,8.62292945 20.6260745,8.11740233 L20.6260745,8.11740233 Z M25.0565369,5.36256353 C25.0394967,5.77152929 24.9656556,6.13505441 24.8577341,6.76554329 L24.1079635,10.9744826 C24.0454827,11.3493678 24.1818046,11.6390519 24.5282895,11.8435348 L24.5055691,12.0082571 L20.2114287,12.002577 L20.1716681,10.934722 C19.5468593,11.3096073 18.7914087,11.6276918 18.1097991,11.8151344 C17.4281895,11.9912169 16.8772217,12.0650579 16.0536101,12.0650579 C14.6676706,12.0650579 13.8724594,11.9230559 13.3214916,11.4402491 C12.7648438,10.9460822 12.4921999,10.6166375 12.5206003,9.93502793 C12.5433207,9.54310241 12.7478035,9.03757529 13.0374876,8.68541033 C13.3328518,8.32756529 13.7418175,8.09468201 14.1791837,7.88451905 C14.6222299,7.67435609 15.1447973,7.52099393 15.9002479,7.40171225 C16.6613787,7.27675049 17.7178735,7.15746881 19.1322135,7.03818713 C19.8763039,6.97570625 20.3307103,6.80530385 20.5408733,6.72010265 C20.8362375,6.60650105 20.9555191,6.47585921 20.9952797,6.23729585 C21.0748008,5.80560977 20.9384789,5.55568625 20.3591107,5.44208465 C18.814129,5.13536033 15.9116081,5.64088745 14.4177471,6.01009265 L15.2299985,3.81758177 C17.2009863,3.52789769 19.0470123,3.34613513 20.9952797,3.34613513 C24.1022835,3.34613513 25.0906174,4.22654753 25.0565369,5.36256353 L25.0565369,5.36256353 Z" id="Shape"></path>
                        <path d="M37.5072723,12.002577 L38.9954532,3.59037857 L43.1078311,3.59037857 L41.6196502,12.002577 L37.5072723,12.002577 Z M39.2226564,1.64211113 C39.3476182,0.949141368 40.4381935,0.392493528 41.6537307,0.392493528 C42.8749479,0.392493528 43.7667204,0.954821448 43.6474387,1.64211113 C43.5167969,2.33508089 42.4319016,2.89740881 41.2050043,2.89740881 C39.9894672,2.89740881 39.1033747,2.33508089 39.2226564,1.64211113 L39.2226564,1.64211113 Z" id="Shape"></path>
                        <path d="M57.7096128,8.13444257 C57.5221702,8.19692345 57.2836068,8.26508441 56.9939227,8.33324537 C56.7042386,8.40140633 56.1703111,8.48660753 55.3978202,8.61156929 C54.8695728,8.69677049 54.4946875,8.80469201 54.2902046,8.95805417 C54.0914018,9.10005617 53.9778002,9.28181873 53.9323596,9.49766177 C53.886919,9.73054505 53.9721202,9.91798769 54.1652429,10.0599897 C54.3754058,10.2019917 54.7162106,10.2701526 55.1990174,10.2701526 C55.5568625,10.2701526 55.9090274,10.2190319 56.2555123,10.1111104 C56.6076773,9.99182873 56.8973614,9.84414665 57.1245646,9.65102393 C57.2836068,9.50902193 57.4028885,9.32157929 57.4880897,9.10573625 C57.5448905,8.96373425 57.6187315,8.63996969 57.7096128,8.13444257 L57.7096128,8.13444257 Z M62.1400752,5.37392369 C62.123035,5.78856953 62.0491939,6.15209465 61.9355923,6.77690345 L61.1915018,10.9915228 C61.129021,11.360728 61.2653429,11.6560922 61.6118278,11.860575 L61.5891074,12.0082571 L57.294967,12.0139372 L57.2608865,10.9404021 C56.6360777,11.3209674 55.874947,11.6390519 55.1990174,11.8208145 C54.5174078,12.002577 53.9664401,12.0764181 53.1314683,12.0764181 C51.7455288,12.0764181 50.9559977,11.9400962 50.4050299,11.4516093 C49.842702,10.9517622 49.5757382,10.6279977 49.6041386,9.94638809 C49.6211789,9.54878249 49.8256618,9.04325537 50.1210259,8.69677049 C50.4163901,8.33324537 50.8253558,8.10604217 51.2684021,7.89587921 C51.7114483,7.68571625 52.2340157,7.53235409 52.9837862,7.40739233 C53.744917,7.28811065 54.8070919,7.16314889 56.2214318,7.04386721 C56.9598422,6.98138633 57.4142486,6.81666401 57.6244116,6.73146281 C57.9254558,6.61786121 58.0390574,6.48721937 58.0844981,6.24297593 C58.1583391,5.81696993 58.0276973,5.56704641 57.4540092,5.44776473 C55.8976673,5.14104041 53.0065066,5.64656753 51.5126455,6.01577273 L52.3192169,3.82326185 C54.2958847,3.53357777 56.1362306,3.35181521 58.0844981,3.35181521 C61.1801417,3.35749529 62.1684756,4.24358777 62.1400752,5.37392369 L62.1400752,5.37392369 Z" id="Shape"></path>
                        <path d="M11.9639525,8.98077449 C10.6234536,9.24773825 9.87368306,9.34997969 8.55022442,9.34997969 C6.58491674,9.34997969 5.02289474,8.37300593 5.10809594,6.58378073 C5.17057682,5.39096393 6.57923666,2.88036857 10.1633671,2.88036857 C11.2937031,2.88036857 12.1741155,3.07917137 13.3612522,3.75510089 L13.8838195,0.835539768 C12.2706768,0.227771208 11.2028218,0.136889928 9.81688226,0.148250088 C5.11377602,0.199370808 0.603792504,2.33508089 0.041464584,6.68034209 C-0.526543416,11.0937642 4.8638525,12.2013798 7.25516618,12.1901059 C8.63542562,12.1843396 10.0724859,12.1275388 11.4129847,11.9912169 L11.9639525,8.98077449 Z" id="Path"></path>
                        <path d="M45.3741831,3.54493793 L45.6695472,1.82955377 L49.9693678,0.892340568 L49.5092813,3.53925785 L51.616591,3.53925785 L51.2189854,5.23192169 L49.1741566,5.22624161 L47.9302191,11.9912169 C47.9302191,11.9912169 43.7894407,11.9628165 43.7724005,11.9912169 L45.0106579,5.24328185 L43.454316,5.24328185 L43.7724005,3.53925785 L45.3741831,3.53925785 L45.3741831,3.54493793 Z" id="Path"></path>
                        <polygon id="Path" points="68.3161985 0.380899956 66.3168103 11.9966636 62.1305913 12.0023436 64.237901 0.267298356"></polygon>
                        <path d="M32.0657556,5.56136633 C31.526148,5.56136633 31.0376611,5.72608865 30.6059751,6.04985321 C30.174289,6.37929785 29.9016451,6.85642457 29.7937236,7.48691345 C29.6630818,8.21964377 29.7426029,8.74789121 30.032287,9.07165577 C30.3276511,9.39542033 30.7479771,9.56014265 31.3046249,9.56014265 C31.6795102,9.56014265 32.0657556,9.49198169 32.3497596,9.34997969 C32.7019246,9.16253705 32.946168,8.96941433 33.156331,8.65700993 C33.3835342,8.33324537 33.5312163,7.96972025 33.6107374,7.54939433 C33.7300191,6.88482497 33.6277776,6.39065801 33.3210533,6.06121337 C33.0200091,5.73176873 32.6053632,5.56136633 32.0657556,5.56136633 L32.0657556,5.56136633 Z M24.5794102,14.9050979 L26.5844784,3.63581921 L30.1970093,3.63581921 L29.9186854,5.07287945 C30.2310898,4.64119337 30.7309368,4.28902841 31.4239066,4.00502441 C32.1225564,3.72102041 32.9064075,3.51085745 33.7584195,3.51085745 C34.7013127,3.51085745 35.2806809,3.56197817 35.9850108,3.92550329 C36.6836607,4.29470849 37.1778276,4.82863601 37.4391113,5.52160577 C37.7117551,6.20321537 37.7685559,6.97570625 37.6208739,7.81067801 C37.3766304,9.20229761 36.7007009,10.292873 35.5874052,11.0994443 C34.4854697,11.9060157 33.4914557,12.1161786 32.0771158,12.1218587 C31.5772687,12.1218587 31.1569428,12.070738 30.8104579,11.9855368 C30.4696531,11.8946555 30.1970093,11.786734 29.9925264,11.6560922 C29.7937236,11.5254503 29.5835607,11.3380077 29.3165969,11.0426435 L28.6463475,14.9050979 L24.5794102,14.9050979 Z" id="Shape"></path>
                        <path d="M99.2253175,6.59514089 C99.2025972,5.91921137 98.8617924,5.45912489 98.1631426,5.45912489 C96.4761588,5.45912489 94.6812535,8.76493145 94.3745292,10.0940848 C97.1407282,10.0997502 99.2934785,8.45252705 99.2253175,6.59514089 L99.2253175,6.59514089 Z M99.5888426,11.7753738 L99.9126072,11.996897 C99.0889956,13.6725206 97.413372,15.0186995 95.4480643,15.0186995 C93.8406017,15.0186995 92.517143,13.9451644 92.4489821,11.9344161 C92.3183402,8.32756529 95.6979878,4.98199817 98.4641868,4.98199817 C99.6513235,4.98199817 100.753259,5.49888545 100.7987,6.77690345 C100.900941,9.64534385 96.8737644,10.5200762 94.221167,10.582557 C94.1359658,10.8836013 94.1018854,11.1846455 94.1189256,11.6390519 C94.1643662,12.8261886 94.8800563,13.8258827 96.3682373,13.8258827 C97.6519354,13.8258827 98.9356334,12.7921082 99.5888426,11.7753738 L99.5888426,11.7753738 Z" id="Shape"></path>
                        <path d="M83.0938903,6.50425961 C83.3778943,6.46449905 83.8379808,6.41337833 84.0367836,6.41337833 C84.3378278,6.41337833 84.6218318,6.47017913 84.6388721,6.77122337 C84.6445522,6.94730585 84.3264677,8.22532385 84.2583067,8.52068801 L83.6164577,11.3493678 C83.355174,12.5081042 83.0768501,13.7179612 82.8269266,14.6778947 L84.4741498,14.6778947 L85.4000028,10.1963116 C88.2230026,7.25403017 89.3135779,6.29409665 89.9781473,6.29409665 C90.2791915,6.29409665 90.4836744,6.45313889 90.5007146,6.81098393 C90.5177549,7.32787121 90.1939903,8.50364777 90.0860688,8.84445257 L89.1431755,12.1104986 C88.9273325,12.8432289 88.7682902,13.5077982 88.7853305,13.9792449 C88.8137309,14.694935 89.245417,15.0130194 89.8929461,15.0130194 C91.097123,15.0130194 91.9718554,13.7577218 92.7329861,12.5251444 L92.511463,12.1218587 C92.2047386,12.6160257 91.4890486,13.700921 90.9267206,13.700921 C90.7506382,13.700921 90.5802358,13.5816393 90.5745557,13.2862751 C90.5575154,12.9057098 90.7165577,12.3320217 90.8301593,11.9514563 L91.8809741,8.12308241 C92.1649781,7.06658753 92.2956199,6.39065801 92.2899398,6.02713289 C92.2615394,5.31144281 91.8468936,4.97631809 91.2050446,4.97631809 C90.1201493,4.97631809 88.683089,5.77152929 85.6328861,9.27613865 L85.5874454,9.27613865 L85.9736909,7.56643457 C86.1838538,6.62922137 86.3883367,5.65224761 86.5814594,4.97631809 C85.5249646,5.35688345 84.0140633,5.78288945 83.0825302,5.96465201 L83.0938903,6.50425961 Z" id="Path"></path>
                    </g>
                </g>
            </g>
        </g>
    </g>
</svg>