<?xml version="1.0" encoding="UTF-8"?>
<svg width="114px" height="24px" viewBox="0 0 114 24" version="1.1" xmlns="http://www.w3.org/2000/svg" xmlns:xlink="http://www.w3.org/1999/xlink">
    <title>Shape</title>
    <g id="Homepage" stroke="none" stroke-width="1" fill="none" fill-rule="evenodd">
        <g id="1.-10P-WEB-REVAMP_HOMEPAGE_UPDATE-1" transform="translate(-663.000000, -1099.000000)" fill="#434343" fill-rule="nonzero">
            <g id="Group-6" transform="translate(190.000000, 896.000000)">
                <path d="M567.239774,207.551032 L572.050021,207.551032 L576.761,217.908323 L581.520772,207.551032 L586.280543,207.551032 L576.772777,227.041933 L567.239774,207.551032 Z M541.398371,207.551032 L536.687392,207.551032 L536.687392,223.79428 L541.398371,223.79428 L541.398371,207.551032 Z M565.612804,207.551032 L560.901825,207.551032 L560.901825,223.79428 L565.612804,223.79428 L565.612804,207.551032 Z M551.261142,207.517825 C545.061157,207.517825 543.765638,210.941476 543.846398,212.017385 C544.203086,216.751056 553.872371,216.892186 553.875736,219.322945 C553.875736,220.083388 552.083881,220.764133 549.719979,220.153123 C548.076184,219.724751 546.560258,218.647181 546.560258,218.647181 L543.008516,221.2639 C543.008516,221.2639 546.679715,224.511553 552.477585,223.882279 C557.44262,223.342664 559.283267,220.963376 559.281586,218.962648 C559.279902,216.961921 557.279418,215.798013 557.279418,215.798013 C555.881267,214.828366 552.568439,213.805587 552.568439,213.805587 C549.060442,212.948844 549.294309,212.098743 549.294309,212.098743 C549.385163,211.069323 551.358727,211.135737 551.358727,211.135737 C553.238071,211.095889 555.30249,212.598509 555.30249,212.598509 L558.867691,210.159449 C558.867691,210.159449 556.283383,207.517825 551.261142,207.517825 L551.261142,207.517825 Z M526.111243,220.403836 C522.858985,220.403836 520.222519,218.330053 520.222519,215.769787 C520.222519,213.20952 522.858985,211.135737 526.111243,211.135737 C527.961985,211.135737 529.624288,211.813162 530.704448,212.870808 L534.858522,211.064342 C532.940481,208.905881 529.738697,207.489599 526.109561,207.489599 C520.237662,207.489599 515.47789,211.19717 515.47789,215.769787 C515.47789,220.342403 520.237662,224.051635 526.109561,224.051635 C529.642795,224.051635 532.768866,222.708408 534.703733,220.644587 L530.79362,218.579106 C529.718507,219.688223 528.017507,220.403836 526.111243,220.403836 Z M510.024932,216.804187 L498.976003,216.804187 C499.569923,218.937743 501.817733,220.526702 504.501309,220.526702 C506.141739,220.526702 507.918451,220.015313 508.954866,219.06559 L512.875074,220.624663 C510.600344,222.808029 507.724964,223.902203 504.405407,223.902203 C498.969273,223.902203 494.562825,220.222857 494.562825,215.683448 C494.562825,211.144039 498.969273,207.466354 504.405407,207.466354 C509.099561,207.466354 513.023134,210.209259 514.009074,213.878643 C514.168347,214.467383 514.249226,215.074089 514.249671,215.683448 C514.248668,216.058845 514.217726,216.433582 514.157134,216.804187 L510.024932,216.804187 Z M509.520184,213.878643 C508.721,212.082139 506.893813,210.841854 504.506356,210.841854 C502.118899,210.841854 500.300125,212.082139 499.492528,213.878643 L509.520184,213.878643 Z M493.258893,213.495101 L493.258893,213.495101 C493.258893,219.291399 489.003869,223.990202 481.614362,223.990202 L473,223.990202 L473,203 L481.441065,203 C488.81543,203 493.253846,207.698803 493.253846,213.495101 L493.258893,213.495101 Z M488.438552,213.495101 C488.438552,209.842321 485.945098,206.895192 482.080412,206.895192 L477.818659,206.895192 L477.818659,220.101652 L482.331104,220.101652 C486.200837,220.101652 488.433504,217.146221 488.433504,213.501742 L488.438552,213.495101 Z" id="Shape"></path>
            </g>
        </g>
    </g>
</svg>