<?xml version="1.0" encoding="UTF-8"?>
<svg width="121px" height="31px" viewBox="0 0 121 31" version="1.1" xmlns="http://www.w3.org/2000/svg" xmlns:xlink="http://www.w3.org/1999/xlink">
    <title>horizontal-logo-monochromatic-white</title>
    <g id="Homepage" stroke="none" stroke-width="1" fill="none" fill-rule="evenodd">
        <g id="1.-10P-WEB-REVAMP_HOMEPAGE_UPDATE-1" transform="translate(-883.000000, -1096.000000)" fill="#434343" fill-rule="nonzero">
            <g id="Group-6" transform="translate(190.000000, 896.000000)">
                <g id="horizontal-logo-monochromatic-white" transform="translate(693.000000, 200.000000)">
                    <path d="M0,15.7 C0.06,15.6 0.13,15.51 0.19,15.41 C0.45,14.97 0.84,14.76 1.34,14.71 C1.52,14.69 1.71,14.7 1.89,14.7 C11.11,14.7 20.32,14.7 29.54,14.7 C30.52,14.7 31.46,14.53 32.38,14.21 C32.49,14.17 32.6,14.13 32.7,14.08 C32.76,14.05 32.81,14 32.89,13.94 C31.36,11.14 31.99,8.57 33.71,6.03 C35.77,7.11 37.02,8.72 37.47,10.95 C37.86,10.92 38.23,10.92 38.59,10.86 C39.55,10.72 40.49,10.86 41.4,11.11 C41.87,11.24 42.33,11.47 42.75,11.73 C43.23,12.02 43.23,12.11 43.01,12.63 C42.48,13.87 41.62,14.81 40.44,15.46 C39.39,16.03 38.27,16.29 37.08,16.29 C36.46,16.29 36.54,16.29 36.33,16.8 C35.43,19 34.36,21.1 32.91,23 C30.67,25.93 27.83,28.07 24.38,29.38 C22.44,30.11 20.44,30.59 18.37,30.8 C17.88,30.85 17.39,30.92 16.9,30.99 C15.7,30.99 14.5,30.99 13.3,30.99 C12.81,30.93 12.32,30.85 11.83,30.8 C10.32,30.64 8.85,30.33 7.42,29.81 C5.65,29.17 4.19,28.14 3.05,26.63 C1.38,24.4 0.59,21.83 0.2,19.11 C0.13,18.6 0.07,18.1 0,17.59 C0,16.97 0,16.33 0,15.7 Z" id="Path"></path>
                    <path d="M120.2,16.5 C119.59,17.38 119.31,17.47 118.27,17.14 C116,16.4 113.68,17.64 113.08,19.95 C112.95,20.44 112.93,20.97 112.92,21.48 C112.9,23.01 112.92,24.54 112.91,26.08 C112.91,26.7 112.63,27.06 112.07,27.23 C111.35,27.45 110.62,26.94 110.58,26.19 C110.57,25.97 110.57,25.76 110.57,25.54 C110.57,22.41 110.57,19.28 110.57,16.15 C110.57,16.02 110.57,15.88 110.57,15.75 C110.59,15.04 111.04,14.56 111.7,14.54 C112.32,14.52 112.81,14.96 112.9,15.63 C112.91,15.69 112.93,15.76 112.95,15.88 C113.2,15.73 113.42,15.6 113.64,15.46 C114.8,14.77 116.05,14.43 117.41,14.58 C117.9,14.63 118.4,14.69 118.88,14.8 C119.45,14.93 119.92,15.24 120.18,15.79 C120.2,16.03 120.2,16.27 120.2,16.5 Z" id="Path"></path>
                    <path d="M23.9,0.1 C23.93,0.28 24,0.46 24,0.63 C24.01,1.61 24.01,2.59 24,3.58 C24,4.05 23.89,4.18 23.41,4.18 C22.31,4.19 21.21,4.19 20.11,4.18 C19.61,4.18 19.5,4.05 19.5,3.54 C19.5,2.59 19.49,1.64 19.51,0.69 C19.51,0.49 19.63,0.29 19.7,0.09 C21.1,0.1 22.5,0.1 23.9,0.1 Z" id="Path"></path>
                    <path d="M55.31,15.88 C55.31,15.6 55.31,15.42 55.31,15.23 C55.31,13.68 55.31,12.13 55.31,10.58 C55.31,10.38 55.32,10.18 55.36,9.99 C55.51,9.39 56.01,9.05 56.63,9.1 C57.24,9.15 57.66,9.58 57.7,10.21 C57.71,10.29 57.7,10.38 57.7,10.46 C57.7,13.97 57.68,17.49 57.7,21 C57.72,23.96 55.61,26.25 53.29,26.97 C49.35,28.19 45.62,25.63 45.03,21.98 C44.38,17.92 47.25,15.11 50.21,14.62 C51.88,14.34 53.46,14.63 54.88,15.6 C54.99,15.69 55.11,15.75 55.31,15.88 Z M55.31,20.91 C55.41,19.18 53.97,16.95 51.34,16.93 C49.15,16.91 47.33,18.63 47.339959,20.94 C47.35,23.2 49.11,24.88 51.34,24.8900397 C53.53,24.9 55.39,23.02 55.31,20.91 Z" id="Shape"></path>
                    <path d="M99.12,22.1 C99.2,22.61 99.42,22.96 99.67,23.29 C101.06,25.14 103.7,25.44 105.48,23.96 C105.52,23.93 105.55,23.89 105.59,23.86 C106.18,23.38 106.88,23.41 107.32,23.94 C107.75,24.46 107.68,25.2 107.14,25.69 C106.45,26.31 105.66,26.77 104.77,27.03 C100.97,28.14 97.41,25.76 96.65,22.31 C95.79,18.4 98.6,15.07 101.96,14.62 C105.44,14.16 107.97,16.26 108.89,18.7 C109.14,19.37 109.28,20.08 109.28,20.8 C109.28,21.62 108.8,22.1 107.97,22.1 C105.22,22.1 102.47,22.1 99.72,22.1 C99.54,22.1 99.35,22.1 99.12,22.1 Z M99.17,19.68 C101.66,19.68 104.15,19.68 106.64,19.68 C106.32,18.2 104.69,16.94 102.87,16.94 C101.1,16.94 99.38,18.24 99.17,19.68 Z" id="Shape"></path>
                    <path d="M87.59,19.11 C87.84,18.96 87.99,18.86 88.14,18.77 C90.15,17.46 92.16,16.15 94.18,14.86 C94.38,14.73 94.62,14.63 94.86,14.57 C95.32,14.47 95.83,14.74 96.07,15.18 C96.3,15.59 96.24,16.2 95.91,16.53 C95.78,16.66 95.63,16.76 95.47,16.86 C94.09,17.76 92.7,18.65 91.32,19.55 C91.23,19.61 91.14,19.69 91.02,19.78 C91.43,20.25 91.82,20.71 92.21,21.15 C93.37,22.46 94.54,23.76 95.7,25.06 C95.81,25.18 95.92,25.31 96.01,25.45 C96.34,26.01 96.23,26.59 95.72,27.01 C95.27,27.38 94.62,27.37 94.18,26.92 C93.78,26.52 93.42,26.08 93.04,25.66 C91.78,24.24 90.52,22.82 89.25,21.41 C89.15,21.3 89.04,21.21 88.91,21.08 C88.52,21.34 88.15,21.59 87.77,21.83 C87.56,21.96 87.58,22.16 87.58,22.36 C87.58,23.49 87.59,24.63 87.57,25.76 C87.57,26.02 87.53,26.3 87.44,26.54 C87.26,27.03 86.69,27.34 86.19,27.26 C85.66,27.17 85.22,26.7 85.18,26.17 C85.17,26.02 85.17,25.87 85.17,25.72 C85.17,20.69 85.17,15.65 85.17,10.62 C85.17,10.49 85.17,10.35 85.17,10.22 C85.21,9.6 85.63,9.14 86.23,9.09 C86.83,9.04 87.36,9.4 87.51,9.98 C87.56,10.19 87.57,10.41 87.57,10.62 C87.57,13.22 87.57,15.82 87.57,18.42 C87.59,18.62 87.59,18.8 87.59,19.11 Z" id="Path"></path>
                    <path d="M71.7,20.94 C71.8,24.24 68.96,27.3 65.28,27.2800975 C61.89,27.27 58.94,24.52 58.9299738,20.94 C58.92,17.34 61.77,14.5 65.35,14.519895 C69.14,14.55 71.79,17.66 71.7,20.94 Z M69.31,20.92 C69.35,18.87 67.71,16.94 65.36,16.92 C63.1,16.9 61.33,18.67 61.35,20.91 C61.37,23.3 63.2,24.86 65.34,24.88 C67.68,24.91 69.39,22.85 69.31,20.92 Z" id="Shape"></path>
                    <path d="M72.86,20.87 C72.91,17.79 75.16,15.13 78.2,14.63 C80.01,14.34 81.67,14.71 83.15,15.84 C83.28,15.94 83.41,16.05 83.52,16.17 C83.93,16.61 83.98,17.2 83.65,17.68 C83.33,18.14 82.79,18.32 82.24,18.09 C82.01,18 81.81,17.84 81.61,17.7 C79.65,16.24 77.02,16.99 75.89,18.81 C74.73,20.66 75.32,23.2 77.21,24.31 C78.69,25.18 80.33,25.09 81.7,24.06 C81.99,23.84 82.28,23.69 82.66,23.69 C83.17,23.69 83.54,23.92 83.72,24.38 C83.9,24.82 83.9,25.3 83.52,25.63 C83.07,26.02 82.59,26.41 82.06,26.66 C78.19,28.47 73.96,26.21 73.07,22.36 C72.96,21.87 72.92,21.36 72.86,20.87 Z" id="Path"></path>
                    <path d="M27.06,13.9 C26.49,13.9 25.93,13.91 25.36,13.9 C24.94,13.89 24.82,13.78 24.82,13.36 C24.81,12.38 24.81,11.4 24.82,10.42 C24.82,9.96 24.96,9.82 25.42,9.82 C26.53,9.81 27.65,9.81 28.76,9.82 C29.19,9.82 29.3,9.94 29.3,10.36 C29.31,11.37 29.31,12.39 29.3,13.4 C29.3,13.82 29.22,13.89 28.8,13.9 C28.22,13.91 27.64,13.9 27.06,13.9 Z" id="Path"></path>
                    <path d="M5.9,13.9 C5.35,13.9 4.8,13.9 4.25,13.9 C3.76,13.89 3.69,13.83 3.69,13.36 C3.68,12.36 3.68,11.36 3.69,10.37 C3.69,9.91 3.78,9.82 4.26,9.82 C5.36,9.81 6.45,9.81 7.55,9.82 C8.03,9.82 8.17,9.95 8.18,10.45 C8.2,11.41 8.2,12.38 8.18,13.34 C8.17,13.78 8.04,13.89 7.6,13.9 C7.03,13.91 6.46,13.9 5.9,13.9 Z" id="Path"></path>
                    <path d="M11.14,13.9 C10.59,13.9 10.04,13.91 9.49,13.9 C9.03,13.89 8.91,13.79 8.91,13.35 C8.9,12.35 8.9,11.35 8.91,10.36 C8.91,9.97 9.03,9.83 9.41,9.82 C10.59,9.8 11.77,9.81 12.95,9.82 C13.27,9.82 13.4,9.96 13.4,10.29 C13.41,11.32 13.41,12.35 13.4,13.38 C13.4,13.77 13.28,13.88 12.89,13.89 C12.3,13.91 11.72,13.9 11.14,13.9 C11.14,13.9 11.14,13.9 11.14,13.9 Z" id="Path"></path>
                    <path d="M16.49,13.9 C15.94,13.9 15.39,13.9 14.84,13.9 C14.36,13.9 14.23,13.79 14.22,13.33 C14.21,12.35 14.21,11.37 14.22,10.39 C14.23,9.96 14.37,9.82 14.8,9.82 C15.93,9.81 17.06,9.81 18.19,9.82 C18.58,9.82 18.7,9.95 18.7,10.33 C18.71,11.36 18.71,12.39 18.7,13.42 C18.7,13.81 18.61,13.89 18.22,13.89 C17.65,13.91 17.07,13.9 16.49,13.9 Z" id="Path"></path>
                    <path d="M21.78,13.9 C21.21,13.9 20.65,13.91 20.08,13.9 C19.62,13.89 19.51,13.79 19.5,13.35 C19.49,12.35 19.49,11.35 19.5,10.36 C19.5,9.98 19.63,9.84 20.01,9.83 C21.17,9.81 22.34,9.82 23.5,9.83 C23.86,9.83 23.99,9.96 23.99,10.32 C24,11.35 24,12.38 23.99,13.41 C23.99,13.79 23.87,13.9 23.47,13.91 C22.91,13.91 22.34,13.9 21.78,13.9 Z" id="Path"></path>
                    <path d="M11.14,9.01 C10.57,9.01 10.01,9.02 9.44,9.01 C9.01,9 8.91,8.92 8.91,8.48 C8.9,7.5 8.9,6.52 8.91,5.53 C8.91,5.09 9.01,5 9.44,4.99 C10.59,4.98 11.74,4.98 12.89,4.99 C13.33,4.99 13.4,5.07 13.41,5.52 C13.42,6.5 13.42,7.48 13.41,8.47 C13.41,8.94 13.34,9 12.84,9.01 C12.27,9.01 11.7,9.01 11.14,9.01 Z" id="Path"></path>
                    <path d="M21.74,9.01 C21.17,9.01 20.61,9.02 20.04,9.01 C19.6,9 19.51,8.92 19.5,8.48 C19.49,7.5 19.49,6.52 19.5,5.53 C19.5,5.07 19.6,4.99 20.08,4.99 C21.2,4.98 22.31,4.98 23.43,4.99 C23.94,4.99 24,5.05 24,5.57 C24,6.52 24,7.47 24,8.42 C24,8.96 23.94,9.01 23.39,9.01 C22.84,9.01 22.29,9.01 21.74,9.01 Z" id="Path"></path>
                    <path d="M16.45,9.01 C15.9,9.01 15.35,9.02 14.8,9.01 C14.37,9 14.24,8.91 14.23,8.5 C14.21,7.5 14.21,6.5 14.23,5.5 C14.24,5.11 14.37,5 14.75,4.99 C15.92,4.98 17.08,4.98 18.25,4.99 C18.63,4.99 18.71,5.07 18.71,5.47 C18.72,6.49 18.72,7.5 18.71,8.52 C18.71,8.93 18.63,9 18.19,9 C17.61,9.02 17.03,9.01 16.45,9.01 Z" id="Path"></path>
                    <path d="M115.79,27.19 C115.32,27.18 114.99,26.83 114.99,26.36 C114.99,25.88 115.33,25.55 115.81,25.55 C116.28,25.55 116.67,25.95 116.65,26.41 C116.64,26.84 116.24,27.2 115.79,27.19 Z M116.2,26.8 C116.47,26.47 116.48,26.12 116.22,25.89 C115.98,25.67 115.64,25.67 115.4,25.88 C115.15,26.11 115.13,26.54 115.34,26.79 C115.58,27.06 115.87,27.06 116.2,26.8 L116.2,26.8 Z" id="Shape"></path>
                    <path d="M116.2,26.8 C116.07,26.72 115.93,26.64 115.73,26.52 C115.7,26.59 115.67,26.7 115.63,26.8 C115.59,26.78 115.54,26.75 115.5,26.73 C115.5,26.57 115.5,26.41 115.5,26.25 C115.5,26.04 115.61,25.94 115.81,25.95 C116,25.96 116.17,26.01 116.15,26.27 C116.14,26.45 116.18,26.63 116.2,26.8 C116.2,26.8 116.2,26.8 116.2,26.8 Z" id="Path"></path>
                </g>
            </g>
        </g>
    </g>
</svg>