<svg xmlns="http://www.w3.org/2000/svg" width="87" height="61" viewBox="0 0 87 61">
    <g fill="none" fill-rule="evenodd">
        <g>
            <g>
                <g>
                    <path fill="#000" fill-rule="nonzero" d="M74.425 29.988c-4.721 0-8.062 1.988-10.2 5.106-1.974 2.877-2.894 6.717-2.894 10.83 0 3.99.905 7.274 2.494 9.744C66.037 59.118 69.585 61 73.846 61 83.586 61 87 52.445 87 45.065c0-6.1-2.435-14.942-12.352-15.077h-.223m-.282 24.927c-1.915 0-3.192-1.43-3.741-3.72-.342-1.552-.386-3.193-.386-4.79 0-2.937.163-6.778 1.276-8.675.802-1.34 2.05-1.853 3.03-1.853 2.048 0 3.102 1.687 3.533 3.54.43 1.852.52 5.09.52 6.43-.016 4.218-.654 9.068-4.232 9.068" transform="translate(-769 -8500) translate(763 8500) translate(6)"/>
                    <path fill="#FD0" fill-rule="nonzero" d="M43.782 35.094c-1.856-2.952-4.929-5.151-9.843-5.212-4.083-.06-7.156 1.371-9.309 3.706l-.326 3.163h-1.812c-.668 1.37-1.143 2.891-1.455 4.503 2.94 1.702 4.796 4.67 4.796 8.36 0 2.394-.817 4.82-2.212 6.687 2.227 2.982 5.567 4.594 9.516 4.594 4.885 0 8.18-2.14 10.244-5.212-1.588-2.485-2.494-5.753-2.494-9.745 0-4.127.935-7.967 2.895-10.844M33.434 54.81c-1.915 0-3.192-1.431-3.741-3.72-.342-1.552-.386-3.194-.386-4.79 0-2.937.163-6.778 1.277-8.676.816-1.34 2.048-1.852 3.028-1.852 2.05 0 3.103 1.687 3.534 3.54.43 1.852.52 5.09.52 6.43-.015 4.233-.654 9.068-4.232 9.068" transform="translate(-769 -8500) translate(763 8500) translate(6)"/>
                    <path fill="#0075BF" fill-rule="nonzero" d="M53.863 35.862c-.98 0-2.212.512-3.029 1.853-1.113 1.897-1.277 5.738-1.277 8.675 0 1.597.045 3.238.386 4.79.55 2.29 1.826 3.72 3.742 3.72 3.578 0 4.216-4.835 4.216-9.067 0-1.34-.09-4.579-.52-6.432-.4-1.852-1.47-3.539-3.518-3.539M53.403 61c-4.261 0-7.81-1.883-10.022-5.332 2.064-3.057 2.91-7.034 2.91-10.724 0-3.072-.609-6.853-2.509-9.865 2.138-3.118 5.478-5.106 10.2-5.106h.237c4.959.06 8.047 2.304 9.888 5.302-1.886 2.861-2.776 6.612-2.776 10.633 0 3.946.89 7.2 2.45 9.67C61.716 58.756 58.39 61 53.402 61" transform="translate(-769 -8500) translate(763 8500) translate(6)"/>
                    <path fill="#0075BF" fill-rule="nonzero" d="M63.78 55.593c-1.559-2.47-2.45-5.724-2.45-9.67 0-4.021.891-7.772 2.777-10.633 1.856 2.997 2.464 6.732 2.464 9.775-.015 3.6-.831 7.485-2.79 10.528" transform="translate(-769 -8500) translate(763 8500) translate(6)"/>
                    <path fill="#6AA426" fill-rule="nonzero" d="M43.782 35.094c-1.96 2.877-2.895 6.717-2.895 10.83 0 3.99.906 7.274 2.494 9.744 2.064-3.057 2.91-7.034 2.91-10.724 0-3.057-.623-6.838-2.509-9.85" transform="translate(-769 -8500) translate(763 8500) translate(6)"/>
                    <path fill="#DD2515" fill-rule="nonzero" d="M21.037 41.254c-1.781-1.04-3.964-1.612-6.354-1.612-1.574 0-3.489.302-4.766.829-.297.135-.593.301-.89.467l.43-4.187h13.05c.58-1.175 1.277-2.245 2.138-3.163l.312-3.013H3.237L1.618 46.646l7.275.904c.505-.783 1.188-1.898 3.578-1.898 3.029 0 4.469 1.943 4.469 4.624 0 2.335-1.232 4.624-4.335 4.624-1.752 0-3.148-.813-3.667-2.5-.208-.693-.208-1.431-.208-2.154l-8.685.904c.475 2.244.89 4.322 2.761 6.31 3.326 3.39 8.18 3.39 9.754 3.39 2.465 0 7.022-.211 10.214-3.54.312-.316.594-.648.861-1.01-1.9-2.545-2.998-6.084-2.998-10.482-.015-1.567.118-3.103.4-4.564" transform="translate(-769 -8500) translate(763 8500) translate(6)"/>
                    <path fill="#F07E26" fill-rule="nonzero" d="M24.304 36.75l.326-3.162c-.846.918-1.559 1.988-2.138 3.163h1.812zM21.037 41.254c-.282 1.461-.415 2.997-.415 4.564 0 4.398 1.098 7.937 2.999 10.483 1.395-1.868 2.212-4.293 2.212-6.688 0-3.705-1.856-6.657-4.796-8.359" transform="translate(-769 -8500) translate(763 8500) translate(6)"/>
                    <path d="M0.045 0.03H87V61H0.045z" transform="translate(-769 -8500) translate(763 8500) translate(6)"/>
                    <path fill="#000" fill-rule="nonzero" d="M7.765 25.108L7.765 19.64 10.986 19.64 10.986 5.904 7.765 5.904 7.765 0.015 24.972 0.015 24.972 5.904 21.735 5.904 21.735 19.625 24.972 19.625 24.972 25.108z" transform="translate(-769 -8500) translate(763 8500) translate(6)"/>
                    <path d="M7.765 0.015H80.661V25.575H7.765z" transform="translate(-769 -8500) translate(763 8500) translate(6)"/>
                    <path fill="#000" fill-rule="nonzero" d="M40.501 25.108V19.64h2.494v-5.723c0-1.717-1.217-2.5-2.776-2.5-1.975 0-3.474 1.476-3.474 3.479v4.744h2.568v5.468H25.848V19.64h2.434v-8.253h-2.434V5.919h10.615V9.7c.178-.135.341-.346.49-.526 1.945-2.26 4.157-3.058 7.081-3.058 4.098 0 7.424 1.687 7.424 6.296v7.23h2.182v5.467H40.501z" transform="translate(-769 -8500) translate(763 8500) translate(6)"/>
                    <path fill="#000" fill-rule="nonzero" d="M75.034 14.007l-7.26.814c-.09-2.049-.505-4.202-2.955-4.202-3.117 0-3.37 2.635-3.37 5.166v.045c0 2.53.238 5.166 3.37 5.166 1.634 0 3.089-.949 3.089-2.967h7.23l-.06.632c-1.187 5.965-6.502 6.899-10.333 6.899-5.998 0-11.892-2.998-11.892-9.775v.015c0-6.793 5.894-9.775 11.892-9.775 0 .015 9.413-.603 10.289 7.982" transform="translate(-769 -8500) translate(763 8500) translate(6)"/>
                    <path fill="#000" fill-rule="nonzero" d="M80.66 22.08c0 1.718-1.365 3.103-3.058 3.103-1.692 0-3.058-1.385-3.058-3.103 0-1.717 1.366-3.102 3.058-3.102 1.693 0 3.059 1.385 3.059 3.102" transform="translate(-769 -8500) translate(763 8500) translate(6)"/>
                    <path d="M0.045 0.03H87V61H0.045z" transform="translate(-769 -8500) translate(763 8500) translate(6)"/>
                </g>
            </g>
        </g>
    </g>
</svg>
