<?xml version="1.0" encoding="UTF-8"?>
<svg width="89px" height="26px" viewBox="0 0 89 26" version="1.1" xmlns="http://www.w3.org/2000/svg" xmlns:xlink="http://www.w3.org/1999/xlink">
    <title>Intuit_Logo</title>
    <g id="Homepage" stroke="none" stroke-width="1" fill="none" fill-rule="evenodd">
        <g id="1.-10P-WEB-REVAMP_HOMEPAGE_UPDATE-1" transform="translate(-1137.000000, -896.000000)" fill="#434343">
            <g id="Group-6" transform="translate(190.000000, 896.000000)">
                <g id="Intuit_Logo" transform="translate(947.000000, 0.000000)">
                    <path d="M87.103526,25.279458 C86.5056614,25.2770865 86.0215843,24.7930093 86.0192128,24.1951447 C86.0451867,23.6151595 86.5229595,23.1583044 87.103526,23.1583044 C87.6840925,23.1583044 88.1618653,23.6151595 88.1878393,24.1951447 C88.1878393,24.7891414 87.7029516,25.279458 87.103526,25.279458 L87.103526,25.279458 Z M87.103526,22.9131864 C86.3929098,22.9131864 85.8161795,23.4834264 85.8161795,24.1951447 C85.8161795,24.9079652 86.3929098,25.4652248 87.103526,25.4652248 C87.8163465,25.4652248 88.3919746,24.9068631 88.3919746,24.1951447 C88.3919746,23.4834264 87.8152444,22.9131864 87.103526,22.9131864 Z M86.8606536,24.0990162 L86.8606536,23.6875617 L87.0982196,23.6875617 C87.2341465,23.6875617 87.386401,23.7283806 87.386401,23.8851252 C87.386401,24.0602383 87.2170026,24.0990162 87.0700545,24.0990162 L86.8606536,24.0990162 Z M87.6458051,23.8896153 C87.6458051,23.5806162 87.3812986,23.4662825 87.1101387,23.4662825 L86.6025148,23.4662825 L86.6025148,24.9113123 L86.8604903,24.9113123 L86.8604903,24.3076008 L87.0474408,24.3076008 L87.3866459,24.9123736 L87.7029924,24.9123736 L87.3119473,24.2795174 C87.5172664,24.235433 87.6454377,24.0990979 87.6454377,23.8909215 L87.6458051,23.8896153 Z M79.5382735,5.5674397 C80.4913346,5.58670676 81.3803809,5.08934549 81.8626708,4.26709665 C82.3449606,3.4448478 82.345166,2.42613711 81.8632076,1.6036939 C81.3812493,0.781250684 80.4924036,0.28353104 79.5393348,0.302413878 C78.1059699,0.331103163 76.9589853,1.50127482 76.9589853,2.93492679 C76.9589853,4.36857876 78.1059699,5.53875041 79.5393348,5.5674397 L79.5382735,5.5674397 Z M72.4750527,7.84080752 L72.4750527,11.7028877 L77.35883,11.7028877 L77.35883,25.2806826 L81.716615,25.2806826 L81.716615,11.7028877 L86.6014535,11.7028877 L86.6014535,7.84080752 L72.4750527,7.84080752 Z M34.4557986,5.56743978 C35.396461,5.56767396 36.2657692,5.06597108 36.736168,4.25137254 C37.2065669,3.436774 37.2065669,2.43307958 36.736168,1.61848104 C36.2657692,0.803882499 35.396461,0.302179612 34.4557986,0.302413796 C33.0224337,0.331103163 31.875449,1.50127482 31.875449,2.93492679 C31.875449,4.36857876 33.0224337,5.53875041 34.4557986,5.56743978 Z M27.3915169,11.7018265 L32.2763563,11.7018265 L32.2763563,25.2806826 L36.6330787,25.2806826 L36.6330787,11.7028877 L41.5190194,11.7028877 L41.5190194,7.84080752 L27.3926198,7.84080752 L27.3926198,11.7028877 L27.3915169,11.7018265 Z M65.0629936,25.2806826 L69.4218806,25.2806826 L69.4218806,7.85162453 L65.0640957,7.85162453 L65.0640957,25.2806826 L65.0629936,25.2806826 Z M56.2459071,17.4376983 C56.2459071,19.7618856 54.9369266,22.157302 52.1786302,22.157302 C49.3824948,22.157302 48.9105466,19.5804456 48.9105466,17.5100702 L48.9105466,7.85162453 L44.5527209,7.85162453 L44.5527209,18.7445154 C44.5527209,22.3041684 46.4405542,25.7893677 50.9808812,25.7893677 C53.5577784,25.7893677 55.628113,24.2276774 56.3906101,22.4845471 L56.4628595,22.4845471 L56.4628595,25.2806826 L60.6025083,25.2806826 L60.6025083,7.85162453 L56.2457846,7.85162453 L56.2459071,17.4376983 Z M18.7450538,7.34293939 C16.1670949,7.34293939 14.097822,8.90462969 13.335325,10.64776 L13.2618509,10.64776 L13.2618509,7.85162453 L9.12330389,7.85162453 L9.12330389,25.2806826 L13.4800275,25.2806826 L13.4800275,15.694568 C13.4800275,13.3704214 14.7879067,10.973903 17.5473048,10.973903 C20.3423381,10.973903 20.815388,13.5518615 20.815388,15.6222369 L20.815388,25.2806826 L25.1720716,25.2806826 L25.1720716,14.3856283 C25.1720716,10.8280979 23.2853396,7.3418781 18.745013,7.3418781 L18.7450538,7.34293939 Z M0.30189058,25.2806826 L4.65861424,25.2806826 L4.65861424,7.85162453 L0.30189058,7.85162453 L0.30189058,25.2806826 Z" id="path3040"></path>
                </g>
            </g>
        </g>
    </g>
</svg>