<?xml version="1.0" encoding="UTF-8"?>
<svg width="127px" height="23px" viewBox="0 0 127 23" version="1.1" xmlns="http://www.w3.org/2000/svg" xmlns:xlink="http://www.w3.org/1999/xlink">
    <title>JohnsonandJohnsonLogo</title>
    <g id="Homepage" stroke="none" stroke-width="1" fill="none" fill-rule="evenodd">
        <g id="1.-10P-WEB-REVAMP_HOMEPAGE_UPDATE-1" transform="translate(-190.000000, -898.000000)" fill="#434343">
            <g id="Group-6" transform="translate(190.000000, 896.000000)">
                <g id="JohnsonandJohnsonLogo" transform="translate(0.000000, 2.000000)">
                    <path d="M45.9792685,8.32131326 C45.9792685,8.11264682 46.1211956,8.00113278 46.299449,8.00113278 C46.6010438,8.00113278 47.0563929,8.32131326 47.3132131,8.96167422 C47.2211296,8.96167422 47.0825817,8.98955273 46.9896534,8.98955273 C46.4405312,8.98955273 45.9792685,8.72850848 45.9792685,8.32131326 Z M12.756531,8.32131326 C12.756531,8.11264682 12.8925443,8.00113278 13.0784011,8.00113278 C13.3723927,8.00113278 13.809156,8.32131326 14.062597,8.96167422 C13.2144144,8.96167422 12.756531,8.77835188 12.756531,8.32131326 Z M19.1643646,5.01221843 C19.1643646,1.58654074 19.8317592,1.06022824 20.038736,1.06022824 C20.4070704,1.06022824 20.4510001,1.29001476 20.4510001,2.60368401 C20.4510001,3.9536798 19.8756891,5.72016366 19.1643646,6.68999794 L19.1643646,5.01221843 Z M42.4902306,8.38974233 C42.0948626,8.94055413 41.7746822,9.72284206 41.7746822,10.7306924 C41.7746822,12.6610682 42.8754609,14.5035844 45.0145031,14.5035844 C47.0825817,14.5035844 48.5314195,12.8697347 48.5314195,10.5912999 C48.5314195,9.92981893 48.5060755,9.83858008 48.4629905,9.56401903 C48.9436836,9.35450779 49.3584821,9.0343273 49.6811969,8.77835188 C49.9557581,8.57137505 50.1610453,8.45563699 50.3249372,8.45563699 C50.5310691,8.45563699 50.6214632,8.61699444 50.6214632,8.91521003 L50.6214632,13.4230809 C50.6214632,14.157215 50.853784,14.5035844 51.425716,14.5035844 C51.9528732,14.5035844 52.323742,14.1335604 52.5290291,13.6976419 C53.2893521,12.111946 54.390131,9.99824794 54.8708242,9.19568475 C54.9865621,9.01151762 55.0803353,8.87043546 55.14623,8.87043546 C55.2383136,8.87043546 55.2856225,8.94055413 55.2856225,9.23792492 L55.2856225,12.8266497 C55.2856225,13.8361897 55.7468852,14.5035844 56.7538908,14.5035844 C57.8132743,14.5035844 58.338742,13.4889755 59.2646465,11.9269341 C59.3085762,11.8331609 59.3280067,11.7664215 59.3280067,11.6996819 C59.3280067,11.4927051 59.1489084,11.3752775 58.9638965,11.3752775 C58.75523,11.3752775 58.6403367,11.5839438 57.9526668,12.3400429 C57.8132743,12.4836595 57.6781058,12.6830331 57.4229751,12.6830331 C57.3317363,12.6830331 57.2616177,12.5723639 57.2616177,12.4321264 L57.2616177,8.40917281 C57.2616177,7.32866929 56.7783901,6.89275075 56.1583045,6.89275075 C55.6539568,6.89275075 55.2383136,7.09972757 54.802395,7.74346775 C54.020952,8.89493475 53.2166991,10.5279397 52.7816253,11.3507782 C52.7326267,11.4470857 52.6667321,11.5839438 52.6219576,11.5839438 C52.5738038,11.5839438 52.5535284,11.5129804 52.5535284,11.3507782 L52.5535284,8.40917281 C52.5535284,7.56099022 52.323742,6.89275075 51.425716,6.89275075 C50.4829153,6.89275075 50.0013774,7.53733572 49.3120179,8.01887364 C48.8752546,8.34412295 48.4858001,8.57137505 48.1884294,8.70907801 C47.726322,7.53733572 46.8772946,6.94343896 46.1651253,6.96117982 C45.4504217,6.98567911 44.9452292,7.42497688 44.9452292,8.16080062 C44.9452292,8.91521003 45.4073367,9.44067773 46.0248879,9.67468827 C46.3678782,9.81239124 46.690593,9.83858008 47.1527005,9.83858008 C47.2912482,9.83858008 47.4281063,9.83858008 47.5168108,9.81239124 C47.5658093,10.0413329 47.5438444,10.367427 47.5438444,10.6191785 C47.5438444,11.7469909 46.8772946,12.8697347 45.637968,12.8697347 C44.3479532,12.8697347 43.592699,11.6287185 43.592699,10.2052248 C43.592699,9.12387646 43.9128795,8.22922969 44.4375024,7.61083361 C44.649548,7.37935749 44.8075263,7.23912013 44.8075263,7.02707448 C44.8075263,6.91978446 44.649548,6.89275075 44.5101555,6.89275075 C43.6349392,6.89275075 42.6727082,7.28473952 42.0078479,7.62772968 C41.1300971,8.08814753 40.0985922,8.84931537 39.2470304,9.607104 C38.8339216,8.68542351 38.3287291,7.8811707 38.0744434,7.25855061 C37.9832046,7.0059544 37.9164652,6.71280763 37.732298,6.71280763 C37.569251,6.71280763 37.4982875,6.87332027 37.3859286,7.19012154 C36.9736646,8.40917281 34.7661934,11.9742431 34.2838106,12.4566258 C34.2381912,12.5225205 34.1714518,12.5951735 34.1494869,12.5951735 C34.0996435,12.5951735 34.0734545,12.5723639 34.0734545,12.4321264 L34.0734545,8.40917281 C34.0734545,7.32866929 33.637536,6.89275075 33.044484,6.89275075 C32.5367572,6.89275075 32.1016835,7.09972757 31.6885746,7.74346775 C30.9316309,8.89493475 30.0082608,10.5727143 29.573187,11.3980871 C29.5030683,11.5400141 29.4337944,11.5839438 29.41014,11.5839438 C29.3873302,11.5839438 29.3687446,11.4927051 29.3687446,11.3507782 L29.3687446,8.40917281 C29.3687446,7.32866929 28.9302916,6.89275075 28.3321708,6.89275075 C27.8252888,6.89275075 27.3454405,7.0811419 26.9526069,7.74346775 C25.989531,9.37731748 24.3818703,11.8821594 24.0828098,12.2927339 C24.0363456,12.3636974 23.9898814,12.4101616 23.9442621,12.4321264 C23.8986427,12.4321264 23.8724539,12.3873519 23.8724539,12.2733035 L23.8724539,8.40917281 C23.8724539,7.32866929 23.4365352,6.89275075 22.8426385,6.89275075 C22.0138864,6.89275075 21.5568477,7.6547634 21.255253,8.13461172 C20.8396097,8.80116157 20.2904875,9.69918757 19.8554137,10.5279397 C19.5555086,11.0821307 19.3012227,11.5839438 19.2082944,11.5839438 C19.1643646,11.5839438 19.1643646,11.3752775 19.1643646,10.9858231 L19.1643646,7.9073596 C20.6098232,6.29547476 21.5070044,4.32116927 21.5070044,2.16100704 C21.5070044,0.917456463 20.9578822,0.231476125 20.1096996,0.231476125 C18.5206245,0.231476125 17.3057972,2.71435325 17.3057972,5.65342419 L17.3057972,8.04337294 C16.5691286,8.50379078 15.8789243,8.72850848 15.0273625,8.89493475 C14.5922887,7.61083361 13.6714531,6.94343896 12.9390085,6.96117982 C12.2285289,6.98567911 11.7208021,7.42497688 11.7208021,8.16080062 C11.7208021,9.37731748 12.9161988,9.88250985 13.9705135,9.88250985 L14.2695739,9.88250985 C14.3143484,10.113986 14.3143484,10.367427 14.3143484,10.6191785 C14.3143484,11.7469909 13.6486433,12.8697347 12.4110064,12.8697347 C11.1252157,12.8697347 10.3648926,11.6287185 10.3648926,10.2052248 C10.3648926,9.12387646 10.6833835,8.22922969 11.2122304,7.61083361 C11.4208969,7.37935749 11.5830991,7.17238066 11.5830991,7.02707448 C11.5830991,6.91978446 11.4208969,6.89275075 11.2815042,6.89275075 C10.4088224,6.89275075 8.4809811,8.06956185 6.18142631,10.367427 C5.97782869,8.52829008 5.74635256,6.73392771 5.74635256,4.98687433 C5.74635256,3.03453373 6.13242771,1.3761847 6.22451128,0.898025991 C6.27097546,0.601500003 6.29969878,0.414798456 6.29969878,0.279629914 C6.29969878,0.0946179776 6.20170159,2.18278728e-13 5.95417419,2.18278728e-13 C4.09053795,2.18278728e-13 1.00044417e-13,2.96610465 1.00044417e-13,7.40132238 C1.00044417e-13,10.5465253 1.151467,12.064637 3.14689258,14.0178225 C1.93544453,15.9718527 0.963920652,18.2916827 0.963920652,20.3606062 C0.963920652,21.8516841 1.31197965,22.9811863 2.41191364,22.9811863 C4.71062363,22.9811863 6.43233291,18.2038231 6.43233291,14.6624074 C6.43233291,13.6064032 6.39009274,12.5478645 6.29969878,11.4927051 C7.14703657,10.5912999 8.4573266,9.37731748 8.77666228,9.26242422 C8.63980413,9.74565176 8.54772056,10.2525338 8.54772056,10.7306924 C8.54772056,12.6610682 9.65272338,14.5035844 11.7875415,14.5035844 C13.7897255,14.5035844 15.3036132,12.8697347 15.3036132,10.5912999 C15.3036132,10.2973083 15.2799586,10.0413329 15.2596834,9.76677183 C15.9912831,9.62906888 16.6645914,9.44067773 17.3057972,9.05629219 L17.3057972,13.6748323 C17.3057972,14.2695739 17.7163716,14.5035844 18.1075156,14.5035844 C18.6388968,14.5035844 18.9143028,14.1335604 19.3012227,13.2879124 C19.6264721,12.5951735 20.4966195,11.0111672 21.0246217,10.0658323 C21.4411097,9.32831888 21.6708962,8.84931537 21.8559081,8.84931537 C21.8989931,8.84931537 21.9479917,8.96167422 21.9479917,9.23792492 L21.9479917,13.1687951 C21.9479917,14.2264889 22.4996483,14.5035844 22.9769622,14.5035844 C23.4365352,14.5035844 23.7372852,14.2509881 24.0363456,13.8361897 C25.2325873,12.1339109 26.4981027,10.113986 26.9999159,9.23792492 C27.0928443,9.08079149 27.2068927,8.96167422 27.2998211,8.96167422 C27.3893702,8.96167422 27.4358344,9.01151762 27.4358344,9.30635399 L27.4358344,13.4230809 C27.4358344,14.157215 27.665621,14.5035844 28.2426216,14.5035844 C28.7680894,14.5035844 29.1119244,14.1335604 29.3172116,13.6976419 C30.0809139,12.111946 31.2036575,10.0193681 31.6885746,9.19568475 C31.8009335,9.01151762 31.9166716,8.84931537 31.9851006,8.84931537 C32.0805635,8.84931537 32.1016835,8.96167422 32.1016835,9.26242422 L32.1016835,13.1687951 C32.1016835,14.2264889 32.6533401,14.5035844 33.139102,14.5035844 C33.7769285,14.5035844 34.1951062,14.0414769 34.6082151,13.5151644 C35.3617798,12.5225205 36.4659378,10.7602606 37.1333324,9.62906888 C37.3648086,9.99824794 37.6148704,10.4358561 37.8252264,10.9173941 C37.272725,11.5839438 36.7202236,12.3400429 36.7202236,13.1434509 C36.7202236,13.9950127 37.3174996,14.5035844 37.93843,14.5035844 C38.9935894,14.5035844 39.9575101,13.4889755 39.9575101,12.0899811 C39.9575101,11.5400141 39.7995319,10.9638582 39.5942446,10.4138912 C40.5311316,9.49221074 41.6589441,8.59587435 42.4902306,8.38974233 L42.4902306,8.38974233 Z M4.63966014,13.3994263 C4.82551689,14.6159432 4.98687433,15.8138744 4.98687433,16.7541406 C4.98687433,18.956543 4.253585,21.5315036 2.98891435,21.5103836 C2.50061799,21.5103836 2.09004356,21.0220872 2.06976827,20.1764391 C2.02330409,17.4215353 3.33274932,15.0763611 4.63966014,13.3994263 Z M38.1893366,11.8331609 C38.3287291,12.2285289 38.3988479,12.5478645 38.3988479,12.8697347 C38.3988479,13.2380689 38.2603001,13.6064032 38.0060143,13.6064032 C37.8252264,13.6064032 37.6410592,13.3994263 37.6410592,13.0767115 C37.6410592,12.7311868 37.93843,12.1795302 38.1893366,11.8331609 L38.1893366,11.8331609 Z M5.46925706,0.873526691 C5.46925706,1.01376405 5.14738698,1.65496982 4.73512293,2.80559201 C4.29835958,3.99845438 3.88187151,5.69735397 3.88187151,7.74346775 C3.88187151,8.96167422 4.18346632,10.5727143 4.43775214,12.2031848 L3.7019284,13.1949839 C2.52849651,11.7664215 1.79436237,10.1604502 1.79436237,7.40132238 C1.79436237,3.49579637 4.16065663,0.786511948 5.37632868,0.786511948 C5.44898178,0.786511948 5.46925706,0.806787221 5.46925706,0.873526691 Z" id="Fill-1"></path>
                    <path d="M113.372951,8.32131326 C113.372951,8.11264682 113.507275,8.00113278 113.693132,8.00113278 C113.989657,8.00113278 114.450075,8.32131326 114.701827,8.96167422 C114.612278,8.96167422 114.474574,8.98955273 114.378267,8.98955273 C113.831679,8.98955273 113.372951,8.72850848 113.372951,8.32131326 Z M80.1434551,8.32131326 C80.1434551,8.11264682 80.2836924,8.00113278 80.4653251,8.00113278 C80.7643855,8.00113278 81.2053729,8.32131326 81.4529002,8.96167422 C80.603028,8.96167422 80.1434551,8.77835188 80.1434551,8.32131326 Z M86.5555126,5.01221843 C86.5555126,1.58654074 87.2186833,1.06022824 87.4281945,1.06022824 C87.7948392,1.06022824 87.8413034,1.29001476 87.8413034,2.60368401 C87.8413034,3.9536798 87.2651475,5.72016366 86.5555126,6.68999794 L86.5555126,5.01221843 Z M72.0350322,13.3994263 C72.2132857,14.6159432 72.3805568,15.8138744 72.3805568,16.7541406 C72.3805568,18.956543 71.6464227,21.5315036 70.3792176,21.5103836 C69.8976797,21.5103836 69.483726,21.0220872 69.4609163,20.1764391 C69.4136073,17.4215353 70.725587,15.0763611 72.0350322,13.3994263 Z M105.583864,11.8331609 C105.723256,12.2285289 105.789151,12.5478645 105.789151,12.8697347 C105.789151,13.2380689 105.651448,13.6064032 105.398852,13.6064032 C105.217219,13.6064032 105.027983,13.3994263 105.027983,13.0767115 C105.027983,12.7311868 105.329578,12.1795302 105.583864,11.8331609 L105.583864,11.8331609 Z M72.8578707,0.873526691 C72.8578707,1.01376405 72.5393799,1.65496982 72.1228918,2.80559201 C71.6895077,3.99845438 71.2730196,5.69735397 71.2730196,7.74346775 C71.2730196,8.96167422 71.5796832,10.5727143 71.8305898,12.2031848 L71.0930765,13.1949839 C69.9230237,11.7664215 69.1838208,10.1604502 69.1838208,7.40132238 C69.1838208,3.49579637 71.5551839,0.786511948 72.7708559,0.786511948 C72.8375954,0.786511948 72.8578707,0.806787221 72.8578707,0.873526691 L72.8578707,0.873526691 Z M69.0266874,12.3636974 C69.4372618,12.915354 69.9441439,13.4433561 70.5414199,14.0178225 C69.3223686,15.9718527 68.358448,18.2916827 68.358448,20.3606062 C68.358448,21.8516841 68.7056621,22.9811863 69.8089754,22.9811863 C72.1043061,22.9811863 73.8260154,18.2038231 73.8260154,14.6624074 C73.8260154,13.6064032 73.7812408,12.5478645 73.6891572,11.4927051 C74.540719,10.5912999 75.8459403,9.37731748 76.1720343,9.26242422 C76.0334866,9.74565176 75.9380238,10.2525338 75.9380238,10.7306924 C75.9380238,12.6610682 77.0421819,14.5035844 79.181224,14.5035844 C81.1783392,14.5035844 82.6947613,12.8697347 82.6947613,10.5912999 C82.6947613,10.2973083 82.6736411,10.0413329 82.6482971,9.76677183 C83.3849656,9.62906888 84.0557395,9.44067773 84.6952556,9.05629219 L84.6952556,13.6748323 C84.6952556,14.2695739 85.1066748,14.5035844 85.4944397,14.5035844 C86.0300449,14.5035844 86.3054509,14.1335604 86.6940604,13.2879124 C87.0142409,12.5951735 87.8894572,11.0111672 88.4191489,10.0658323 C88.831413,9.32831888 89.0611994,8.84931537 89.2495906,8.84931537 C89.2926756,8.84931537 89.3357606,8.96167422 89.3357606,9.23792492 L89.3357606,13.1687951 C89.3357606,14.2264889 89.8857276,14.5035844 90.3689551,14.5035844 C90.8302177,14.5035844 91.1258989,14.2509881 91.4308729,13.8361897 C92.6220457,12.1339109 93.8875612,10.113986 94.3919088,9.23792492 C94.4839923,9.08079149 94.6005752,8.96167422 94.6892796,8.96167422 C94.7788287,8.96167422 94.8295169,9.01151762 94.8295169,9.30635399 L94.8295169,13.4230809 C94.8295169,14.157215 95.056769,14.5035844 95.6303905,14.5035844 C96.1592374,14.5035844 96.5039172,14.1335604 96.7125836,13.6976419 C97.4712171,12.111946 98.5964952,10.0193681 99.0771883,9.19568475 C99.194616,9.01151762 99.3086644,8.84931537 99.3804727,8.84931537 C99.4700218,8.84931537 99.495366,8.96167422 99.495366,9.26242422 L99.495366,13.1687951 C99.495366,14.2264889 100.041954,14.5035844 100.523492,14.5035844 C101.171456,14.5035844 101.58541,14.0414769 101.995984,13.5151644 C102.753773,12.5225205 103.85962,10.7602606 104.525325,9.62906888 C104.752577,9.99824794 105.008553,10.4358561 105.217219,10.9173941 C104.659649,11.5839438 104.113906,12.3400429 104.113906,13.1434509 C104.113906,13.9950127 104.704424,14.5035844 105.329578,14.5035844 C106.384737,14.5035844 107.348658,13.4889755 107.348658,12.0899811 C107.348658,11.5400141 107.18899,10.9638582 106.982013,10.4138912 C107.923124,9.49221074 109.050092,8.59587435 109.877155,8.38974233 C109.486856,8.94055413 109.164985,9.72284206 109.164985,10.7306924 C109.164985,12.6610682 110.269144,14.5035844 112.406496,14.5035844 C114.474574,14.5035844 115.918344,12.8697347 115.918344,10.5912999 C115.918344,9.92981893 115.897223,9.83858008 115.854139,9.56401903 C116.331452,9.35450779 116.74794,9.0343273 117.07319,8.77835188 C117.342683,8.57137505 117.553883,8.45563699 117.711861,8.45563699 C117.919683,8.45563699 118.016835,8.61699444 118.016835,8.91521003 L118.016835,13.4230809 C118.016835,14.157215 118.243243,14.5035844 118.817709,14.5035844 C119.344022,14.5035844 119.714045,14.1335604 119.921867,13.6976419 C120.675432,12.111946 121.780434,9.99824794 122.261128,9.19568475 C122.376021,9.01151762 122.469794,8.87043546 122.539067,8.87043546 C122.63284,8.87043546 122.677616,8.94055413 122.677616,9.23792492 L122.677616,12.8266497 C122.677616,13.8361897 123.132964,14.5035844 124.146728,14.5035844 C125.206956,14.5035844 125.734114,13.4889755 126.65495,11.9269341 C126.698034,11.8331609 126.72,11.7664215 126.72,11.6996819 C126.72,11.4927051 126.535833,11.3752775 126.353355,11.3752775 C126.148067,11.3752775 126.03064,11.5839438 125.34297,12.3400429 C125.206956,12.4836595 125.06672,12.6830331 124.814968,12.6830331 C124.72035,12.6830331 124.6553,12.5723639 124.6553,12.4321264 L124.6553,8.40917281 C124.6553,7.32866929 124.167004,6.89275075 123.546918,6.89275075 C123.04426,6.89275075 122.63284,7.09972757 122.194388,7.74346775 C121.411255,8.89493475 120.609537,10.5279397 120.176153,11.3507782 C120.12631,11.4470857 120.05957,11.5839438 120.010571,11.5839438 C119.961573,11.5839438 119.943832,11.5129804 119.943832,11.3507782 L119.943832,8.40917281 C119.943832,7.56099022 119.714045,6.89275075 118.817709,6.89275075 C117.873218,6.89275075 117.393371,7.53733572 116.704856,8.01887364 C116.263868,8.34412295 115.876104,8.57137505 115.574508,8.70907801 C115.11916,7.53733572 114.265908,6.94343896 113.557118,6.96117982 C112.840725,6.98567911 112.339756,7.42497688 112.339756,8.16080062 C112.339756,8.91521003 112.799329,9.44067773 113.414346,9.67468827 C113.759871,9.81239124 114.081741,9.83858008 114.547228,9.83858008 C114.681551,9.83858008 114.81503,9.83858008 114.913028,9.81239124 C114.957802,10.0413329 114.934147,10.367427 114.934147,10.6191785 C114.934147,11.7469909 114.265908,12.8697347 113.024047,12.8697347 C111.738257,12.8697347 110.983002,11.6287185 110.983002,10.2052248 C110.983002,9.12387646 111.302338,8.22922969 111.828651,7.61083361 C112.038162,7.37935749 112.200364,7.23912013 112.200364,7.02707448 C112.200364,6.91978446 112.038162,6.89275075 111.900458,6.89275075 C111.031156,6.89275075 110.063012,7.28473952 109.396462,7.62772968 C108.52209,8.08814753 107.488051,8.84931537 106.640713,9.607104 C106.225914,8.68542351 105.723256,7.8811707 105.467281,7.25855061 C105.372663,7.0059544 105.310148,6.71280763 105.119222,6.71280763 C104.960399,6.71280763 104.89028,6.87332027 104.777077,7.19012154 C104.362278,8.40917281 102.158186,11.9742431 101.675803,12.4566258 C101.629339,12.5225205 101.56091,12.5951735 101.536411,12.5951735 C101.493326,12.5951735 101.467982,12.5723639 101.467982,12.4321264 L101.467982,8.40917281 C101.467982,7.32866929 101.034598,6.89275075 100.431408,6.89275075 C99.9253709,6.89275075 99.495366,7.09972757 99.0771883,7.74346775 C98.3177101,8.89493475 97.4010985,10.5727143 96.964335,11.3980871 C96.8967508,11.5400141 96.8291665,11.5839438 96.8072017,11.5839438 C96.7810127,11.5839438 96.7573582,11.4927051 96.7573582,11.3507782 L96.7573582,8.40917281 C96.7573582,7.32866929 96.3239741,6.89275075 95.7258533,6.89275075 C95.2189713,6.89275075 94.7332094,7.0811419 94.3462894,7.74346775 C93.3781447,9.37731748 91.7721735,11.8821594 91.4714235,12.2927339 C91.4308729,12.3636974 91.3818743,12.4101616 91.3328758,12.4321264 C91.2923252,12.4321264 91.2652915,12.3873519 91.2652915,12.2733035 L91.2652915,8.40917281 C91.2652915,7.32866929 90.8302177,6.89275075 90.2304074,6.89275075 C89.4008104,6.89275075 88.9446166,7.6547634 88.6438666,8.13461172 C88.2307578,8.80116157 87.6824804,9.69918757 87.2440274,10.5279397 C86.9475015,11.0821307 86.6940604,11.5839438 86.6019769,11.5839438 C86.5555126,11.5839438 86.5555126,11.3752775 86.5555126,10.9858231 L86.5555126,7.9073596 C88.0051953,6.29547476 88.8981525,4.32116927 88.8981525,2.16100704 C88.8981525,0.917456463 88.3481855,0.231476125 87.4949341,0.231476125 C85.9117724,0.231476125 84.6952556,2.71435325 84.6952556,5.65342419 L84.6952556,8.04337294 C83.9577422,8.50379078 83.2683827,8.72850848 82.4168209,8.89493475 C81.9834368,7.61083361 81.0634459,6.94343896 80.332691,6.96117982 C79.6154529,6.98567911 79.1119501,7.42497688 79.1119501,8.16080062 C79.1119501,9.37731748 80.3031228,9.88250985 81.3625063,9.88250985 L81.6632563,9.88250985 C81.7054964,10.113986 81.7054964,10.367427 81.7054964,10.6191785 C81.7054964,11.7469909 81.041481,12.8697347 79.7996201,12.8697347 C78.5121397,12.8697347 77.7577303,11.6287185 77.7577303,10.2052248 C77.7577303,9.12387646 78.0787556,8.22922969 78.6033784,7.61083361 C78.8095105,7.37935749 78.9717127,7.17238066 78.9717127,7.02707448 C78.9717127,6.91978446 78.8095105,6.89275075 78.6734971,6.89275075 C77.7991257,6.89275075 75.8704395,8.06956185 73.5700399,10.367427 C73.3681319,8.52829008 73.135811,6.73392771 73.135811,4.98687433 C73.135811,3.03453373 73.5261102,1.3761847 73.6181937,0.898025991 C73.6638131,0.601500003 73.6891572,0.414798456 73.6891572,0.279629914 C73.6891572,0.0946179776 73.5953841,2.18278728e-13 73.3470119,2.18278728e-13 C71.4850652,2.18278728e-13 67.3945273,2.96610465 67.3945273,7.40132238 C67.3945273,9.21427043 67.7848264,10.5042852 68.474186,11.6287185 C68.2173657,11.5839438 68.0154577,11.5839438 67.8270666,11.5839438 C67.0946221,11.5839438 66.4027282,11.7664215 65.9735679,11.8601946 L65.9735679,11.3980871 C65.9735679,10.4138912 65.7404023,9.05629219 65.3256038,8.59587435 C65.2766052,8.54856537 65.2081761,8.52829008 65.1439711,8.52829008 C64.9547351,8.52829008 64.7283278,8.61699444 64.4765764,8.756387 C64.1977913,8.89493475 63.9223854,9.0343273 63.9223854,9.12387646 C63.9223854,9.16780624 63.9223854,9.21427043 63.9916593,9.32831888 C64.1538616,9.56401903 64.5914697,10.0193681 64.7494479,11.102406 C63.9663151,10.3201181 63.0742028,9.9729039 61.9066846,9.9729039 C60.525431,9.9729039 60.1097878,10.5912999 60.1097878,11.2156096 C60.1097878,12.4101616 61.6954837,13.0074376 63.6976677,13.0074376 C64.0643124,13.0074376 64.4765764,12.9381637 64.8879957,12.8443905 C64.8879957,13.2127248 64.9344598,13.5388189 64.9344598,13.8125352 C64.9344598,14.2036792 65.0011994,14.5035844 65.2571748,14.5035844 C65.6466291,14.5035844 65.8781052,13.7187621 65.922035,12.5951735 C66.6342042,12.4101616 67.3708727,12.2513385 67.9934929,12.2513385 C68.2908637,12.2513385 68.6625772,12.2927339 69.0266874,12.3636974 Z M64.5002309,12.1339109 C64.113311,12.1795302 63.8776108,12.1795302 63.4678812,12.1795302 C62.5690103,12.1795302 61.9066846,11.8331609 61.9066846,11.3321925 C61.9066846,11.0111672 62.0655076,10.8244657 62.5250806,10.8244657 C63.2617492,10.8244657 63.855646,11.3321925 64.5002309,12.1339109 Z" id="Fill-4"></path>
                </g>
            </g>
        </g>
    </g>
</svg>