<?xml version="1.0" encoding="UTF-8"?>
<svg width="92px" height="29px" viewBox="0 0 92 29" version="1.1" xmlns="http://www.w3.org/2000/svg" xmlns:xlink="http://www.w3.org/1999/xlink">
    <title>k12-logo</title>
    <g id="Homepage" stroke="none" stroke-width="1" fill="none" fill-rule="evenodd">
        <g id="1.-10P-WEB-REVAMP_HOMEPAGE_UPDATE-1" transform="translate(-448.000000, -1097.000000)" fill="#434343">
            <g id="Group-6" transform="translate(190.000000, 896.000000)">
                <g id="k12-logo" transform="translate(258.000000, 201.000000)">
                    <path d="M12.01284,16.66572 C12.04548,16.63704 12.078,16.60824 12.11052,16.57956 C12.1122,15.60984 12.11388,14.64036 12.11568,13.67076 C12.08208,13.64448 12.04848,13.61832 12.01488,13.59192 L12.05496,10.60572 L12.05496,10.60572 C12.0564,8.99472 12.05784,7.38372 12.0594,5.77284 C12.13872,5.68032 12.14724,5.5752 12.11508,5.46264 C12.453,4.84692 12.97332,4.65072 13.67448,4.6548 C17.754,4.6782 21.83364,4.66788 25.91328,4.66548 C27.69684,4.6644 29.4804,4.6548 31.26396,4.64904 C31.6266,4.65228 31.98924,4.65444 32.35188,4.65924 C33.10752,4.66908 33.58656,5.08632 33.68928,5.83572 C33.7055213,5.95468 33.7084275,6.07577333 33.7085604,6.19693778 L33.708,6.37848 C33.70884,13.17228 33.70524,19.9662 33.7136419,26.76 C33.71448,27.4632 33.44148,28.52808 32.40948,28.52808 L12.9156,28.52808 L12.9156,28.52808 C12.33804,28.52808 12.04224,27.798 12.09084,27.31584 C12.12528,27.23184 12.1206,27.15204 12.06372,27.07824 L12.06372,25.78008 L12.06372,25.78008 C12.08964,25.74264 12.11568,25.70508 12.1416,25.66752 L12.094515,25.65714 L12.094515,25.65714 L12.05784,25.64904 L12.047475,24.143805 C12.04371,23.63565 12.03996,23.12754 12.03624,22.6194 L12.02352,22.61976 C12.0547443,22.6148923 12.0859685,22.6101421 12.1171928,22.6051608 C12.09696,22.57236 12.07572,22.53948 12.05436,22.5066 C12.0546,21.55656 12.05484,20.60652 12.05508,19.65672 C12.04104,18.65952 12.027,17.66268 12.01284,16.66572 Z M23.60172,19.6146 L23.3569672,19.61484 C23.3043192,19.614915 23.2465862,19.615005 23.1850331,19.6151063 L22.7799891,19.6158188 C22.7082137,19.61595 22.6351475,19.616085 22.562055,19.61622 L22.1333022,19.617 C22.0651633,19.61712 21.9995275,19.6172325 21.9376594,19.6173338 L21.51672,19.61784 L21.51672,19.61784 C21.18216,19.61784 21.0474,19.77108 21.0474,20.091 L21.0474,22.20828 L21.0474,22.20828 C21.0474,22.48152 21.12984,22.64496 21.45396,22.64496 L22.97337,22.6441099 C23.0377248,22.6440705 23.1001949,22.6440329 23.1598527,22.6439979 L23.6814,22.64376 L23.6814,22.64376 C23.99388,22.64376 24.08112,22.53624 24.08112,22.24728 L24.0808541,22.057891 C24.0802664,21.7680922 24.0788215,21.2640377 24.0777194,20.8260925 L24.0768868,20.47344 C24.0767713,20.4195427 24.0766699,20.3686293 24.0765859,20.3215172 L24.07632,20.091 L24.07632,20.091 C24.07632,19.69008 23.92872,19.6146 23.60172,19.6146 Z M29.54808,16.59276 L29.3033272,16.593 C29.2506792,16.593075 29.1929462,16.593165 29.1313931,16.5932663 L28.7263491,16.5939788 C28.5110231,16.5943725 28.2840789,16.5948 28.0796622,16.59516 L27.46308,16.596 L27.46308,16.596 C27.12828,16.596 26.99364,16.74912 26.99364,17.06916 L26.99364,19.18644 L26.99364,19.18644 C26.99364,19.45968 27.07608,19.62312 27.4002,19.62312 L27.6092431,19.6230535 C27.6545362,19.6230325 27.7044371,19.6230072 27.7580185,19.6229783 L29.2757603,19.6220617 C29.3288715,19.6220328 29.3782434,19.6220075 29.4229487,19.6219865 L29.62776,19.62192 L29.62776,19.62192 C29.94024,19.62192 30.02748,19.5144 30.02748,19.22544 L30.0269132,18.8995512 C30.0261051,18.5542582 30.0246112,18.0347617 30.0236316,17.6214266 L30.0229459,17.2996772 C30.022778,17.2054531 30.02268,17.1264343 30.02268,17.06916 C30.02268,16.66824 29.87508,16.59276 29.54808,16.59276 Z M20.62296,7.63536 L20.2062731,7.63586625 C20.14472,7.6359675 20.0793467,7.63608 20.0114178,7.6362 L19.583295,7.63698 C19.3640175,7.637385 19.1445037,7.63779 18.9588994,7.63809375 L18.53796,7.6386 L18.53796,7.6386 C18.2034,7.6386 18.06864,7.79184 18.06864,8.11176 L18.06864,10.22904 L18.06864,10.22904 C18.06864,10.50228 18.15108,10.66572 18.4752,10.66572 L19.593285,10.66512 C19.6614686,10.6650771 19.7296224,10.6650343 19.7968191,10.6649923 L20.70264,10.66452 L20.70264,10.66452 C21.01512,10.66452 21.10236,10.557 21.10236,10.26804 L21.1020941,10.078651 C21.1020101,10.0372511 21.1019087,9.99147875 21.1017932,9.94215118 L21.1009606,9.61006281 C21.0998585,9.1881119 21.0984136,8.67206169 21.0978259,8.3422772 L21.09756,8.11176 L21.09756,8.11176 C21.09756,7.71084 20.94996,7.63536 20.62296,7.63536 Z" id="Combined-Shape"></path>
                    <path d="M41.5866,28.5792 C40.869536,28.5792 40.86864,27.36348 40.869536,26.60508 C40.8792,19.81992 40.875,13.03488 40.87536,6.24984 C40.87536,5.06124 41.29164,4.63068 42.47436,4.61976 C43.48128,4.6104 44.48856,4.60776 45.49536,4.62048 C46.64796,4.63512 47.06208,5.06856 47.06256,6.22932 C47.0634,8.52408 47.06124,10.81884 47.06592,13.11348 C47.06628,13.28352 47.00568,13.47036 47.14032,13.63644 C47.33844,13.54284 47.41584,13.35264 47.52816,13.2 C49.45476,10.58112 51.3858,7.96572 53.29344,5.33316 C53.65056,4.84032 54.08856,4.6182 54.67272,4.61856 C55.86132,4.6194 57.05016,4.61508 58.23864,4.62 C58.81272,4.6224 59.32728,4.7598 59.58972,5.34336 C59.84448,5.91 59.6604,6.38496 59.30172,6.8532 C57.1338,9.68316 54.97896,12.5232 52.81812,15.35856 C52.18704,16.18668 52.182,16.56864 52.81788,17.3826 C55.155,20.37396 57.49296,23.36472 59.83248,26.35404 C60.54336,27.26232 60.73476,28.53492 59.60988,28.53492 C58.485,28.53492 54.14664,28.47468 53.94228,28.47468 C53.73792,28.47468 53.5386,28.20156 53.355,27.9498 C51.4116,25.28256 49.4448,22.63224 47.47896,19.98144 C47.38008,19.84812 47.33088,19.6464 47.0628,19.61268 C47.0628,19.80648 47.0628,19.9842 47.0628,20.1618 C47.0628,22.37364 47.05344,24.58536 47.06844,26.7972 C47.07312,27.48084 47.05356,28.53912 46.38672,28.53912 C45.72,28.539 42.30384,28.5792 41.5866,28.5792 Z" id="Path"></path>
                    <path d="M65.76216,28.42428 C65.57304,28.36848 65.43012,28.2516 65.2896,28.03452 C65.10816,27.75444 65.05284,27.41688 65.05332,27.08832 C65.0604,21.82092 65.0574,16.55352 65.0574,11.28624 C65.0574,10.01508 64.6044,9.55632 63.34236,9.5484 C62.38308,9.5424 61.87116,9.04896 61.85592,8.09544 C61.845,7.41864 61.8426,6.74124 61.85712,6.06456 C61.87644,5.16492 62.39448,4.66032 63.28536,4.65912 C65.2668,4.65636 67.24824,4.65564 69.22968,4.65936 C70.11216,4.66104 70.63992,5.184 70.6404,6.08004 C70.64436,13.11408 70.64016,20.14824 70.6468806,27.1824 C70.64736,27.68868 70.35912,28.29948 69.8274,28.43304 C69.65988,28.47516 69.48504,28.47504 69.31224,28.4746513 C68.24952,28.47216 67.1868,28.46988 66.12408,28.46748 C65.98464,28.46724 65.86644,28.455 65.76216,28.42428 Z" id="Path"></path>
                    <path d="M30.5,0.5 C31.27784,1.08584 31.26252,1.56048 31.25064,2.39028 C31.23996,3.14292 31.25844,3.89604 31.26396,4.64892 C29.48028,4.65468 27.69672,4.66428 25.91316,4.66536 C21.83352,4.66788 17.75388,4.67808 13.67436,4.65468 C12.97332,4.6506 12.45288,4.8468 12.11364,5.46636 C12.14904,4.8222 12.54732,4.50804 13.1244,4.36092 C15.819,3.6738 18.51348,2.98704 21.20868,2.30208 C23.74404,1.6578 28.22148,0.5088 28.81356,0.36432 C29.40564,0.21996 30.21128,0.28256 30.5,0.5 Z" id="Path"></path>
                    <path d="M0.02952,10.62156 C0.9342,10.62624 1.839,10.64064 2.74344,10.6296 C3.0192,10.62624 3.11664,10.701 3.10956,10.98756 C3.09132,11.72868 3.08616,12.47124 3.11124,13.21188 C3.12276,13.55292 3.0288,13.65816 2.67768,13.65792 C1.7952,13.65744 0.91068,13.5912 0.02952,13.6938 C0.02952,12.66972 0.02952,11.64564 0.02952,10.62156 Z" id="Path"></path>
                    <path d="M91.35996,24.63744 C91.359,24.6336 91.35792,24.62976 91.35684,24.62592 C91.17384,23.99112 90.171,24.09744 89.69064,24.09828 C87.48192,24.10176 85.2732,24.09672 83.06436,24.10224 C82.671,24.10332 82.335,24.01848 82.18692,23.61384 C82.02972,23.18436 82.23348,22.902 82.58496,22.66236 C84.09492,21.63276 85.6278,20.6352 87.07836,19.521 C88.40424,18.50244 89.64516,17.39964 90.48084,15.91632 C90.9948,15.00384 91.25748,14.01936 91.24068,12.97512 C91.23324,12.51768 91.22592,12.06024 91.21848,11.6028 C91.188,9.71688 90.40056,7.79004 89.031,6.4722 C88.53372,5.99376 87.9612,5.59836 87.34632,5.28636 C85.70076,4.4514 83.93712,4.3038 82.13628,4.49532 C79.92888,4.73016 78.17592,5.72676 76.93176,7.6098 C75.96156,9.07788 75.66972,10.73976 75.39684,12.42012 C75.3396,12.77268 75.5664,12.70116 75.75036,12.70152 C76.97256,12.70428 78.19476,12.7044 79.41696,12.70224 C80.09988,12.70104 80.28576,12.54528 80.41812,11.87928 C80.73024,10.30788 81.4422,9.60024 82.93488,9.3786 C84.27132,9.18012 85.45848,9.6804 85.98228,10.72764 C86.5728,11.90844 86.63436,13.22568 85.60848,14.30496 C85.0716,14.86968 84.50724,15.40056 83.87964,15.85764 C81.23844,17.78064 78.59328,19.69824 75.93924,21.6036 C75.55104,21.88224 75.38136,22.20132 75.3894,22.68144 C75.4122,24.01884 75.39336,25.35696 75.399,26.69472 C75.40056,27.06348 75.36072,27.43464 75.405,27.80232 C75.435,28.05096 75.35436,28.66032 75.86736,28.66032 C76.38036,28.66032 80.8872,28.65852 83.39712,28.65852 C85.9338,28.65852 90.55764,28.65852 91.00728,28.65852 C91.31976,28.65852 91.40316,28.43352 91.40376,28.16292 C91.39416,27.0522 91.38348,25.94148 91.377,24.83064 C91.3764,24.76584 91.37592,24.70008 91.35996,24.63744 Z" id="Path"></path>
                    <path d="M9.08736,13.6086 C10.0632,13.60308 11.03904,13.59756 12.01488,13.59192 C12.04848,13.61832 12.08208,13.64448 12.11568,13.67088 C12.114,14.64048 12.11232,15.60996 12.11064,16.57956 C12.07812,16.60812 12.04548,16.63704 12.01296,16.66572 C11.04384,16.65972 10.0746,16.65384 9.10548,16.64808 C9.10104,16.62684 9.08808,16.61412 9.06684,16.60968 C9.06516,15.61776 9.0636,14.62608 9.0618,13.6344 C9.0618,13.6344 9.08736,13.6086 9.08736,13.6086 Z" id="Path"></path>
                    <path d="M12.0671536,5.77284 C12.0232036,5.6598 12.0592036,5.55828 12.1367536,5.46276 C12.1769536,5.5752 12.1661536,5.68032 12.0671536,5.77284 Z" id="Path"></path>
                    <path d="M12.1090052,27.31596 C12.0431552,27.2418 12.0337052,27.16236 12.0751052,27.07836 C12.1462052,27.15216 12.1520552,27.23196 12.1090052,27.31596 Z" id="Path"></path>
                    <path d="M12.05091,25.647 C12.08991,25.6547027 12.12906,25.6624054 12.16821,25.6701081 C12.13596,25.7125405 12.10341,25.7548378 12.07101,25.797 C12.06441,25.7468649 12.05766,25.697 12.05091,25.647 Z" id="Path"></path>
                    <path d="M9.08736,13.6086 C9.08736,13.6086 9.0618,13.6344 9.0618,13.63428 C8.18904,13.63908 7.31604,13.6374 6.44352,13.65264 C6.18048,13.6572 6.06,13.5942 6.0672,13.29756 C6.08604,12.52392 6.08136,11.7492 6.06924,10.9752 C6.06528,10.72248 6.14196,10.62672 6.40488,10.6314 C7.17888,10.64496 7.95336,10.64532 8.72736,10.63104 C8.99892,10.626 9.1122,10.7034 9.10644,10.99032 C9.08904,11.86284 9.09216,12.73572 9.08736,13.6086 Z" id="Path"></path>
                    <path d="M9.06684,16.60956 C9.08808,16.614 9.10104,16.62684 9.10548,16.64796 C9.1044,17.50572 9.0942,18.36372 9.10728,19.22136 C9.11184,19.52364 9.0504,19.66212 8.70084,19.64988 C7.82772,19.61928 6.95316,19.63224 6.0792,19.62768 L6.087,19.63548 C6.08244,18.74496 6.08904,17.85432 6.06732,16.96416 C6.06012,16.66716 6.18036,16.60536 6.44376,16.60836 C7.31808,16.61856 8.19252,16.61064 9.06684,16.60956 Z" id="Path"></path>
                    <path d="M7.6098,4.6578 C7.9896,4.6578 8.36976,4.66848 8.74884,4.65396 C8.99124,4.6446 9.10932,4.70148 9.10416,4.97784 C9.08928,5.77008 9.09276,6.5628 9.1026,7.35528 C9.10548,7.5894 9.02676,7.67316 8.78904,7.66992 C7.98024,7.659 7.17096,7.65672 6.36216,7.671 C6.10488,7.67556 6.06792,7.56288 6.07044,7.34604 C6.07956,6.55356 6.08604,5.76084 6.06768,4.96872 C6.06108,4.68336 6.18684,4.64628 6.42096,4.6542 C6.81708,4.66752 7.21356,4.6578 7.6098,4.6578 Z" id="Path"></path>
                    <path d="M12.03624,22.6194 C12.04368,23.63568 12.05124,24.65196 12.0588,25.66848 C11.2038,25.65912 10.34856,25.6338 9.49392,25.64808 C9.14232,25.65408 9.04476,25.53432 9.0552,25.1952 C9.07788,24.45528 9.07248,23.71404 9.05712,22.97364 C9.05148,22.69704 9.13644,22.60056 9.41976,22.6062 C10.29168,22.62384 11.16408,22.61688 12.03624,22.6194 Z" id="Path"></path>
                    <path d="M6.0792,19.6278 C6.08328,20.5176 6.0792,21.40752 6.09636,22.29708 C6.10128,22.5534 6.02724,22.64016 5.76372,22.63488 C4.97292,22.61928 4.18152,22.62216 3.3906,22.63368 C3.15456,22.63704 3.07752,22.56036 3.081,22.3242 C3.09276,21.53328 3.0954,20.74188 3.0798,19.95108 C3.07464,19.68768 3.16128,19.61364 3.4176,19.61844 C4.30716,19.63572 5.19708,19.63152 6.08688,19.63572 L6.0792,19.6278 Z" id="Path"></path>
                    <path d="M12.065205,22.50732 C12.091755,22.54842 12.118455,22.58952 12.145155,22.63062 C12.105705,22.63677 12.066255,22.64277 12.026805,22.64892 C12.039555,22.60167 12.052305,22.55442 12.065205,22.50732 Z" id="Path"></path>
                </g>
            </g>
        </g>
    </g>
</svg>