<?xml version="1.0" encoding="UTF-8"?>
<svg width="157px" height="25px" viewBox="0 0 157 25" version="1.1" xmlns="http://www.w3.org/2000/svg" xmlns:xlink="http://www.w3.org/1999/xlink">
    <title>Google_Cloud_Logo</title>
    <g id="Homepage" stroke="none" stroke-width="1" fill="none" fill-rule="evenodd">
        <g id="1.-10P-WEB-REVAMP_HOMEPAGE_UPDATE-1" transform="translate(-418.000000, -6409.000000)" fill="#434343" fill-rule="nonzero">
            <g id="Group-7" transform="translate(0.000000, 6218.000000)">
                <g id="Google_Cloud_Logo" transform="translate(418.000000, 191.000000)">
                    <g id="Group">
                        <path d="M18.3083792,6.38829372 L19.1873752,6.38829372 L21.6928598,3.88280908 L21.8157116,2.81867023 C17.152534,-1.29773031 10.035781,-0.853041389 5.91938051,3.81013618 C4.77564753,5.10440587 3.94683044,6.64610948 3.49348999,8.3141255 C3.77206943,8.19992523 4.08179439,8.18089186 4.37248598,8.26221629 L9.38345527,7.43512951 C9.38345527,7.43512951 9.63781041,7.01293458 9.77104406,7.03888919 C11.9996796,4.59050467 15.7509853,4.30500401 18.3256822,6.38829372 L18.3083792,6.38829372 Z" id="Path"></path>
                        <path d="M25.2624833,8.3141255 C24.6862911,6.19276903 23.5044913,4.28597063 21.8606996,2.82905207 L18.3447156,6.34503605 C19.8293191,7.55798131 20.6754393,9.38691589 20.6391028,11.3040961 L20.6391028,11.928737 C22.3676796,11.928737 23.7692283,13.3302857 23.7692283,15.0588625 C23.7692283,16.7874393 22.3676796,18.188988 20.6391028,18.188988 L14.3788518,18.188988 L13.7542109,18.8222804 L13.7542109,22.5770467 L14.3788518,23.2016876 L20.6391028,23.2016876 C25.1344406,23.2362937 28.8078825,19.6199519 28.8424887,15.1246142 C28.8632523,12.3941896 27.5188037,9.84025634 25.2624833,8.3141255 Z" id="Path"></path>
                        <path d="M8.10994927,23.1618905 L14.3702003,23.1618905 L14.3702003,18.1509212 L8.10994927,18.1509212 C7.66353004,18.1509212 7.22403204,18.054024 6.81740988,17.8688812 L5.93841389,18.1422697 L3.41562617,20.6477543 L3.19587717,21.5267503 C4.60953805,22.5960801 6.33638451,23.1705421 8.10994927,23.1618905 Z" id="Path"></path>
                        <path d="M8.10994927,6.90731801 C3.61288117,6.93334045 -0.00865153538,10.5998611 0.0171644308,15.0969292 C0.0328758344,17.6076048 1.20429372,19.9712043 3.19587717,21.5007957 L6.82606142,17.8706115 C5.25148198,17.1594553 4.55070761,15.3045661 5.26186382,13.7299866 C5.97302003,12.1554072 7.82790921,11.4546328 9.40248865,12.1657891 C10.0963418,12.4789746 10.6517704,13.0361335 10.9666862,13.7299866 L14.5968705,10.0998024 C13.0534366,8.07880374 10.6517704,6.89700401 8.10994927,6.90731801 Z" id="Path"></path>
                    </g>
                    <g id="Group" transform="translate(37.270814, 3.374099)">
                        <path d="M8.23799199,16.2891108 C6.05953538,16.3167957 3.96586382,15.4568331 2.43627236,13.906478 C0.856502003,12.4218745 -0.0259546061,10.3420454 0.00173030708,8.17397063 C-0.0242242991,6.00589586 0.85823231,3.92779706 2.43627236,2.44146328 C3.95894259,0.875535381 6.05434446,-0.00173030708 8.23799199,0.0155727637 C10.3178211,-0.0121121495 12.323247,0.795941255 13.8026595,2.25805073 L12.2384619,3.84993324 C11.1674019,2.81347931 9.72778638,2.24593858 8.23799199,2.26670227 C6.6755247,2.24766889 5.17534846,2.8861522 4.10601869,4.02469426 C2.99516155,5.12689987 2.38263284,6.63572764 2.40858745,8.19992523 C2.39474499,9.74681976 3.0072737,11.2331535 4.10601869,12.323247 C6.36926035,14.5795674 10.018478,14.6228251 12.3353591,12.4201442 C13.0257517,11.6657303 13.4479466,10.7036796 13.5396529,9.68625901 L8.2639466,9.68625901 L8.2639466,7.43685981 L15.7284913,7.43685981 C15.8011642,7.89020027 15.8305794,8.34873164 15.816737,8.80899332 C15.9101736,10.7279039 15.2145901,12.6018264 13.8909052,13.9964539 C12.4184139,15.5277757 10.3628091,16.3617837 8.23799199,16.2891108 Z M25.592972,14.7941255 C23.5114126,16.7891696 20.2272897,16.7891696 18.1457303,14.7941255 C17.1369613,13.816502 16.5867236,12.4616716 16.6247904,11.0583925 C16.5867236,9.65511348 17.1386916,8.30028304 18.1457303,7.32265955 C20.22902,5.33280641 23.5096822,5.33280641 25.592972,7.32265955 C26.6000107,8.30028304 27.1519786,9.65511348 27.1139119,11.0583925 C27.1502483,12.4634019 26.5948198,13.8182323 25.5843204,14.7941255 L25.592972,14.7941255 Z M19.789522,13.3268251 C20.8640427,14.475749 22.6670227,14.5345794 23.8159466,13.4583284 C23.8609346,13.4150708 23.9059226,13.3718131 23.9474499,13.3268251 C24.534024,12.7194873 24.8506702,11.9027824 24.8264459,11.0583925 C24.8524005,10.2122724 24.5357543,9.3903765 23.9474499,8.78130841 C22.8417837,7.6289239 21.0111188,7.58912684 19.857004,8.69479306 C19.8275888,8.72247797 19.7981736,8.75189319 19.7704887,8.78130841 C19.1821842,9.3903765 18.8655381,10.2122724 18.8914927,11.0583925 C18.8689987,11.9027824 19.1891055,12.7212176 19.7791402,13.3268251 L19.789522,13.3268251 Z M37.0389533,14.7941255 C34.9573939,16.7891696 31.673271,16.7891696 29.5917116,14.7941255 C28.5829426,13.816502 28.0327049,12.4616716 28.0707717,11.0583925 C28.0327049,9.65511348 28.5846729,8.30028304 29.5917116,7.32265955 C31.673271,5.32761549 34.9573939,5.32761549 37.0389533,7.32265955 C38.045992,8.30028304 38.5979599,9.65511348 38.5598932,11.0583925 C38.5996903,12.4616716 38.0477223,13.816502 37.0389533,14.7941255 Z M31.2372336,13.3268251 C32.3117543,14.475749 34.1147343,14.5345794 35.2636582,13.4583284 C35.3086462,13.4150708 35.3536342,13.3718131 35.3951615,13.3268251 C35.9817356,12.7194873 36.2983818,11.9027824 36.2741575,11.0583925 C36.3001121,10.2122724 35.983466,9.3903765 35.3951615,8.78130841 C34.2894953,7.6289239 32.4588304,7.58912684 31.3064459,8.69479306 C31.2770307,8.72247797 31.2476155,8.75189319 31.2199306,8.78130841 C30.6316262,9.3903765 30.31498,10.2122724 30.3409346,11.0583925 C30.3184406,11.9027824 30.6385474,12.7212176 31.2285821,13.3268251 L31.2372336,13.3268251 Z M44.5640587,20.9834339 C43.5103017,21.0163097 42.4773084,20.6875514 41.6363792,20.0507984 C40.8906168,19.4901789 40.3023124,18.7444166 39.9302964,17.8879146 L41.933992,17.0521762 C42.1520107,17.5643471 42.4928812,18.014227 42.9271883,18.3620187 C43.3909105,18.735765 43.974024,18.93302 44.57098,18.915717 C45.3357757,18.9624352 46.0832684,18.673474 46.6196636,18.1249666 C47.1491375,17.4864833 47.4104139,16.6663178 47.3498531,15.839231 L47.3498531,15.0830868 L47.270259,15.0830868 C46.5902483,15.8894099 45.5710975,16.3289079 44.5190708,16.2700774 C43.185004,16.2735381 41.9097677,15.7198398 41.0030868,14.740486 C40.0202724,13.7697837 39.4769559,12.4391776 39.4994499,11.0566622 C39.4752256,9.66722563 40.0185421,8.32796796 41.0030868,7.34688385 C41.9080374,6.36406943 43.1832737,5.80518024 44.5190708,5.80862307 C45.0779599,5.80691055 45.6316582,5.93149266 46.1369079,6.16854473 C46.5746756,6.3588785 46.9639947,6.64437917 47.2806409,7.00428304 L47.360235,7.00428304 L47.360235,6.16854473 L49.5404219,6.16854473 L49.5404219,15.5312363 C49.6563525,17.0279519 49.1511028,18.5073645 48.1423338,19.6199519 C47.1820134,20.538745 45.8929346,21.0301522 44.5640587,20.9834339 Z M44.723247,14.2317757 C45.4828518,14.2490788 46.2113111,13.9255113 46.7096395,13.3527797 C47.2512256,12.7315995 47.5384566,11.9270067 47.5090414,11.1016502 C47.5419172,10.2624513 47.2564166,9.44401602 46.7096395,8.80726302 C46.2113111,8.23280107 45.4828518,7.91096395 44.723247,7.92826702 C43.9428785,7.91269426 43.1936555,8.23280107 42.6659119,8.80726302 C42.0845287,9.42152203 41.7678825,10.2399573 41.7869159,11.0843471 C41.7696128,11.9218158 42.0845287,12.7315995 42.6659119,13.3354766 C43.1901949,13.9151295 43.9394179,14.2421575 44.723247,14.2317757 Z M53.4180401,0.605607477 L53.4180401,15.9724646 L51.1236529,15.9724646 L51.1236529,0.605607477 L53.4180401,0.605607477 Z M59.7128972,16.2891108 C58.3234606,16.3254473 56.9824726,15.7804005 56.0117704,14.785474 C55.0272256,13.7991989 54.4891001,12.4512897 54.5254366,11.0583925 C54.4735274,9.66203471 54.9908892,8.30374366 55.9581308,7.29497463 C56.871733,6.3329239 58.1486996,5.79998932 59.4741148,5.82594393 C60.077992,5.8190227 60.6749479,5.93668358 61.2321068,6.16854473 C61.7338959,6.37099065 62.1906969,6.67033378 62.5765554,7.04754072 C62.9087744,7.36764753 63.2029266,7.72409079 63.4555514,8.11167957 C63.6597276,8.43870761 63.8327583,8.78303872 63.9746435,9.13948198 L64.2116956,9.73816822 L57.1797276,12.6312417 C57.615765,13.6313591 58.6210734,14.2611909 59.7111669,14.2144726 C60.7649239,14.2179332 61.7425474,13.6659653 62.2875941,12.7644753 L64.0455861,13.951466 C63.5974366,14.5934099 63.0229746,15.1384566 62.3568064,15.552 C61.5677864,16.0503284 60.647263,16.3064139 59.7128972,16.2891108 Z M56.7765661,10.8992043 L61.4535861,8.95606943 C61.3099706,8.61346862 61.0521549,8.33142857 60.7233965,8.15666756 C60.3565714,7.94903071 59.9412977,7.84348198 59.5191028,7.8486729 C58.804486,7.86770628 58.1244753,8.1670494 57.6296075,8.68441121 C57.0291909,9.25887316 56.7160053,10.0703872 56.7765661,10.8992043 Z" id="Shape"></path>
                        <g transform="translate(68.848919, 1.453458)">
                            <path d="M7.38322029,14.8356529 C3.38275033,14.9048652 0.0847850467,11.7176395 0.0155727637,7.71716956 C0.0138424566,7.62027236 0.0138424566,7.52164486 0.0173030708,7.42474766 C-0.0761335113,3.4242777 3.09205874,0.107279039 7.0907984,0.0138424566 C7.18769559,0.0121121495 7.2863231,0.0121121495 7.38322029,0.0121121495 C9.38345527,-0.0501789052 11.3040961,0.80459279 12.5966355,2.33245394 L11.3300507,3.56270227 C10.3801121,2.36706008 8.91627236,1.69743124 7.39187183,1.7597223 C5.92976235,1.72684646 4.51610147,2.29265688 3.47964753,3.32391989 C2.40166622,4.40882243 1.82547397,5.8934259 1.88776502,7.42128705 C1.82374366,8.9491482 2.40166622,10.4337517 3.47964753,11.5186542 C4.51610147,12.5516475 5.92976235,13.1157276 7.39187183,13.0828518 C9.09449399,13.1018852 10.7123311,12.3440107 11.7868518,11.0255167 L13.0534366,12.2921015 C12.390729,13.0845821 11.5584513,13.7178745 10.6188945,14.1469907 C9.60493458,14.6176342 8.49926836,14.8529559 7.38322029,14.8356529 Z" id="Path"></path>
                            <polygon id="Path" points="16.4552203 14.5190067 14.6349372 14.5190067 14.6349372 0.320106809 16.4552203 0.320106809"></polygon>
                            <path d="M19.4278879,5.97302003 C21.4125501,4.00220027 24.6170788,4.00220027 26.601741,5.97302003 C27.543028,6.9679466 28.050008,8.29682243 28.0084806,9.66549533 C28.050008,11.0341682 27.543028,12.3630441 26.601741,13.3579706 C24.6170788,15.3287904 21.4125501,15.3287904 19.4278879,13.3579706 C18.4866008,12.3630441 17.9796208,11.0341682 18.0211482,9.66549533 C17.9796208,8.29682243 18.4848705,6.9679466 19.4278879,5.97302003 Z M20.780988,12.215968 C21.9454846,13.4462163 23.8868892,13.4998558 25.1188678,12.3353591 C25.1603952,12.2972924 25.2001923,12.255765 25.238259,12.215968 C25.8802029,11.5273057 26.2193431,10.6085127 26.1795461,9.66722563 C26.2210734,8.72593858 25.8819332,7.80714553 25.238259,7.11848331 C24.0737623,5.88823498 22.1323578,5.83459546 20.9003792,6.99909212 C20.8588518,7.03715888 20.8190547,7.07868625 20.780988,7.11848331 C20.1390441,7.80714553 19.7999039,8.72593858 19.8397009,9.66722563 C19.8033645,10.6067824 20.1459653,11.5221148 20.7896395,12.2073164 L20.780988,12.215968 Z" id="Shape"></path>
                            <path d="M38.09098,14.5190067 L36.332988,14.5190067 L36.332988,13.1745581 L36.2810788,13.1745581 C35.9678932,13.6849987 35.5249346,14.103733 34.9971909,14.3875033 C34.4504139,14.7041495 33.8275033,14.8719893 33.1942109,14.870259 C32.1525661,14.9412016 31.1368758,14.5328491 30.4343712,13.7628625 C29.7682029,12.9202029 29.4342537,11.8629853 29.4930841,10.7919252 L29.4930841,4.81371429 L31.3133672,4.81371429 L31.3133672,10.457976 C31.3133672,12.2696075 32.112769,13.1745581 33.7133031,13.1745581 C34.4348411,13.1970521 35.121773,12.870024 35.5595407,12.2955621 C36.0319146,11.6986061 36.2828091,10.9563044 36.2724272,10.1949693 L36.2724272,4.81371429 L38.0927103,4.81371429 L38.0927103,14.5190067 L38.09098,14.5190067 Z" id="Path"></path>
                            <path d="M44.2716368,14.8356529 C43.0223551,14.8391135 41.8336342,14.2975274 41.0186595,13.3493191 C40.1067877,12.3422804 39.6188411,11.0237864 39.6551776,9.66549533 C39.6188411,8.30720427 40.1067877,6.98871028 41.0186595,5.98167156 C41.8336342,5.03519359 43.0223551,4.49187717 44.2716368,4.49533778 C44.9637597,4.48495594 45.647231,4.64760481 46.2580294,4.96944192 C46.7961549,5.23936983 47.2512256,5.6494526 47.5765234,6.15643258 L47.6561175,6.15643258 L47.5765234,4.81198398 L47.5765234,0.320106809 L49.3968064,0.320106809 L49.3968064,14.5190067 L47.6388144,14.5190067 L47.6388144,13.1745581 L47.5592203,13.1745581 C47.2339226,13.6815381 46.7788518,14.0916208 46.2407263,14.3615487 C45.6351188,14.6799252 44.9585688,14.8443044 44.2716368,14.8356529 Z M44.57098,13.1745581 C45.4032577,13.1866702 46.2009292,12.8406088 46.7598184,12.2246195 C47.3775381,11.5203845 47.6941842,10.6015915 47.6388144,9.66549533 C47.6941842,8.73112951 47.3775381,7.81060614 46.7598184,7.10637116 C45.6558825,5.89169559 43.776769,5.80344993 42.5620935,6.90911615 C42.4928812,6.97140721 42.4271295,7.03888919 42.3648385,7.10637116 C41.7453885,7.80541522 41.4287423,8.72247797 41.4858425,9.65511348 C41.4287423,10.587749 41.7453885,11.5048117 42.3648385,12.2038558 C42.9254579,12.8336876 43.7300507,13.1866702 44.57098,13.1745581 Z" id="Shape"></path>
                        </g>
                    </g>
                </g>
            </g>
        </g>
    </g>
</svg>