<svg width="102" height="60" xmlns="http://www.w3.org/2000/svg">
    <g fill="#434343" fill-rule="nonzero">
        <path d="M76.733 30.45c.867.47 2.134.941 3.8 1.345 1.667.403 3.334.605 5.067.605 1.667 0 3.267-.202 4.667-.605a10.548 10.548 0 0 0 3.666-1.883c1-.807 1.8-1.815 2.4-2.959.6-1.143.867-2.42.867-3.832a7.597 7.597 0 0 0-1.533-4.64c-1-1.345-2.734-2.42-5.134-3.228l-4.666-1.479c-1.734-.605-3-1.21-3.6-1.815-.667-.606-1-1.412-1-2.354 0-1.345.533-2.353 1.533-2.958 1.067-.606 2.467-.942 4.4-.942 2.333 0 4.467.404 6.333 1.278.6.269 1 .403 1.267.403.467 0 .733-.336.733-1.076V4.764c0-.47-.066-.807-.266-1.076s-.534-.538-1-.807c-.334-.202-.8-.403-1.4-.605-.6-.202-1.2-.336-1.867-.538-.667-.135-1.4-.269-2.133-.404-.734-.067-1.467-.134-2.2-.134-1.467 0-2.867.202-4.134.605-1.333.404-2.466.942-3.4 1.748A7.69 7.69 0 0 0 76.8 6.31c-.6 1.076-.867 2.287-.867 3.699 0 1.748.534 3.362 1.667 4.841 1.067 1.48 2.867 2.622 5.267 3.362l4.8 1.48c1.6.537 2.733 1.142 3.333 1.748.6.605.867 1.412.867 2.353 0 1.345-.534 2.42-1.734 3.16-1.133.74-2.733 1.076-4.8 1.076-1.333 0-2.6-.134-3.933-.403a17.447 17.447 0 0 1-3.6-1.143c-.333-.135-.6-.27-.867-.336-.2-.068-.4-.135-.6-.135-.466 0-.733.336-.733 1.076v1.681c0 .336.067.605.2.941.067.135.4.404.933.74M19.906 13.197a22.67 22.67 0 0 0-3.604-.27c-3.533 0-6.305.88-8.384 2.571C5.84 17.258 4.8 19.492 4.8 22.402c0 2.707.831 4.805 2.494 6.43 1.663 1.624 3.95 2.368 6.86 2.368 4.02 0 7.415-1.557 10.048-4.602.346.744.692 1.421 1.039 1.963a8.84 8.84 0 0 0 1.247 1.556c.347.339.624.474 1.04.474.277 0 .554-.068.9-.27l2.148-1.422c.416-.338.624-.61.624-1.015 0-.203-.07-.474-.208-.745a22.192 22.192 0 0 1-1.109-2.369c-.277-.744-.415-1.76-.415-2.977V10.896c0-3.654-.97-6.43-2.841-8.189C24.756.88 21.777 0 17.688 0c-1.87 0-3.672.203-5.335.61-1.663.405-3.118.947-4.296 1.556-.485.203-.832.473-.97.677-.139.203-.208.609-.208 1.15v1.624c0 .677.208 1.083.693 1.083.138 0 .277 0 .554-.067.208-.068.624-.203 1.178-.407a23.06 23.06 0 0 1 3.672-1.15 17.447 17.447 0 0 1 3.673-.406c2.633 0 4.504.541 5.543 1.556 1.109 1.016 1.594 2.843 1.594 5.347v2.437a20.926 20.926 0 0 0-3.88-.813m3.88 5.888c0 1.151-.139 2.099-.347 2.91-.208.813-.623 1.49-1.178 2.166-.9 1.016-2.009 1.76-3.256 2.166-1.248.406-2.425.61-3.534.61-1.525 0-2.772-.407-3.603-1.219-.832-.812-1.248-1.963-1.248-3.52 0-1.691.555-2.977 1.663-3.857 1.11-.88 2.841-1.354 5.059-1.354 1.04 0 2.078.068 3.187.203a36.92 36.92 0 0 1 3.118.542v1.353h.139zM40.574 29.556c.204.685.408 1.096.68 1.302.273.205.682.342 1.295.342h2.86c.614 0 1.09-.137 1.363-.342.272-.206.477-.685.613-1.37l5.177-21.781 5.244 21.78c.137.686.34 1.097.681 1.37.273.206.75.343 1.363.343h2.86c.614 0 1.022-.137 1.295-.342.272-.206.476-.685.68-1.302L72.86 3.392c.137-.343.205-.617.273-.822.068-.206.068-.343.068-.548 0-.548-.272-.822-.817-.822h-3.134c-.613 0-1.09.137-1.294.342-.272.206-.477.685-.68 1.302l-5.859 22.671-5.312-22.671c-.137-.685-.341-1.096-.614-1.302-.272-.205-.749-.342-1.362-.342h-2.724c-.613 0-1.09.137-1.363.342-.272.206-.476.685-.613 1.302L44.184 25.24 38.462 2.844c-.204-.685-.409-1.096-.681-1.302-.272-.205-.681-.342-1.294-.342h-3.27c-.545 0-.817.274-.817.822 0 .205.068.685.272 1.37l7.902 26.164zM89.943 45.165C77.536 50.311 63.97 52.85 51.698 52.85c-18.202 0-35.858-4.878-50.106-13.03-1.228-.736-2.182.534-1.16 1.47C13.659 52.984 31.11 60 50.54 60c13.84 0 29.928-4.277 41.04-12.295 1.841-1.27.273-3.275-1.636-2.54"/>
        <path d="M83.446 40.389c-.966.7-.828 1.68.277 1.54 3.59-.42 11.669-1.4 13.119.42 1.45 1.891-1.588 9.524-2.97 12.955-.414 1.05.484 1.47 1.382.7 6.007-5.111 7.595-15.825 6.352-17.366-1.243-1.54-11.738-2.87-18.16 1.75"/>
    </g>
</svg>
