<svg width="180" height="39" xmlns="http://www.w3.org/2000/svg">
    <g fill="#434343" fill-rule="nonzero">
        <path d="M38.281 20.397V38.33c-1.154.28-16.03.343-18.058.063-.28-2.932-.093-5.926-.124-8.92-.032-2.994 0-5.988 0-9.107 6.081.031 12.038.031 18.182.031zM20.223 18.214V.312c.032-.031.032-.062.063-.125.031-.031.093-.093.125-.093L36.909 0c.405 0 .81.031 1.31.062v18.12c-5.957.032-11.914.032-17.996.032zM.076.094H18.07v18.182H.076V.094zM.17 20.397h17.84c.217 1.466.061 2.963.093 4.429.03 1.497 0 3.025 0 4.522v9.107H.263C-.017 37.3-.111 22.86.169 20.397zM63.606 30.751h-2.495c-2.495-5.832-4.897-11.757-7.423-18.026v17.933h-3.462c-.343-.998-.405-20.896-.062-22.799h5.52c2.246 5.614 4.46 11.228 6.706 16.873 0 0 .03.031.093 0a.236.236 0 0 0 .125-.062c.094-.125.187-.25.25-.406 2.214-5.426 4.428-10.822 6.674-16.373 1.684-.188 3.43-.094 5.24-.063V30.72c-.344.031-.656.094-.936.094h-2.838c-.375-1.59-.156-3.088-.187-4.585-.032-1.466 0-2.9 0-4.366v-9.107c-2.464 6.113-4.803 12.007-7.205 17.995zM172.452 17.403h-4.615c-.343 0-.718.062-1.217.094v13.192h-3.773c-.125-4.366.062-8.701-.125-13.161-.967-.094-1.778-.156-2.651-.25v-2.87c.904-.061 1.715-.124 2.713-.186 0-.905.063-1.716 0-2.526-.187-2.433 1.528-5.271 5.146-5.52.936-.063 1.84 0 2.87 0v3.087c-.406-.031-.749-.031-1.092-.094-1.871-.312-3.025.562-3.119 2.464-.031.78 0 1.56 0 2.526.998.032 1.903.063 2.807.094h2.994c.062-1.279.094-2.495.156-3.774 1.216-.405 2.34-.78 3.618-1.185v4.959h3.742v3.119c-1.122.062-2.276.125-3.555.187-.062.343-.125.624-.125.936v7.017c0 .343.031.748.125 1.06.343 1.123.904 1.528 2.058 1.466A12.231 12.231 0 0 0 180 27.82v2.807c-1.809.78-3.555.78-5.24.062-1.684-.717-2.245-2.245-2.308-3.93-.062-2.245-.03-4.46-.03-6.705.03-.78.03-1.59.03-2.651zM159.385 22.362c.03 2.245-.437 4.335-1.996 6.05-2.34 2.558-5.24 3.15-8.515 2.558-3.462-.624-5.52-2.776-6.175-6.144-.53-2.714-.312-5.427 1.466-7.704 1.809-2.308 4.21-3.43 7.204-3.15.811.063 1.684.031 2.464.25 3.462.935 5.396 3.93 5.552 7.235.03.281 0 .593 0 .905zm-3.992.125c0-1.123-.219-2.277-.655-3.182-1.373-2.9-5.614-3.243-7.392-.499-1.092 1.716-1.216 3.556-.81 5.52.436 2.028 1.652 3.15 3.617 3.556 3.555.811 5.24-2.339 5.24-5.395zM127.666 22.58c0 1.653-.156 3.213-1.091 4.678-1.934 3.057-4.866 4.117-8.296 3.837-3.306-.281-5.801-1.934-6.893-5.178-1.216-3.586-.624-8.296 2.994-10.697 1.528-1.03 3.213-1.404 4.99-1.404.967 0 1.965.156 2.9.375 1.84.405 3.37 1.777 4.336 3.368.873 1.466 1.03 3.181 1.03 4.834.03.062.03.125.03.187zm-3.742-.093c.031-.655 0-1.31-.187-1.965-.375-1.341-1.185-2.651-2.495-3.213-1.591-.717-3.525-.405-4.772.811-1.934 1.872-2.246 5.583-.624 8.016.936 1.372 2.246 1.964 3.836 1.84 1.59-.125 2.932-.749 3.493-2.37.375-.999.655-2.059.749-3.12zM130.13 30.346v-3.524c.655.312 1.154.592 1.716.81 1.216.468 2.432.874 3.773.468.718-.218 1.248-.56 1.373-1.31.124-.78-.125-1.434-.874-1.84-1.154-.592-2.339-1.122-3.462-1.715-1.715-.904-2.62-2.245-2.588-4.241.031-1.965.904-3.369 2.588-4.273 1.778-.967 3.68-.905 5.614-.593.437.063.874.25 1.435.406v3.243c-.936-.28-1.902-.655-2.87-.81-.685-.094-1.465-.032-2.089.249-1.279.561-1.435 1.84-.343 2.713.593.5 1.31.811 1.996 1.154.686.343 1.435.593 2.09.998 1.746.998 2.495 2.495 2.308 4.554-.188 1.902-1.217 3.18-2.9 3.867-2.62 1.092-5.178.904-7.767-.156zM97.944 14.752v3.462c-3.15-1.59-5.77-1.466-7.391.343-1.716 1.934-1.716 5.614-.562 7.298.905 1.341 2.152 2.214 3.743 2.12 1.403-.062 2.807-.56 4.241-.873v2.807c-.717.78-1.746.874-2.682 1.03-1.871.374-3.711.25-5.458-.593-3.275-1.622-5.115-5.115-4.522-8.733.25-1.56.655-3.056 1.56-4.335 1.153-1.622 2.744-2.65 4.709-3.087 2.12-.468 4.241-.406 6.362.561zM101.312 14.347h2.402c.312 0 .624.03 1.06.062.063.717.125 1.435.219 2.464 1.34-2.277 3.056-3.306 5.551-2.682.343 1.247.187 2.463.125 3.711-.218-.062-.374-.062-.5-.125-2.4-.967-4.21.063-4.958 2.651a8.178 8.178 0 0 0-.312 2.277c-.031 2.12 0 4.242 0 6.362v1.622h-3.493c-.343-1.03-.437-14.253-.094-16.342zM78.763 14.378h3.369c.374 1.122.499 13.223.187 16.28h-3.556v-16.28zM82.88 8.795c.125 1.809-.312 2.557-1.777 2.9-1.06.25-2.34-.374-2.683-1.31-.374-.935.063-2.245.874-2.744 1.06-.655 2.432-.218 3.586 1.154z"/>
    </g>
</svg>
