<?xml version="1.0" encoding="UTF-8"?>
<svg width="77px" height="54px" viewBox="0 0 77 54" version="1.1" xmlns="http://www.w3.org/2000/svg" xmlns:xlink="http://www.w3.org/1999/xlink">
    <title>salesforce_logo</title>
    <g id="Homepage" stroke="none" stroke-width="1" fill="none" fill-rule="evenodd">
        <g id="1.-10P-WEB-REVAMP_HOMEPAGE_UPDATE-1" transform="translate(-928.000000, -6394.000000)">
            <g id="Group-7" transform="translate(0.000000, 6218.000000)">
                <g id="salesforce_logo" transform="translate(928.000000, 176.000000)">
                    <path d="M31.6965674,5.80648326 C34.1557839,3.24479947 37.5713622,1.65655552 41.3455764,1.65655552 C46.3664766,1.65655552 50.7554948,4.45732979 53.095166,8.62433542 C55.1274351,7.71920715 57.364639,7.20687039 59.738466,7.20687039 C68.8068266,7.20687039 76.1503201,14.6186755 76.1503201,23.7724256 C76.1503201,32.9261756 68.8068266,40.3379807 59.738466,40.3379807 C58.628403,40.3379807 57.5524958,40.2184355 56.5107444,40.0135008 C54.4613974,43.6852476 50.5334822,46.1615419 46.0419966,46.1615419 C44.1634285,46.1615419 42.3702499,45.7345946 40.7990838,44.9490116 C38.715581,49.8503665 33.8483818,53.3001007 28.1955996,53.3001007 C22.3037269,53.3001007 17.2657487,49.5771203 15.3530248,44.3342074 C14.5162081,44.5049864 13.6281578,44.6074537 12.7401074,44.6074537 C5.68693801,44.6074537 0,38.869282 0,31.764879 C0,27.017225 2.56168379,22.8672973 6.3529758,20.6471713 C5.56739277,18.8539927 5.14044547,16.8558793 5.14044547,14.7723765 C5.14044547,6.60914418 11.7666675,0 19.9298999,0 C24.7287875,0 28.9811826,2.27135963 31.6965674,5.80648326" id="Path" fill="#434343" fill-rule="nonzero"></path>
                    <path d="M11.0323182,27.649107 C10.9810845,27.7686523 11.0493961,27.8028081 11.066474,27.819886 C11.2030971,27.9223533 11.3567981,27.9906649 11.4934213,28.0760543 C12.2619264,28.4859237 12.9962758,28.605469 13.7647809,28.605469 C15.3188691,28.605469 16.2923089,27.7686523 16.2923089,26.4365767 L16.2923089,26.4024209 C16.2923089,25.1728127 15.1993238,24.7117096 14.1746503,24.3872297 L14.0380272,24.3530739 C13.269522,24.0969055 12.6034842,23.8919708 12.6034842,23.3796341 L12.6034842,23.3454783 C12.6034842,22.9014531 12.9962758,22.594051 13.594002,22.594051 C14.2600398,22.594051 15.0627007,22.8160636 15.5750374,23.1063878 C15.5750374,23.1063878 15.7287385,23.2088551 15.7799721,23.0551541 C15.8141279,22.9697646 16.0702963,22.2695711 16.1044521,22.2012595 C16.1386079,22.11587 16.0873742,22.0646364 16.0361405,22.0304806 C15.4554922,21.6718449 14.6357534,21.4327544 13.7989367,21.4327544 L13.6452357,21.4327544 C12.2106927,21.4327544 11.220175,22.3037269 11.220175,23.5333351 L11.220175,23.5674909 C11.220175,24.8654106 12.3131601,25.2923579 13.3549115,25.5826821 L13.5256904,25.6339158 C14.2771177,25.8730063 14.9260775,26.0608631 14.9260775,26.5902777 L14.9260775,26.6244335 C14.9260775,27.1026145 14.4991302,27.4612502 13.8330925,27.4612502 C13.5769241,27.4612502 12.7230295,27.4612502 11.8179012,26.8806019 C11.7154339,26.8122903 11.6471223,26.7781345 11.5617328,26.709823 C11.5104992,26.6756672 11.4080318,26.6415114 11.3567981,26.7781345 L11.0323182,27.649107 Z" id="Path" fill="#FFFFFF" fill-rule="nonzero"></path>
                    <path d="M33.8996155,27.649107 C33.8483818,27.7686523 33.9166934,27.8028081 33.9337713,27.819886 C34.0703944,27.9223533 34.2240954,27.9906649 34.3607186,28.0760543 C35.1292237,28.4859237 35.8635731,28.605469 36.6320782,28.605469 C38.1861664,28.605469 39.1596062,27.7686523 39.1596062,26.4365767 L39.1596062,26.4024209 C39.1596062,25.1728127 38.0666211,24.7117096 37.0419476,24.3872297 L36.9053245,24.3530739 C36.1368193,24.0969055 35.4707815,23.8919708 35.4707815,23.3796341 L35.4707815,23.3454783 C35.4707815,22.9014531 35.8635731,22.594051 36.4612993,22.594051 C37.1273371,22.594051 37.929998,22.8160636 38.4423347,23.1063878 C38.4423347,23.1063878 38.5960358,23.2088551 38.6472694,23.0551541 C38.6814252,22.9697646 38.9375936,22.2695711 38.9717494,22.2012595 C39.0059052,22.11587 38.9546715,22.0646364 38.9034378,22.0304806 C38.3227895,21.6718449 37.5030507,21.4327544 36.666234,21.4327544 L36.5125329,21.4327544 C35.07799,21.4327544 34.0874723,22.3037269 34.0874723,23.5333351 L34.0874723,23.5674909 C34.0874723,24.8654106 35.1975353,25.2923579 36.2222088,25.5826821 L36.3929877,25.6339158 C37.1444149,25.8730063 37.7933748,26.0608631 37.7933748,26.5902777 L37.7933748,26.6244335 C37.7933748,27.1026145 37.3664275,27.4612502 36.7003898,27.4612502 C36.4442214,27.4612502 35.5903268,27.4612502 34.6851985,26.8806019 C34.5827312,26.8122903 34.5144196,26.7781345 34.4290301,26.709823 C34.3948743,26.6927451 34.2753291,26.6415114 34.2240954,26.7781345 L33.8996155,27.649107 Z" id="Path" fill="#FFFFFF" fill-rule="nonzero"></path>
                    <path d="M50.8067285,23.6187245 C50.6871832,23.1917772 50.4822485,22.7989857 50.2090023,22.4915837 C49.935756,22.1671037 49.6112761,21.9109353 49.2014066,21.7230785 C48.8086151,21.5352217 48.3304342,21.4498323 47.8010195,21.4498323 C47.2716049,21.4498323 46.7934239,21.5522996 46.4006324,21.7230785 C46.0078409,21.9109353 45.666283,22.1671037 45.3930367,22.4915837 C45.1197905,22.8160636 44.9319337,23.1917772 44.7953105,23.6187245 C44.6757653,24.0456718 44.6074537,24.5238528 44.6074537,25.0191117 C44.6074537,25.5143705 44.6757653,25.9925515 44.7953105,26.4194988 C44.9148558,26.8464461 45.1197905,27.2392376 45.3930367,27.5466397 C45.666283,27.8711196 45.990763,28.127288 46.4006324,28.2980669 C46.7934239,28.4859237 47.2716049,28.5713132 47.8010195,28.5713132 C48.3304342,28.5713132 48.7915372,28.4859237 49.2014066,28.2980669 C49.5941982,28.1102101 49.935756,27.8540417 50.2090023,27.5466397 C50.4822485,27.2221597 50.6701054,26.8464461 50.8067285,26.4194988 C50.9262737,25.9925515 50.9945853,25.5143705 50.9945853,25.0191117 C51.0116632,24.5238528 50.9433516,24.0456718 50.8067285,23.6187245 M49.5088087,25.0191117 C49.5088087,25.7705389 49.3721856,26.3682651 49.0818614,26.7952124 C48.8086151,27.2050818 48.3987457,27.4100165 47.8180974,27.4100165 C47.2374491,27.4100165 46.8275797,27.2050818 46.5543334,26.7952124 C46.2810871,26.3682651 46.144464,25.7705389 46.144464,25.0191117 C46.144464,24.2676844 46.2810871,23.6699582 46.5543334,23.2600888 C46.8275797,22.8502194 47.2374491,22.6452847 47.8180974,22.6452847 C48.3987457,22.6452847 48.8086151,22.8502194 49.0818614,23.2600888 C49.3721856,23.6699582 49.5088087,24.2676844 49.5088087,25.0191117" id="Shape" fill="#FFFFFF" fill-rule="nonzero"></path>
                    <path d="M61.5145667,27.2050818 C61.4804109,27.0855366 61.3437878,27.1196924 61.3437878,27.1196924 C61.155931,27.188004 60.9509963,27.2563155 60.7289837,27.2904713 C60.5069711,27.3246271 60.2678806,27.341705 60.0117122,27.341705 C59.3798302,27.341705 58.8845714,27.1538482 58.5259356,26.7781345 C58.1672999,26.4024209 57.9623652,25.8046947 57.9623652,25.0020338 C57.9623652,24.2676844 58.150222,23.704114 58.4576241,23.2771667 C58.782104,22.8502194 59.260285,22.6452847 59.9092449,22.6452847 C60.4386595,22.6452847 60.8656068,22.7135963 61.2925541,22.8502194 C61.2925541,22.8502194 61.3950215,22.9014531 61.4462552,22.7648299 C61.5658004,22.44035 61.6511899,22.2183374 61.7707351,21.8767796 C61.8048909,21.7743122 61.7195014,21.7401564 61.6853456,21.7230785 C61.5145667,21.654767 61.1217752,21.5522996 60.8143732,21.5010659 C60.5411269,21.4669102 60.1995691,21.4327544 59.8409333,21.4327544 C59.2944408,21.4327544 58.7991819,21.5352217 58.3893125,21.7060006 C57.9794431,21.8938575 57.6208074,22.1500258 57.3304832,22.4745058 C57.0572369,22.7989857 56.8352243,23.1746993 56.6986012,23.6016466 C56.5619781,24.0285939 56.4936665,24.5067749 56.4936665,25.0020338 C56.4936665,26.077941 56.7839907,26.9489135 57.364639,27.5978734 C57.9452873,28.2468333 58.8162598,28.5713132 59.9434007,28.5713132 C60.6094385,28.5713132 61.2925541,28.4346901 61.787813,28.2468333 C61.787813,28.2468333 61.8902804,28.1955996 61.8390467,28.0931322 L61.5145667,27.2050818 Z" id="Path" fill="#FFFFFF"></path>
                    <path d="M68.1920225,23.3796341 C68.0895551,22.9526868 67.799231,22.5428173 67.628452,22.3549605 C67.3381279,22.0475585 67.0648816,21.8426238 66.7916353,21.7230785 C66.4329996,21.5693775 66.0060523,21.4669102 65.5278713,21.4669102 C64.9813788,21.4669102 64.469042,21.5522996 64.0762505,21.7572343 C63.6663811,21.9450911 63.3248233,22.2012595 63.051577,22.5257395 C62.7783307,22.8502194 62.5904739,23.225933 62.4538508,23.6699582 C62.3172277,24.0969055 62.265994,24.5750865 62.265994,25.0703454 C62.265994,25.5826821 62.3343055,26.0608631 62.4709287,26.4878104 C62.6075518,26.9147577 62.8124865,27.2904713 63.1028107,27.6149512 C63.3931348,27.9223533 63.7688485,28.1785217 64.2128737,28.3493006 C64.6568988,28.5200795 65.2033914,28.605469 65.8181955,28.605469 C67.0990374,28.605469 67.7650752,28.3151448 68.0383214,28.1614438 C68.0895551,28.127288 68.1407888,28.0931322 68.0724772,27.9565091 L67.7821531,27.1538482 C67.7309194,27.0343029 67.6113741,27.0855366 67.6113741,27.0855366 C67.2868942,27.2050818 66.842869,27.4100165 65.8011176,27.4100165 C65.1180019,27.4100165 64.6056652,27.2050818 64.2982631,26.8976798 C63.9737832,26.5731998 63.8030042,26.0950189 63.7859264,25.4289811 L68.1920225,25.4289811 C68.1920225,25.4289811 68.3115677,25.4289811 68.3286456,25.3094358 C68.3286456,25.2240464 68.4823466,24.3701518 68.1920225,23.3796341 M63.8030042,24.3018402 C63.8713158,23.8748929 63.9737832,23.5333351 64.16164,23.2600888 C64.4348862,22.8502194 64.8447557,22.6111289 65.425404,22.6111289 C66.0060523,22.6111289 66.3817659,22.8331415 66.6550122,23.2600888 C66.842869,23.5333351 66.9111806,23.8919708 66.9453364,24.3018402 L63.8030042,24.3018402 Z" id="Shape" fill="#FFFFFF"></path>
                    <path d="M32.8407862,23.3796341 C32.7383188,22.9526868 32.4479947,22.5428173 32.2772157,22.3549605 C31.9868916,22.0475585 31.7136453,21.8426238 31.440399,21.7230785 C31.0817633,21.5693775 30.654816,21.4669102 30.176635,21.4669102 C29.6301425,21.4669102 29.1178057,21.5522996 28.7250142,21.7572343 C28.3151448,21.9450911 27.973587,22.2012595 27.7003407,22.5257395 C27.4270944,22.8502194 27.2392376,23.225933 27.1026145,23.6699582 C26.9659914,24.0969055 26.9147577,24.5750865 26.9147577,25.0703454 C26.9147577,25.5826821 26.9830692,26.0608631 27.1196924,26.4878104 C27.2563155,26.9147577 27.4612502,27.2904713 27.7515744,27.6149512 C28.0418985,27.9223533 28.4176122,28.1785217 28.8616374,28.3493006 C29.3056626,28.5200795 29.8521551,28.605469 30.4669592,28.605469 C31.7478011,28.605469 32.4138389,28.3151448 32.6870852,28.1614438 C32.7383188,28.127288 32.7895525,28.0931322 32.7212409,27.9565091 L32.4309168,27.1538482 C32.3796831,27.0343029 32.2601379,27.0855366 32.2601379,27.0855366 C31.9356579,27.2050818 31.4916327,27.4100165 30.4498813,27.4100165 C29.7667656,27.4100165 29.2544289,27.2050818 28.9470268,26.8976798 C28.6225469,26.5731998 28.451768,26.0950189 28.4346901,25.4289811 L32.8407862,25.4289811 C32.8407862,25.4289811 32.9603314,25.4289811 32.9774093,25.3094358 C32.9774093,25.2240464 33.1311103,24.3701518 32.8407862,23.3796341 M28.451768,24.3018402 C28.5200795,23.8748929 28.6225469,23.5333351 28.8104037,23.2600888 C29.08365,22.8502194 29.4935194,22.6111289 30.0741677,22.6111289 C30.654816,22.6111289 31.0305296,22.8331415 31.3037759,23.2600888 C31.4916327,23.5333351 31.5599443,23.8919708 31.5941001,24.3018402 L28.451768,24.3018402 Z" id="Shape" fill="#FFFFFF"></path>
                    <path d="M20.6642492,24.0798276 C20.4934703,24.0627497 20.2543798,24.0627497 19.9811336,24.0627497 C19.6054199,24.0627497 19.2297063,24.1139834 18.8881485,24.1993729 C18.5465906,24.2847623 18.2391886,24.4384634 17.9659423,24.6263202 C17.692696,24.814177 17.4877613,25.0703454 17.3340603,25.3606695 C17.1803593,25.6509937 17.0949698,25.9925515 17.0949698,26.385343 C17.0949698,26.7781345 17.1632814,27.1196924 17.2999045,27.3929387 C17.4365277,27.6661849 17.6243845,27.9052754 17.8805529,28.0760543 C18.1196433,28.2468333 18.4270454,28.3834564 18.7856811,28.4688458 C19.127239,28.5542353 19.5200305,28.5883911 19.9469778,28.5883911 C20.4080809,28.5883911 20.852106,28.5542353 21.2961312,28.4688458 C21.7230785,28.4005343 22.2524932,28.280989 22.4061942,28.2468333 C22.5598952,28.2126775 22.7135963,28.1614438 22.7135963,28.1614438 C22.8160636,28.127288 22.8160636,28.0248207 22.8160636,28.0248207 L22.8160636,23.9944382 C22.8160636,23.1063878 22.5769731,22.4574279 22.11587,22.0475585 C21.654767,21.6376891 20.9716513,21.4327544 20.0836009,21.4327544 C19.759121,21.4327544 19.2126284,21.483988 18.9052264,21.5352217 C18.9052264,21.5352217 17.9488644,21.7230785 17.538995,22.0304806 C17.538995,22.0304806 17.4536056,22.0817143 17.5048392,22.2012595 L17.8122413,23.0380762 C17.8463971,23.1405436 17.9659423,23.1063878 17.9659423,23.1063878 C17.9659423,23.1063878 18.0000981,23.0893099 18.0342539,23.072232 C18.8881485,22.6111289 19.9640557,22.6282068 19.9640557,22.6282068 C20.4422366,22.6282068 20.8008724,22.7306742 21.0570407,22.918531 C21.2961312,23.1063878 21.4156765,23.3796341 21.4156765,23.9773603 L21.4156765,24.1652171 C21.022885,24.1139834 20.6642492,24.0798276 20.6642492,24.0798276 M18.9052264,27.188004 C18.7344474,27.0513808 18.7002917,27.017225 18.649058,26.9318356 C18.5636685,26.7952124 18.5124349,26.6073556 18.5124349,26.3511872 C18.5124349,25.9583957 18.649058,25.6851495 18.9052264,25.4972927 C18.9052264,25.4972927 19.28094,25.1728127 20.1860683,25.1728127 C20.8179503,25.1728127 21.3815207,25.2752801 21.3815207,25.2752801 L21.3815207,27.2904713 C21.3815207,27.2904713 20.8179503,27.4100165 20.1860683,27.4441723 C19.3150958,27.495406 18.9052264,27.188004 18.9052264,27.188004" id="Shape" fill="#FFFFFF" fill-rule="nonzero"></path>
                    <path d="M56.2716539,21.808468 C56.3058097,21.7060006 56.2374981,21.654767 56.2033423,21.654767 C56.1350308,21.6206112 55.7593171,21.5522996 55.468993,21.5352217 C54.9054226,21.5010659 54.5980205,21.5864554 54.3247742,21.7230785 C54.051528,21.8426238 53.7441259,22.0475585 53.573347,22.2695711 L53.573347,21.7230785 C53.573347,21.654767 53.5221133,21.5864554 53.4538017,21.5864554 L52.3266609,21.5864554 C52.2583493,21.5864554 52.2071156,21.6376891 52.2071156,21.7230785 L52.2071156,28.3151448 C52.2071156,28.3834564 52.2583493,28.451768 52.3437388,28.451768 L53.5050354,28.451768 C53.573347,28.451768 53.6416586,28.4005343 53.6416586,28.3151448 L53.6416586,25.0191117 C53.6416586,24.5750865 53.6928922,24.1310613 53.7953596,23.857815 C53.8978269,23.5845688 54.0173722,23.3625562 54.1881511,23.2088551 C54.3418521,23.0551541 54.5297089,22.9356089 54.7346436,22.8843752 C54.9395783,22.8160636 55.1615909,22.7989857 55.3323699,22.7989857 C55.5714603,22.7989857 55.8105508,22.8672973 55.8105508,22.8672973 C55.8959403,22.8843752 55.947174,22.8160636 55.9813297,22.7477521 C56.0154855,22.5428173 56.2374981,21.9280132 56.2716539,21.808468" id="Path" fill="#FFFFFF"></path>
                    <path d="M45.3930367,18.7515253 C45.2564136,18.7002917 45.1197905,18.6832138 44.9490116,18.649058 C44.7782326,18.6149022 44.5732979,18.5978243 44.3512853,18.5978243 C43.5486244,18.5978243 42.9167424,18.8198369 42.4897951,19.2638621 C42.0457699,19.7078873 41.7554458,20.3739251 41.6017447,21.2619755 L41.5505111,21.5693775 L40.5429154,21.5693775 C40.5429154,21.5693775 40.4233702,21.5693775 40.3892144,21.7060006 L40.2184355,22.6282068 C40.2013576,22.7135963 40.2525913,22.7648299 40.3550586,22.7648299 L41.3284985,22.7648299 L40.3379807,28.280989 C40.2525913,28.7250142 40.1672018,29.08365 40.0818124,29.3739741 C39.979345,29.6472204 39.8939555,29.8521551 39.7744103,30.0058561 C39.6548651,30.1424793 39.5523977,30.2620245 39.3645409,30.3132582 C39.2108399,30.3644919 39.040061,30.3815697 38.8522041,30.3815697 C38.7497368,30.3815697 38.5960358,30.3644919 38.4935684,30.347414 C38.3911011,30.3303361 38.3398674,30.2961803 38.2544779,30.2791024 C38.2544779,30.2791024 38.1349327,30.2278687 38.1007769,30.347414 C38.0666211,30.4498813 37.8104527,31.1500749 37.7762969,31.2525422 C37.7421412,31.3379317 37.7933748,31.4062433 37.8446085,31.4233212 C37.9812317,31.4745548 38.0666211,31.4916327 38.2544779,31.5428664 C38.4935684,31.5941001 38.715581,31.611178 38.9034378,31.611178 C39.3133072,31.611178 39.671943,31.5599443 39.979345,31.440399 C40.2867471,31.3208538 40.5599933,31.132997 40.7990838,30.8768286 C41.0552522,30.5865044 41.2260311,30.2961803 41.3797321,29.8863109 C41.5334332,29.4764415 41.6700563,28.9811826 41.7725237,28.4005343 L42.7630414,22.7819078 L44.2146622,22.7819078 C44.2146622,22.7819078 44.3342074,22.7819078 44.3683632,22.6452847 L44.5391422,21.7230785 C44.55622,21.6376891 44.5049864,21.5864554 44.402519,21.5864554 L42.985054,21.5864554 C42.985054,21.5522996 43.0533656,21.0570407 43.2241445,20.5959377 C43.292456,20.391003 43.4290792,20.2373019 43.5315465,20.1177567 C43.6340139,20.0152893 43.770637,19.9298999 43.9072602,19.8786662 C44.0438833,19.8274325 44.1975843,19.8103546 44.3854411,19.8103546 C44.5220643,19.8103546 44.6416095,19.8274325 44.7440769,19.8445104 C44.8807,19.8786662 44.9319337,19.8957441 44.9660895,19.8957441 C45.1027126,19.9469778 45.1368684,19.8957441 45.1539463,19.8274325 L45.4955041,18.9052264 C45.4955041,18.8198369 45.4101146,18.7686032 45.3930367,18.7515253" id="Path" fill="#FFFFFF"></path>
                    <path d="M25.6680716,28.2980669 C25.6680716,28.3663785 25.6168379,28.4346901 25.5485263,28.4346901 L24.3701518,28.4346901 C24.3018402,28.4346901 24.2506065,28.3663785 24.2506065,28.2980669 L24.2506065,18.8710706 C24.2506065,18.802759 24.3018402,18.7344474 24.3701518,18.7344474 L25.5485263,18.7344474 C25.6168379,18.7344474 25.6680716,18.7856811 25.6680716,18.8710706 L25.6680716,28.2980669 Z" id="Path" fill="#FFFFFF"></path>
                </g>
            </g>
        </g>
    </g>
</svg>