<?xml version="1.0" encoding="UTF-8"?>
<svg width="128px" height="19px" viewBox="0 0 128 19" version="1.1" xmlns="http://www.w3.org/2000/svg" xmlns:xlink="http://www.w3.org/1999/xlink">
    <title>servicenow-1</title>
    <g id="Homepage" stroke="none" stroke-width="1" fill="none" fill-rule="evenodd">
        <g id="1.-10P-WEB-REVAMP_HOMEPAGE_UPDATE-1" transform="translate(-1128.000000, -6514.000000)" fill="#434343" fill-rule="nonzero">
            <g id="Group-7" transform="translate(0.000000, 6218.000000)">
                <g id="servicenow-1" transform="translate(1128.000000, 296.000000)">
                    <g id="Group">
                        <path d="M31.0085032,5.8589025 C29.6025252,5.8589025 28.4185438,6.37689437 27.4565589,7.11688276 L27.4565589,5.93290133 L24.20061,5.93290133 L24.20061,18.5867028 L27.6045566,18.5867028 L27.6045566,10.5208294 C28.0485496,9.85483981 29.2325311,8.96685374 30.638509,8.96685374 C31.1565009,8.96685374 31.6004939,9.04085258 31.9704881,9.18885026 L31.9704881,5.93290133 C31.6744927,5.8589025 31.3784974,5.8589025 31.0085032,5.8589025 M1.55696518,14.7387632 C2.44495125,15.5527504 3.70293151,15.9967435 5.03491062,15.9967435 C5.92289669,15.9967435 6.66288508,15.5527504 6.66288508,14.9607597 C6.66288508,13.0367899 0.594980267,13.7027795 0.594980267,9.6328433 C0.594980267,7.1908816 2.96294312,5.71090482 5.40490482,5.71090482 C7.03287928,5.71090482 8.80885142,6.30289553 9.69683749,6.96888508 L8.14286187,9.41084678 C7.47687232,8.96685374 6.66288508,8.52286071 5.70090017,8.52286071 C4.73891526,8.52286071 3.99892687,8.8928549 3.99892687,9.55884446 C3.99892687,11.1868189 10.0668317,10.5208294 10.0668317,14.9607597 C10.0668317,17.4027214 7.69886883,18.8826982 5.03491062,18.8826982 C3.25893848,18.8826982 1.48296634,18.2907075 0.00298955311,17.1807249 L1.55696518,14.7387632 Z M22.794632,12.1488038 C22.794632,8.59685955 20.3526703,5.71090482 16.8747249,5.71090482 C13.1007841,5.71090482 10.7328212,8.81885607 10.7328212,12.2968015 C10.7328212,16.2927388 13.5447771,18.8826982 17.3187179,18.8826982 C19.2426878,18.8826982 21.2406564,18.068711 22.4986367,16.5887342 L20.5746669,14.6647644 C19.9826761,15.3307539 18.7986947,16.1447411 17.3927168,16.1447411 C15.6167446,16.1447411 14.1367678,14.8867609 13.9887702,13.1107887 L22.7206332,13.1107887 C22.7206332,12.8147934 22.794632,12.518798 22.794632,12.1488038 M14.1367678,10.668827 C14.2847655,9.48484562 15.468747,8.44886187 16.8007261,8.44886187 C18.206704,8.44886187 19.1686889,9.55884446 19.3166866,10.668827 L14.1367678,10.668827 Z M40.0363616,13.7027795 L43.514307,5.93290133 L46.9922525,5.93290133 L41.220343,18.5867028 L38.8523802,18.5867028 L33.0804707,5.93290133 L36.632415,5.93290133 L40.0363616,13.7027795 Z M49.8782072,0.0129941962 C51.0621886,0.0129941962 52.0981724,0.974979106 52.0981724,2.15896053 C52.0981724,3.34294196 51.1361875,4.30492687 49.8782072,4.30492687 C48.6202269,4.30492687 47.658242,3.34294196 47.658242,2.15896053 C47.658242,0.974979106 48.6202269,0.0129941962 49.8782072,0.0129941962 M48.1762339,5.93290133 L51.5801805,5.93290133 L51.5801805,18.5867028 L48.1762339,18.5867028 L48.1762339,5.93290133 Z M65.4919623,15.9967435 C64.0119855,17.9947121 62.1620145,18.8086994 59.7940517,18.8086994 C55.8721132,18.8086994 53.0601573,15.8487458 53.0601573,12.2228027 C53.0601573,8.52286071 56.0201109,5.63690598 59.8680505,5.63690598 C62.0140168,5.63690598 64.0119855,6.67288973 65.1959669,8.15286651 L62.8280041,10.2988328 C62.1620145,9.41084678 61.1260308,8.81885607 59.9420493,8.81885607 C58.0180795,8.81885607 56.5381027,10.3728317 56.5381027,12.2968015 C56.5381027,14.2947702 57.9440807,15.774747 60.0160482,15.774747 C61.4220261,15.774747 62.4580099,14.9607597 63.0500006,14.0727737 L65.4919623,15.9967435 Z M77.7757696,16.5887342 C76.5917882,18.068711 74.5198207,18.8826982 72.5958508,18.8826982 C68.82191,18.8826982 66.0099541,16.2927388 66.0099541,12.2968015 C66.0099541,8.74485723 68.377917,5.71090482 72.1518578,5.71090482 C75.6298033,5.71090482 78.0717649,8.67085839 78.0717649,12.1488038 C78.0717649,12.518798 78.0717649,12.8147934 77.9977661,13.1107887 L69.2659031,13.1107887 C69.4139008,14.8867609 70.8938775,16.1447411 72.6698497,16.1447411 C74.0758276,16.1447411 75.2598091,15.3307539 75.8517998,14.6647644 L77.7757696,16.5887342 Z M74.5938195,10.668827 C74.5198207,9.55884446 73.4838369,8.44886187 72.077859,8.44886187 C70.671881,8.44886187 69.5618984,9.48484562 69.4139008,10.668827 L74.5938195,10.668827 Z M79.4037441,18.5867028 L79.4037441,5.93290133 L82.659693,5.93290133 L82.659693,6.96888508 C83.6216779,6.15489785 84.8056593,5.71090482 86.2116373,5.71090482 C87.9876094,5.71090482 89.541585,6.52489205 90.5775688,7.78287232 C91.391556,8.74485723 91.9095479,10.0768363 91.9095479,12.2228027 L91.9095479,18.6607017 L88.5056013,18.6607017 L88.5056013,11.9268073 C88.5056013,10.668827 88.2096059,10.0028375 87.7656129,9.55884446 C87.3216198,9.11485142 86.6556303,8.81885607 85.8416431,8.81885607 C84.4356651,8.81885607 83.2516837,9.70684214 82.8076907,10.3728317 L82.8076907,18.5867028 L79.4037441,18.5867028 Z" id="Shape"></path>
                        <path d="M100.567412,5.71090482 C96.5714748,5.71090482 93.1675281,8.96685374 93.1675281,13.0367899 C93.1675281,15.1827562 94.0555142,17.1067261 95.4614922,18.512704 C95.979484,19.0306959 96.7934713,19.0306959 97.385462,18.5867028 C98.1994492,17.9207133 99.3094318,17.5507191 100.567412,17.5507191 C101.825392,17.5507191 102.861376,17.9207133 103.749362,18.5867028 C104.341353,19.0306959 105.15534,18.956697 105.673332,18.4387052 C107.07931,17.1067261 107.967296,15.1827562 107.967296,13.0367899 C107.893297,9.04085258 104.637348,5.71090482 100.567412,5.71090482 M100.493413,16.8107307 C98.3474469,16.8107307 96.7934713,15.1827562 96.7934713,13.1107887 C96.7934713,11.0388212 98.2734481,9.41084678 100.493413,9.41084678 C102.713378,9.41084678 104.193355,11.1128201 104.193355,13.1107887 C104.193355,15.1087574 102.713378,16.8107307 100.493413,16.8107307" id="Shape"></path>
                        <polygon id="Path" points="114.553193 18.5867028 112.037232 18.5867028 107.005311 5.93290133 110.409258 5.93290133 113.147215 13.1847876 115.885172 5.93290133 118.697128 5.93290133 121.361086 13.1847876 124.099043 5.93290133 127.50299 5.93290133 122.471068 18.5867028 119.955108 18.5867028 117.29115 11.4088154"></polygon>
                    </g>
                    <path d="M125.653019,17.0327272 L125.653019,17.2547237 L125.209026,17.2547237 L125.209026,18.5867028 L124.91303,18.5867028 L124.91303,17.2547237 L124.469037,17.2547237 L124.469037,17.0327272 L125.653019,17.0327272 Z M126.689002,17.9947121 L127.280993,17.0327272 L127.50299,17.0327272 L127.50299,18.5867028 L127.206994,18.5867028 L127.206994,17.6987168 L126.763001,18.3647063 L126.541005,18.3647063 L126.17101,17.6987168 L126.17101,18.5867028 L125.875015,18.5867028 L125.875015,17.0327272 L126.097012,17.0327272 L126.689002,17.9947121 Z" id="Shape"></path>
                </g>
            </g>
        </g>
    </g>
</svg>