<?xml version="1.0" encoding="UTF-8"?>
<svg width="133px" height="26px" viewBox="0 0 133 26" version="1.1" xmlns="http://www.w3.org/2000/svg" xmlns:xlink="http://www.w3.org/1999/xlink">
    <title>sap-ariba-vector-logo</title>
    <g id="Homepage" stroke="none" stroke-width="1" fill="none" fill-rule="evenodd">
        <g id="1.-10P-WEB-REVAMP_HOMEPAGE_UPDATE-1" transform="translate(-1117.000000, -6408.000000)" fill="#434343" fill-rule="nonzero">
            <g id="Group-7" transform="translate(0.000000, 6218.000000)">
                <g id="sap-ariba-vector-logo" transform="translate(1117.000000, 190.000000)">
                    <path d="M0.176,16.5 L2.508,15.092 C3.278,16.61 4.664,17.49 6.314,17.49 C7.722,17.49 8.778,16.962 8.778,15.906 C8.778,14.85 7.788,14.388 5.962,13.86 C3.388,13.222 0.748,12.562 0.748,9.636 C0.748,6.996 2.794,5.478 5.786,5.478 C8.646,5.478 10.362,6.886 11.352,8.338 L9.196,9.988 C8.426,8.822 7.084,8.008 5.742,8.008 C4.444,8.008 3.696,8.602 3.696,9.416 C3.696,10.538 4.752,10.934 6.556,11.462 C9.02,12.1 11.638,12.936 11.638,15.796 C11.638,18.018 9.944,20.064 6.028,20.064 C3.102,19.954 1.21,18.546 0.176,16.5 Z M12.276,19.712 L17.248,5.654 L20.174,5.654 L25.146,19.712 L22.044,19.712 L20.988,16.61 L16.258,16.61 L15.202,19.712 C15.202,19.712 12.276,19.712 12.276,19.712 Z M16.962,14.322 L20.24,14.322 L18.656,9.57 L18.59,9.57 C18.612,9.592 16.962,14.322 16.962,14.322 Z M26.686,19.712 L26.686,5.72 L31.768,5.72 C34.76,5.72 37.51,6.534 37.51,10.23 C37.51,13.97 34.584,14.806 31.768,14.806 L29.788,14.806 L29.788,19.778 L26.686,19.778 L26.686,19.712 Z M29.722,12.342 L31.834,12.342 C33.77,12.342 34.474,11.572 34.474,10.23 C34.474,8.932 33.77,8.184 31.834,8.184 L29.722,8.184 L29.722,12.342 Z M42.9,19.712 L47.828,5.654 L50.754,5.654 L55.682,19.712 L52.58,19.712 L51.524,16.786 L46.772,16.786 L45.716,19.712 L42.9,19.712 Z M47.52,14.454 L50.798,14.454 L49.214,9.768 L49.148,9.768 L47.52,14.454 Z M57.464,19.712 L57.464,9.768 L60.39,9.768 L60.39,11.528 L60.28,11.528 C60.808,10.362 61.798,9.196 63.668,9.196 L63.778,9.196 L63.712,12.012 L62.942,12.012 C61.71,12.012 60.896,12.716 60.302,13.486 L60.302,19.756 L57.464,19.756 L57.464,19.712 Z M65.67,8.008 L65.67,5.676 L68.596,5.676 L68.596,8.008 L65.67,8.008 Z M65.67,19.712 L65.67,9.768 L68.596,9.768 L68.596,19.712 L65.67,19.712 Z M73.854,18.48 L73.854,19.712 L70.928,19.712 L70.928,5.654 L73.854,5.654 L73.854,11.154 C74.448,10.208 75.504,9.394 76.956,9.394 C79.244,9.394 80.828,11.154 80.828,14.608 C80.828,18.062 79.178,19.822 76.912,19.822 C75.614,19.822 74.448,19.294 73.854,18.48 Z M77.836,14.63 C77.836,12.936 77.198,11.88 75.856,11.88 C75.086,11.88 74.448,12.342 73.876,12.87 L73.876,16.566 C74.47,17.204 75.108,17.512 75.922,17.512 C77.198,17.556 77.836,16.5 77.836,14.63 Z M82.06,17.072 C82.06,14.74 83.82,13.442 88.506,13.09 L88.506,12.914 C88.506,12.144 88.088,11.682 87.098,11.682 C85.8,11.682 84.7,12.21 83.754,12.914 L82.456,11.154 C83.446,10.274 84.964,9.35 87.494,9.35 C90.244,9.35 91.41,10.692 91.41,13.266 L91.41,17.138 C91.41,18.37 91.41,19.008 91.652,19.602 L88.616,19.602 C88.506,19.008 88.374,18.656 88.374,18.128 C87.428,19.184 86.394,19.778 84.92,19.778 C83.402,19.822 82.06,18.832 82.06,17.072 L82.06,17.072 Z M88.506,16.676 L88.506,14.806 C86.174,15.048 85.052,15.62 85.052,16.566 C85.052,17.204 85.514,17.512 86.174,17.512 C87.274,17.556 87.912,17.204 88.506,16.676 Z" id="Shape"></path>
                    <path d="M127.952,24.508 L114.73,0.044 L117.656,0.044 C118.25,0.044 118.712,0.33 118.954,0.814 L132.176,25.278 L129.25,25.278 C128.722,25.278 128.194,24.992 127.952,24.508 Z M103.136,25.278 L106.062,25.278 C106.656,25.278 107.118,24.992 107.36,24.508 L110.99,17.842 L109.12,14.322 L103.136,25.278 Z M97.46,25.278 C98.054,25.278 98.516,24.992 98.758,24.508 L109.054,5.478 L119.35,24.508 C119.592,24.97 120.054,25.278 120.648,25.278 L123.574,25.278 L110.352,0.814 C110.11,0.352 109.648,0.044 109.054,0.044 C108.526,0.044 107.998,0.33 107.756,0.814 L94.534,25.278 L97.46,25.278 Z" id="Shape"></path>
                </g>
            </g>
        </g>
    </g>
</svg>