<?xml version="1.0" encoding="UTF-8"?>
<svg width="117px" height="34px" viewBox="0 0 117 34" version="1.1" xmlns="http://www.w3.org/2000/svg" xmlns:xlink="http://www.w3.org/1999/xlink">
    <title>Microsoft_Azure_Logo</title>
    <g id="Homepage" stroke="none" stroke-width="1" fill="none" fill-rule="evenodd">
        <g id="1.-10P-WEB-REVAMP_HOMEPAGE_UPDATE-1" transform="translate(-974.000000, -6506.000000)" fill="#434343" fill-rule="nonzero">
            <g id="Group-7" transform="translate(0.000000, 6218.000000)">
                <g id="Microsoft_Azure_Logo" transform="translate(974.000000, 288.000000)">
                    <path d="M20.031941,31.7477285 C25.5950678,30.7649901 30.1898926,29.9517742 30.242665,29.940583 L30.3386158,29.9202344 L25.0864758,23.6729788 C22.197801,20.2369876 19.8343384,17.4123999 19.8343384,17.3961175 C19.8343384,17.3652901 25.2576165,2.43075421 25.2881044,2.37758505 C25.2982979,2.35985801 28.9890035,8.73175982 34.2346167,17.8235331 C39.1456559,26.3354141 43.1945696,33.3534905 43.232203,33.4192554 L43.3006302,33.5388298 L26.6088962,33.5366768 L9.91716519,33.5345325 L20.031941,31.7477347 L20.031941,31.7477285 Z M84.0427876,30.2368653 C81.5019781,30.0739646 80.0242327,28.627171 79.6326385,25.9190962 C79.5284704,25.1987039 79.5280722,25.180013 79.5174122,20.5032424 L79.5070944,15.9769107 L80.631591,15.9769107 L81.7560842,15.9769107 L81.7649395,20.35504 C81.7729214,24.3009263 81.7779294,24.763576 81.8156543,25.0411578 C81.9687588,26.1676972 82.2735639,26.92527 82.7924947,27.4690427 C83.2078053,27.9042327 83.6939919,28.1590477 84.367003,28.2942603 C84.6845135,28.3580489 85.5877542,28.3581767 85.8772344,28.2945229 C86.5595358,28.1443722 87.1063936,27.8474571 87.5888055,27.3652282 C88.1386539,26.8155872 88.5454207,26.0357614 88.7422409,25.1539327 L88.8085755,24.8567244 L88.8159623,20.4415438 L88.823349,16.0263643 L89.971387,16.0263643 L91.1194277,16.0263643 L91.1194277,22.9671509 L91.1194277,29.9079368 L89.9832137,29.9079368 L88.8469998,29.9079368 L88.8469998,28.8067154 C88.8469998,28.0584715 88.8387991,27.7082265 88.8214245,27.7140186 C88.8073608,27.7187097 88.7490063,27.8079783 88.6917484,27.9123993 C88.3002041,28.6264778 87.6478488,29.2794992 86.9330176,29.6729234 C86.0761682,30.144509 85.2168595,30.3121944 84.0427902,30.2369178 L84.0427876,30.2368653 Z M109.832215,30.2256486 C108.935307,30.1582314 107.990913,29.8498703 107.219024,29.3724016 C105.592124,28.3660413 104.629493,26.707233 104.347638,24.4244155 C104.250104,23.6344749 104.238381,22.5733826 104.319771,21.9021482 C104.501627,20.4023204 105.090991,18.9299637 105.930246,17.878834 C106.145393,17.6093724 106.633471,17.1212953 106.902921,16.9061622 C107.630551,16.3252101 108.481659,15.9189614 109.385303,15.7212774 C109.911809,15.6060974 110.838995,15.5520174 111.398378,15.6038604 C112.80359,15.7340957 114.091484,16.3957177 114.966833,17.4370606 C115.856176,18.4950529 116.345006,19.9734179 116.407432,21.7938334 C116.417215,22.0791213 116.419587,22.5793025 116.412709,22.9053472 L116.400194,23.4981543 L111.478657,23.5043858 L106.557121,23.5106172 L106.557121,23.7302419 C106.557121,24.3988262 106.719666,25.1603234 107.000672,25.808217 C107.242997,26.366926 107.660128,26.9770236 108.001659,27.2722662 C108.70194,27.877636 109.558991,28.2399843 110.49682,28.3271839 C110.844556,28.359514 111.730766,28.3254772 112.12704,28.264589 C113.257635,28.0908393 114.332516,27.6473925 115.200546,26.9966029 C115.302673,26.9200345 115.400406,26.8484976 115.417731,26.8376346 C115.443084,26.8217373 115.449076,27.0217853 115.448434,27.8626971 L115.447646,28.9075131 L115.215066,29.0513579 C114.233108,29.6586742 113.108174,30.0486405 111.917099,30.1946216 C111.561646,30.2381851 110.257317,30.2575919 109.832229,30.2256399 L109.832215,30.2256486 Z M114.115411,21.413595 C114.115411,20.2936713 113.64346,19.0495749 112.975596,18.408963 C112.498969,17.9517834 111.92279,17.6723856 111.237825,17.5662938 C110.913767,17.5161006 110.230784,17.5354322 109.889127,17.6044677 C109.166876,17.7504069 108.569479,18.0679217 108.04843,18.5827933 C107.500059,19.1246633 107.08892,19.7828099 106.830354,20.5326765 C106.737378,20.8023201 106.62863,21.245009 106.594875,21.4912539 L106.578792,21.6085808 L110.3471,21.6085808 L114.115411,21.6085808 L114.115411,21.413595 Z M47.3556748,29.8770087 C47.3614398,29.8600271 49.0326773,25.4695851 51.0695388,20.1204712 L54.7729228,10.3946615 L55.9628404,10.3946615 L57.1527553,10.3946615 L57.2514831,10.6478399 C57.5531847,11.4215305 64.6653959,29.8867953 64.6653959,29.8963885 C64.6653959,29.9027075 64.0957451,29.9077003 63.399505,29.9077003 L62.1336142,29.9074362 L61.1085516,27.1782917 L60.0834891,24.449148 L55.95611,24.4490981 L51.8287301,24.4490491 L51.7928623,24.541675 C51.7731369,24.5926191 51.3351833,25.8206467 50.8196286,27.270627 L49.8822618,29.9069496 L48.6137281,29.9073872 C47.6096285,29.9077003 47.3473805,29.9013833 47.3556748,29.876944 L47.3556748,29.8770087 Z M59.3301295,22.3664249 C59.3301295,22.3621014 58.6403022,20.4919759 57.7971795,18.2105981 C56.2198425,13.942534 56.1316058,13.685735 56.0069824,13.0005234 C55.9485439,12.6792154 55.918975,12.6702866 55.8842887,12.9634733 C55.8594941,13.17304 55.7519862,13.6419737 55.6691049,13.9020854 C55.6279806,14.0311444 54.9176717,15.9806793 54.0906389,18.2343845 C53.2636078,20.4880899 52.5869453,22.3415392 52.5869453,22.3531602 C52.5869453,22.3647821 54.1041626,22.3742904 55.9585379,22.3742904 C57.8129131,22.3742904 59.3301295,22.3707545 59.3301295,22.3664223 L59.3301295,22.3664249 Z M65.4311055,29.5524397 L65.4311055,29.1969942 L69.543235,23.5440896 L73.6553644,17.891184 L69.9322648,17.878834 L66.2091652,17.8664839 L66.2026974,16.9216972 L66.1962296,15.9769107 L71.5811912,15.9769107 L76.9661519,15.9769107 L76.9661519,16.2960167 L76.9661519,16.6151224 L72.8535507,22.2988554 C70.59162,25.4249092 68.7409495,27.9878475 68.7409495,27.994275 C68.7409495,28.000699 70.5693898,28.0059608 72.8041496,28.0059608 L76.8673505,28.0059608 L76.8673505,28.9569221 L76.8673505,29.9078843 L71.1492272,29.9078843 L65.4311055,29.9078843 L65.4311055,29.5524397 Z M95.6066484,29.8914164 C95.5975909,29.8823615 95.5901805,26.7478925 95.5901805,22.9259303 L95.5901805,15.9769107 L96.7140452,15.9769107 L97.8379091,15.9769107 L97.8379091,17.4095283 C97.8379091,18.1974682 97.84749,18.8421462 97.8592029,18.8421462 C97.8709158,18.8421462 97.9256146,18.7131686 97.9807553,18.5555297 C98.2334374,17.8331683 98.6716381,17.1581975 99.2361909,16.6217503 C99.7447697,16.1384906 100.32603,15.8494988 101.011898,15.7389032 C101.204561,15.7078359 101.367583,15.7019046 101.752908,15.7119415 C102.236831,15.7245463 102.489833,15.7599195 102.784146,15.8561215 L102.876772,15.8863984 L102.876772,17.0529573 L102.876772,18.2195156 L102.611243,18.0865995 C102.142202,17.8518102 101.679397,17.7588964 101.12305,17.7878255 C100.76097,17.8066538 100.523312,17.8531475 100.233838,17.961787 C99.638243,18.1853142 99.1551292,18.579857 98.8175528,19.1184178 C98.3288595,19.8980678 97.9803186,20.9002296 97.8775184,21.8213105 C97.8590699,21.9866057 97.8481919,23.3328109 97.8438588,25.9867103 L97.837461,29.9078843 L96.7302873,29.9078843 C96.1213432,29.9078843 95.615705,29.9004713 95.6066501,29.8914164 L95.6066484,29.8914164 Z M-8.88501927e-06,29.8426166 C-8.88501927e-06,29.8338207 2.47477403,25.5377918 5.49950861,20.2958821 L10.9990252,10.7651378 L17.4080761,5.38664933 C20.9330541,2.4284813 23.8266195,0.00454532485 23.8382204,3.13904512e-06 C23.8498213,-0.00429514853 23.803451,0.112412928 23.7351752,0.259477586 C23.6668993,0.406542243 20.5352021,7.123703 16.7758479,15.1865009 L9.94066014,29.8461332 L4.97032563,29.8523646 C2.23664226,29.8557955 -8.88501927e-06,29.8514019 -8.88501927e-06,29.8426131 L-8.88501927e-06,29.8426166 Z" id="path21"></path>
                </g>
            </g>
        </g>
    </g>
</svg>