<?xml version="1.0" encoding="UTF-8"?>
<svg width="120px" height="31px" viewBox="0 0 120 31" version="1.1" xmlns="http://www.w3.org/2000/svg" xmlns:xlink="http://www.w3.org/1999/xlink">
    <title>Adobe_logo_and_wordmark_(2017)</title>
    <g id="Homepage" stroke="none" stroke-width="1" fill="none" fill-rule="evenodd">
        <g id="1.-10P-WEB-REVAMP_HOMEPAGE_UPDATE-1" transform="translate(-1287.000000, -6511.000000)" fill="#434343" fill-rule="nonzero">
            <g id="Group-7" transform="translate(0.000000, 6218.000000)">
                <g id="Adobe_logo_and_wordmark_(2017)" transform="translate(1287.000000, 293.000000)">
                    <path d="M21.483,0 L34.1208,30.1518 L34.1208,0 L21.483,0 Z M0,0 L0,30.1518 L12.6378,0 L0,0 Z M11.5542,24.003 L17.325,24.003 L19.8576,30.1392 L25.0866,30.1392 L16.9722,11.0124 L11.5542,24.003 Z" id="Shape"></path>
                    <g id="Group" transform="translate(50.904000, 5.796000)">
                        <path d="M4.3974,13.6584 L3.0114,17.829 C2.961,17.9802 2.8854,18.0306 2.7342,18.0306 L0.2016,18.0306 C0.0504,18.0306 -8.98045527e-13,17.955 0.0252,17.7786 L5.2416,2.9484 C5.3424,2.6964 5.418,2.4444 5.4684,1.5876 C5.4684,1.4868 5.5188,1.4112 5.6196,1.4112 L9.135,1.4112 C9.261,1.4112 9.2862,1.4364 9.3114,1.5624 L15.1578,17.8164 C15.183,17.9676 15.1578,18.0432 15.0066,18.0432 L12.1716,18.0432 C12.0456,18.0432 11.97,17.9928 11.9196,17.892 L10.4454,13.671 L4.3974,13.671 L4.3974,13.6584 Z M9.639,10.899 C9.1098,9.2232 7.9128,5.7078 7.4088,3.9438 L7.3836,3.9438 C6.9804,5.6448 5.9598,8.6058 5.2038,10.899 L9.639,10.899 Z" id="Shape"></path>
                        <path d="M16.065,11.907 C16.065,8.2404 18.7992,5.3046 23.2596,5.3046 C23.6124,5.3046 23.9148,5.3298 24.3432,5.3802 L24.3432,0.189 C24.3432,0.063 24.3936,0.0126 24.4944,0.0126 L27.2538,0.0126 C27.3798,0.0126 27.3798,0.063 27.3798,0.1638 L27.3798,15.4476 C27.3798,15.9516 27.4302,16.6068 27.4806,17.073 C27.4806,17.199 27.4554,17.2494 27.3294,17.2998 C25.6788,18.0054 24.066,18.2826556 22.5414,18.2826556 C18.8748,18.2952 16.065,16.1658 16.065,11.907 Z M24.3432,8.0388 C24.0156,7.9128 23.6124,7.8624 23.1588,7.8624 C20.9034,7.8624 19.215,9.3114 19.215,11.7558 C19.215,14.5152 20.8656,15.6492 22.8816,15.6492 C23.3856,15.6492 23.8896,15.5988 24.3558,15.4476 L24.3558,8.0388 L24.3432,8.0388 Z" id="Shape"></path>
                        <path d="M41.9832,11.7306 C41.9832,15.6492 39.4758,18.2826 35.91,18.2826 C31.6764,18.2826 29.8116,15.0192 29.8116,11.8062 C29.8116,8.2152 32.1678,5.3046 35.9604,5.3046 C39.8664,5.3046 41.9832,8.2656 41.9832,11.7306 Z M32.8986,11.7558 C32.8986,14.0868 34.0326,15.6996 35.9604,15.6996 C37.5354,15.6996 38.871,14.4144 38.871,11.8062 C38.871,9.702 37.9638,7.8624 35.8092,7.8624 C34.1208,7.8624 32.8986,9.3492 32.8986,11.7558 Z" id="Shape"></path>
                        <path d="M47.1996,0.0126 C47.376,0.0126 47.4264,0.0378 47.4264,0.2142 L47.4516,5.6574 C48.132,5.4306 48.9258,5.3046 49.7574,5.3046 C53.3988,5.3046 55.7298,7.8876 55.7298,11.277 C55.7298,15.9642 52.0884,18.2826 48.3336,18.2826 C47.0232,18.2826 45.7506,18.1062 44.541,17.7282 C44.4402,17.703 44.3646,17.577 44.3646,17.5014 L44.3646,0.189 C44.3646,0.063 44.4402,0.0126 44.541,0.0126 L47.1996,0.0126 Z M49.2282,7.9128 C48.3462,7.9128 47.8674,8.0388 47.4516,8.19 L47.4516,15.5862 C47.8044,15.687 48.1824,15.7122 48.6108,15.7122 C50.6898,15.7122 52.605,14.4018 52.605,11.592 C52.6176,9.1728 51.2316,7.9128 49.2282,7.9128 Z" id="Shape"></path>
                        <path d="M60.6186,12.4992 C60.6942,14.2758 61.8534,15.687 64.4364,15.687 C65.5704,15.687 66.6162,15.4854 67.5738,15.0822 C67.6494,15.0318 67.725,15.057 67.725,15.183 L67.725,17.2872 C67.725,17.4384 67.6746,17.514 67.5738,17.5644 C66.6162,18.018 65.4948,18.2952 63.7812,18.2952 C59.1696,18.2952 57.5316,15.057 57.5316,11.9448 C57.5316,8.4294 59.661,5.3172 63.4788,5.3172 C67.221,5.3172 68.67,8.253 68.67,10.6596 C68.67,11.3652 68.6448,11.9448 68.5692,12.2346 C68.544,12.3354 68.4936,12.3858 68.3676,12.411 C68.0148,12.4866 67.0068,12.5118 65.7594,12.5118 L60.6186,12.5118 L60.6186,12.4992 Z M64.386,10.3194 C65.3436,10.3194 65.6712,10.3194 65.772,10.2942 C65.772,10.2186 65.772,10.1178 65.772,10.0926 C65.772,9.3618 65.268,7.7364 63.3402,7.7364 C61.5888,7.7364 60.8076,9.072 60.606,10.3194 L64.386,10.3194 Z" id="Shape"></path>
                    </g>
                </g>
            </g>
        </g>
    </g>
</svg>