<?xml version="1.0" encoding="UTF-8"?>
<svg width="112px" height="30px" viewBox="0 0 112 30" version="1.1" xmlns="http://www.w3.org/2000/svg" xmlns:xlink="http://www.w3.org/1999/xlink">
    <title>MedStar_Health_logo</title>
    <g id="Homepage" stroke="none" stroke-width="1" fill="none" fill-rule="evenodd">
        <g id="1.-10P-WEB-REVAMP_HOMEPAGE_UPDATE-1" transform="translate(-198.000000, -997.000000)">
            <g id="Group-6" transform="translate(190.000000, 896.000000)">
                <g id="MedStar_Health_logo" transform="translate(8.000000, 101.000000)">
                    <path d="M7.4557932,26.492034 L10.8817932,18.764034 C11.4397932,18.812034 11.8357932,18.824034 12.4657932,18.824034 C12.9157932,18.824034 13.2517932,18.824034 13.4917932,18.794034 C13.5097932,18.794034 13.5817932,18.776034 13.7197932,18.764034 L13.7197932,19.124034 L13.1617932,19.334034 C12.3757932,19.622034 12.3037932,19.742034 12.3037932,20.690034 L12.3037932,26.954034 C12.3037932,27.902034 12.4717932,28.118034 13.4497932,28.448034 L13.8877932,28.586034 L13.8697932,28.946034 C13.4197932,28.898034 12.9937932,28.886034 11.5777932,28.886034 C10.4617932,28.886034 10.0357932,28.904034 9.4657932,28.946034 L9.4657932,28.586034 L10.0717932,28.328034 C10.7797932,28.028034 10.8877932,27.842034 10.8877932,26.972034 L10.8877932,20.690034 L7.1917932,29.024034 L6.9937932,29.024034 L3.3877932,20.690034 L3.3877932,26.954034 C3.3877932,27.902034 3.4657932,28.028034 4.3417932,28.388034 L4.8097932,28.586034 L4.8097932,28.946034 C4.3897932,28.898034 3.9517932,28.886034 2.7097932,28.886034 C1.8637932,28.886034 1.5337932,28.904034 1.0357932,28.946034 L1.0237932,28.586034 L1.4617932,28.448034 C2.4277932,28.130034 2.6077932,27.890034 2.6077932,26.954034 L2.6077932,20.690034 C2.6077932,19.772034 2.4877932,19.604034 1.5937932,19.274034 L1.1857932,19.124034 L1.1857932,18.764034 C1.7737932,18.824034 2.0017932,18.824034 2.5717932,18.824034 C3.1177932,18.824034 3.3877932,18.824034 4.0837932,18.764034 L7.4557932,26.492034 Z" id="path400" fill="#434343" fill-rule="nonzero"></path>
                    <path d="M19.7137932,24.098034 C19.6837932,22.586034 19.2157932,21.926034 18.1897932,21.926034 C17.5837932,21.926034 17.0257932,22.214034 16.6777932,22.694034 C16.3897932,23.084034 16.2997932,23.372034 16.2397932,24.098034 L19.7137932,24.098034 Z M21.2797932,24.626034 L16.2397932,24.626034 L16.2277932,24.734034 C16.2277932,26.060034 16.4257932,26.756034 16.9537932,27.404034 C17.4217932,27.962034 18.0097932,28.250034 18.7657932,28.250034 C19.4017932,28.250034 19.9117932,28.130034 21.0577932,27.722034 L21.2257932,28.160034 C20.0797932,28.766034 19.1257932,29.036034 18.0697932,29.036034 C16.0597932,29.036034 14.8237932,27.692034 14.8237932,25.520034 C14.8237932,23.072034 16.2697932,21.398034 18.4297932,21.398034 C20.1217932,21.398034 21.2797932,22.574034 21.2797932,24.296034 L21.2797932,24.626034 Z" id="path404" fill="#434343" fill-rule="nonzero"></path>
                    <path d="M28.1377932,22.256034 C27.6517932,21.986034 27.1717932,21.866034 26.6437932,21.866034 C25.0417932,21.866034 24.0337932,23.210034 24.0337932,25.352034 C24.0337932,27.176034 24.9097932,28.310034 26.3257932,28.310034 C26.8057932,28.310034 27.2317932,28.220034 27.9397932,27.962034 L28.1377932,27.884034 L28.1377932,22.256034 Z M28.1377932,29.120034 L28.1377932,28.292034 C27.1117932,28.850034 26.5057932,29.030034 25.6477932,29.030034 C23.7757932,29.030034 22.5397932,27.644034 22.5397932,25.544034 C22.5397932,22.994034 24.1417932,21.332034 26.5837932,21.332034 C27.2197932,21.332034 27.6577932,21.422034 28.1377932,21.650034 L28.1377932,19.580034 C28.1377932,18.842034 27.9397932,18.644034 27.0817932,18.464034 L26.4757932,18.344034 L26.4757932,18.044034 C27.3637932,17.876034 28.6777932,17.546034 29.4817932,17.276034 L29.4817932,27.116034 C29.4817932,27.794034 29.6017932,27.914034 30.5677932,28.112034 L30.9757932,28.190034 L30.9757932,28.460034 L30.8257932,28.490034 C29.9077932,28.658034 29.5117932,28.748034 28.3657932,29.066034 L28.1377932,29.120034 Z" id="path408" fill="#434343" fill-rule="nonzero"></path>
                    <path d="M31.9117932,26.072034 L32.2717932,26.072034 C32.6797932,27.158034 32.9377932,27.644034 33.2497932,27.914034 C33.5497932,28.184034 34.1677932,28.364034 34.7617932,28.364034 C35.9377932,28.364034 36.7357932,27.668034 36.7357932,26.660034 C36.7357932,25.994034 36.4657932,25.646034 35.4397932,24.956034 L34.0537932,24.020034 C32.9677932,23.282034 32.7097932,23.054034 32.4817932,22.526034 C32.3137932,22.196034 32.2417932,21.800034 32.2417932,21.410034 C32.2417932,19.778034 33.4177932,18.710034 35.2177932,18.710034 C35.5177932,18.710034 35.8537932,18.728034 36.1657932,18.788034 C36.1957932,18.788034 36.4237932,18.830034 36.8437932,18.908034 C37.1437932,18.956034 37.3417932,18.986034 37.5217932,18.986034 L37.7317932,18.986034 C37.7317932,19.466034 37.7737932,20.498034 37.8097932,21.068034 L37.8277932,21.278034 L37.4917932,21.278034 L37.4017932,21.080034 C36.7237932,19.616034 36.3457932,19.298034 35.2297932,19.298034 C34.1437932,19.298034 33.4177932,19.946034 33.4177932,20.912034 C33.4177932,21.680034 33.5977932,21.926034 34.7437932,22.676034 L36.3457932,23.720034 C37.6117932,24.566034 38.0797932,25.232034 38.0797932,26.180034 C38.0797932,27.794034 36.7057932,28.958034 34.8037932,28.958034 C34.4557932,28.958034 34.1077932,28.928034 33.7777932,28.868034 L32.7637932,28.658034 C32.5237932,28.616034 32.3857932,28.598034 32.0377932,28.598034 L32.0077932,28.598034 L32.0077932,28.448034 C32.0137932,27.866034 31.9537932,26.720034 31.9117932,26.072034" id="path412" fill="#434343" fill-rule="nonzero"></path>
                    <path d="M40.2517932,22.058034 L39.1477932,22.058034 L39.1477932,21.758034 C39.7537932,21.488034 40.1437932,21.230034 40.4317932,20.912034 C40.6717932,20.654034 40.8697932,20.294034 41.1397932,19.646034 L41.1997932,19.496034 L41.5897932,19.496034 L41.5897932,21.476034 L44.1997932,21.476034 L44.1997932,22.064034 L41.5897932,22.064034 L41.5897932,26.834034 C41.5897932,27.872034 41.9677932,28.376034 42.7837932,28.376034 C43.2037932,28.376034 43.5817932,28.298034 44.1997932,28.076034 L44.3497932,28.436034 C43.3537932,28.844034 42.5557932,29.042034 41.9017932,29.042034 C40.8157932,29.042034 40.2397932,28.436034 40.2397932,27.320034 L40.2517932,22.058034 Z" id="path416" fill="#434343" fill-rule="nonzero"></path>
                    <path d="M49.5157932,25.256034 C48.6277932,25.406034 47.9737932,25.574034 47.5417932,25.742034 C46.9837932,25.952034 46.6657932,26.390034 46.6657932,26.978034 C46.6657932,27.686034 47.1817932,28.172034 47.9197932,28.172034 C48.3877932,28.172034 48.9937932,28.004034 49.5217932,27.734034 L49.5157932,25.256034 Z M49.5157932,24.836034 L49.5157932,22.664034 C49.5157932,22.058034 49.2277932,21.788034 48.5677932,21.788034 C47.9797932,21.788034 47.7817932,21.878034 47.5837932,22.238034 C47.1757932,23.006034 46.9357932,23.234034 46.4977932,23.234034 C46.0897932,23.234034 45.8017932,22.964034 45.8017932,22.556034 C45.8017932,21.830034 46.9357932,21.332034 48.5617932,21.332034 C50.1037932,21.332034 50.8537932,21.920034 50.8537932,23.114034 L50.8537932,26.960034 C50.8537932,27.578034 51.2017932,27.974034 51.7477932,27.974034 C51.9277932,27.974034 52.0657932,27.944034 52.3537932,27.806034 L52.5217932,28.046034 C51.5077932,28.772034 50.9977932,29.030034 50.5417932,29.030034 C50.0617932,29.030034 49.7857932,28.730034 49.6537932,28.046034 C48.5197932,28.772034 47.8117932,29.030034 47.0437932,29.030034 C45.9577932,29.030034 45.1717932,28.262034 45.1717932,27.206034 C45.1717932,26.450034 45.5497932,25.892034 46.2577932,25.592034 C46.9357932,25.304034 47.5237932,25.172034 49.2937932,24.866034 L49.5157932,24.836034 Z" id="path420" fill="#434343" fill-rule="nonzero"></path>
                    <path d="M55.8877932,21.260034 L55.8877932,22.286034 C56.8357932,21.668034 57.5617932,21.398034 58.3177932,21.398034 C59.0557932,21.398034 59.4337932,21.698034 59.4337932,22.256034 C59.4337932,22.742034 59.1337932,23.042034 58.6657932,23.042034 C58.3057932,23.042034 58.1677932,22.964034 57.8797932,22.544034 C57.6997932,22.274034 57.5917932,22.214034 57.3217932,22.214034 C56.9137932,22.214034 56.4337932,22.364034 55.9657932,22.640034 L55.9657932,27.212034 C55.9657932,27.968034 56.1157932,28.148034 56.8537932,28.346034 L57.8677932,28.616034 L57.8677932,28.964034 C57.3697932,28.922034 56.8237932,28.904034 55.3597932,28.904034 C53.9737932,28.904034 53.5057932,28.922034 53.0497932,28.964034 L53.0497932,28.616034 L53.7577932,28.376034 C54.4657932,28.136034 54.6157932,27.926034 54.6157932,27.290034 L54.6157932,23.444034 C54.6157932,22.616034 54.4657932,22.430034 53.6197932,22.298034 L53.0437932,22.208034 L53.0437932,21.920034 C53.5297932,21.830034 54.9037932,21.512034 55.8877932,21.260034" id="path424" fill="#434343" fill-rule="nonzero"></path>
                    <path d="M66.8917932,23.960034 L66.8917932,26.936034 C66.8917932,27.890034 66.9697932,27.992034 68.0377932,28.430034 L68.4757932,28.598034 L68.4577932,28.958034 C67.9117932,28.916034 67.3837932,28.898034 66.0277932,28.898034 C64.9237932,28.898034 64.4737932,28.916034 63.8977932,28.958034 L63.8797932,28.598034 L64.3177932,28.448034 C65.2837932,28.118034 65.4637932,27.872034 65.4637932,26.936034 L65.4637932,20.750034 C65.4637932,19.832034 65.2657932,19.586034 64.3177932,19.268034 L63.8797932,19.130034 L63.8977932,18.770034 C64.4437932,18.812034 65.0617932,18.830034 66.2797932,18.830034 C67.4137932,18.830034 67.9417932,18.812034 68.4517932,18.770034 L68.4697932,19.130034 L68.0317932,19.268034 C67.0777932,19.568034 66.8857932,19.826034 66.8857932,20.750034 L66.8857932,23.378034 L71.8657932,23.378034 L71.8657932,20.750034 C71.8657932,19.832034 71.6677932,19.574034 70.7197932,19.268034 L70.2817932,19.130034 L70.2817932,18.770034 C70.8097932,18.812034 71.4157932,18.830034 72.6817932,18.830034 C73.7857932,18.830034 74.3257932,18.812034 74.8537932,18.770034 L74.8537932,19.130034 L74.4277932,19.268034 C73.4617932,19.586034 73.2817932,19.826034 73.2817932,20.750034 L73.2817932,26.936034 C73.2817932,27.890034 73.3417932,27.980034 74.4277932,28.430034 L74.8537932,28.598034 L74.8537932,28.958034 C74.2957932,28.916034 73.7677932,28.898034 72.3757932,28.898034 C71.3497932,28.898034 70.9117932,28.916034 70.2757932,28.958034 L70.2757932,28.598034 L70.7137932,28.430034 C71.7697932,27.992034 71.8597932,27.884034 71.8597932,26.936034 L71.8597932,23.960034 L66.8917932,23.960034 Z" id="path428" fill="#434343" fill-rule="nonzero"></path>
                    <path d="M80.6857932,24.098034 C80.6557932,22.586034 80.1877932,21.926034 79.1617932,21.926034 C78.5557932,21.926034 77.9977932,22.214034 77.6497932,22.694034 C77.3617932,23.084034 77.2717932,23.372034 77.2117932,24.098034 L80.6857932,24.098034 Z M82.2577932,24.626034 L77.2177932,24.626034 L77.2057932,24.734034 C77.2057932,26.060034 77.4037932,26.756034 77.9317932,27.404034 C78.3997932,27.962034 78.9877932,28.250034 79.7437932,28.250034 C80.3797932,28.250034 80.8897932,28.130034 82.0357932,27.722034 L82.2037932,28.160034 C81.0577932,28.766034 80.1037932,29.036034 79.0477932,29.036034 C77.0377932,29.036034 75.8017932,27.692034 75.8017932,25.520034 C75.8017932,23.072034 77.2477932,21.398034 79.4077932,21.398034 C81.0997932,21.398034 82.2577932,22.574034 82.2577932,24.296034 L82.2577932,24.626034 Z" id="path432" fill="#434343" fill-rule="nonzero"></path>
                    <path d="M87.6877932,25.256034 C86.7997932,25.406034 86.1457932,25.574034 85.7077932,25.742034 C85.1497932,25.952034 84.8317932,26.390034 84.8317932,26.978034 C84.8317932,27.686034 85.3477932,28.172034 86.0857932,28.172034 C86.5537932,28.172034 87.1597932,28.004034 87.6877932,27.734034 L87.6877932,25.256034 Z M87.6877932,24.836034 L87.6877932,22.664034 C87.6877932,22.058034 87.3997932,21.788034 86.7397932,21.788034 C86.1517932,21.788034 85.9537932,21.878034 85.7557932,22.238034 C85.3477932,23.006034 85.1077932,23.234034 84.6697932,23.234034 C84.2617932,23.234034 83.9737932,22.964034 83.9737932,22.556034 C83.9737932,21.830034 85.1077932,21.332034 86.7337932,21.332034 C88.2757932,21.332034 89.0257932,21.920034 89.0257932,23.114034 L89.0257932,26.960034 C89.0257932,27.578034 89.3737932,27.974034 89.9197932,27.974034 C90.0997932,27.974034 90.2377932,27.944034 90.5257932,27.806034 L90.6937932,28.046034 C89.6797932,28.772034 89.1697932,29.030034 88.7137932,29.030034 C88.2337932,29.030034 87.9577932,28.730034 87.8257932,28.046034 C86.6917932,28.772034 85.9837932,29.030034 85.2157932,29.030034 C84.1297932,29.030034 83.3437932,28.262034 83.3437932,27.206034 C83.3437932,26.450034 83.7217932,25.892034 84.4297932,25.592034 C85.1077932,25.304034 85.6957932,25.172034 87.4657932,24.866034 L87.6877932,24.836034 Z" id="path436" fill="#434343" fill-rule="nonzero"></path>
                    <path d="M94.1377932,17.300034 L94.1377932,27.140034 C94.1377932,27.998034 94.3057932,28.196034 95.1637932,28.466034 L95.6497932,28.604034 L95.6497932,28.952034 C94.9537932,28.904034 94.5757932,28.892034 93.4897932,28.892034 C92.1757932,28.892034 91.7857932,28.910034 91.2277932,28.952034 L91.2277932,28.604034 L91.9237932,28.346034 C92.6017932,28.088034 92.7997932,27.818034 92.7997932,27.140034 L92.7997932,19.610034 C92.7997932,18.872034 92.5897932,18.656034 91.7557932,18.494034 L91.1377932,18.374034 L91.1377932,18.104034 L91.2877932,18.074034 L92.6137932,17.756034 C93.2137932,17.618034 93.4717932,17.546034 94.1377932,17.300034" id="path440" fill="#434343" fill-rule="nonzero"></path>
                    <path d="M97.5157932,22.058034 L96.4117932,22.058034 L96.4117932,21.758034 C97.0177932,21.488034 97.4077932,21.230034 97.6957932,20.912034 C97.9357932,20.654034 98.1337932,20.294034 98.4037932,19.646034 L98.4637932,19.496034 L98.8537932,19.496034 L98.8537932,21.476034 L101.463793,21.476034 L101.463793,22.064034 L98.8537932,22.064034 L98.8537932,26.834034 C98.8537932,27.872034 99.2317932,28.376034 100.047793,28.376034 C100.467793,28.376034 100.845793,28.298034 101.463793,28.076034 L101.613793,28.436034 C100.617793,28.844034 99.8197932,29.042034 99.1657932,29.042034 C98.0797932,29.042034 97.5037932,28.436034 97.5037932,27.320034 L97.5157932,22.058034 Z" id="path444" fill="#434343" fill-rule="nonzero"></path>
                    <path d="M105.411793,22.418034 L105.411793,27.128034 C105.411793,27.944034 105.501793,28.094034 106.167793,28.382034 L106.677793,28.610034 L106.677793,28.958034 C106.101793,28.916034 105.633793,28.898034 104.487793,28.898034 C103.509793,28.898034 103.101793,28.916034 102.495793,28.958034 L102.495793,28.610034 L103.203793,28.322034 C103.899793,28.052034 104.061793,27.836034 104.061793,27.206034 L104.061793,19.598034 C104.061793,18.860034 103.863793,18.644034 103.017793,18.482034 L102.399793,18.362034 L102.399793,18.074034 L102.597793,18.026034 C104.013793,17.726034 104.571793,17.576034 105.405793,17.288034 L105.405793,22.028034 C106.419793,21.560034 107.397793,21.332034 108.333793,21.332034 C109.755793,21.332034 110.463793,22.160034 110.463793,23.852034 L110.463793,27.110034 C110.463793,27.590034 110.511793,27.848034 110.643793,27.986034 C110.763793,28.106034 110.931793,28.196034 111.501793,28.424034 L111.951793,28.604034 L111.951793,28.952034 C111.393793,28.910034 110.895793,28.892034 109.881793,28.892034 C108.705793,28.892034 108.147793,28.910034 107.691793,28.952034 L107.691793,28.604034 L108.237793,28.394034 C109.035793,28.064034 109.113793,27.956034 109.113793,27.110034 L109.113793,24.320034 C109.113793,22.736034 108.507793,22.058034 107.133793,22.058034 C106.587793,22.058034 106.059793,22.166034 105.411793,22.418034" id="path448" fill="#434343" fill-rule="nonzero"></path>
                    <polygon id="path450" fill="#FFFFFF" points="0.2977932 0.302034 60.6157932 0.302034 60.6157932 13.376034 0.2977932 13.376034"></polygon>
                    <polygon id="path452" fill="#8B8B8B" points="59.9857932 12.746034 30.4597932 12.746034 30.4597932 0.932034 59.9857932 0.932034"></polygon>
                    <polygon id="path454" fill="#434343" points="30.4597932 12.746034 0.9337932 12.746034 0.9337932 0.932034 30.4597932 0.932034"></polygon>
                    <path d="M0.9337932,5.852034 C6.4417932,7.190034 12.1957932,7.898034 18.1177932,7.898034 C29.2417932,7.898034 39.7777932,5.396034 49.2097932,0.932034 L47.1097932,0.932034 C39.0157932,4.466034 30.0877932,6.434034 20.6917932,6.434034 C13.8097932,6.434034 7.1737932,5.378034 0.9337932,3.428034 L0.9337932,5.852034 Z" id="path458" fill="#FFFFFF" fill-rule="nonzero"></path>
                    <path d="M0.9337932,9.806034 C5.4337932,10.592034 10.0657932,11.012034 14.7937932,11.012034 C28.9237932,11.012034 42.1957932,7.352034 53.7277932,0.938034 L51.7717932,0.938034 C41.2477932,6.404034 29.2957932,9.500034 16.6177932,9.500034 C11.2417932,9.500034 5.9977932,8.936034 0.9337932,7.874034 L0.9337932,9.806034 Z" id="path462" fill="#FFFFFF"></path>
                </g>
            </g>
        </g>
    </g>
</svg>