<?xml version="1.0" encoding="UTF-8"?>
<svg width="106px" height="31px" viewBox="0 0 106 31" version="1.1" xmlns="http://www.w3.org/2000/svg" xmlns:xlink="http://www.w3.org/1999/xlink">
    <title>National Geographic</title>
    <g id="Homepage" stroke="none" stroke-width="1" fill="none" fill-rule="evenodd">
        <g id="1.-10P-WEB-REVAMP_HOMEPAGE_UPDATE-1" transform="translate(-201.000000, -1096.000000)" fill="#434343" fill-rule="nonzero">
            <g id="Group-6" transform="translate(190.000000, 896.000000)">
                <g id="National-Geographic" transform="translate(11.000000, 200.000000)">
                    <path d="M0,30.6486678 L0,0 L21.3867899,0 L21.3867899,30.6486678 L0,30.6486678 Z M18.292022,27.5613752 L18.292022,3.08729264 L3.07981735,3.08729264 L3.07981735,27.5613752 L18.292022,27.5613752 Z" id="Shape"></path>
                    <path d="M35.5973064,13.7470488 L34.274181,13.7470488 C32.5399149,11.2951554 30.8131241,8.85821253 29.0938086,6.09983243 L29.0938086,6.09983243 L29.0938086,13.7470488 L27.5987516,13.7470488 L27.5987516,3.07981735 L28.921877,3.07981735 C30.6561431,5.51676021 32.3829339,7.9387525 34.0872989,10.682182 L34.0872989,10.682182 L34.0872989,3.07981735 L35.5823558,3.07981735 L35.5823558,13.7470488 L35.5973064,13.7470488 Z" id="Path"></path>
                    <path d="M39.0658386,9.53098817 C39.4919298,8.1331099 39.918021,6.83241034 40.2992606,5.18784768 L40.2992606,5.18784768 C40.7253518,6.83241034 41.1065913,8.1331099 41.5027814,9.53098817 L39.0658386,9.53098817 Z M39.7685153,3.08729264 L36.0757246,13.7470488 L37.660485,13.7470488 L38.5874203,10.839163 L41.8017928,10.839163 L42.6390247,13.7470488 L44.6797775,13.7470488 L41.308424,3.07981735 L39.813367,3.07981735 L39.7685153,3.08729264 Z" id="Shape"></path>
                    <polygon id="Path" points="46.4140436 13.7470488 46.4140436 4.51507204 43.6108117 4.51507204 43.6108117 3.08729264 51.0262943 3.08729264 51.0262943 4.51507204 48.2230625 4.51507204 48.2230625 13.7470488 46.3916177 13.7470488"></polygon>
                    <polygon id="Path" points="51.6467429 13.7470488 51.6467429 3.07981735 53.4632372 3.07981735 53.4632372 13.7470488"></polygon>
                    <path d="M59.0921266,12.386547 C57.185929,12.386547 56.5131534,10.2859919 56.5131534,8.24523918 C56.5131534,6.20448642 57.2606819,4.40294277 59.0921266,4.40294277 C60.9235714,4.40294277 61.6710999,6.27923926 61.6710999,8.24523918 C61.6710999,10.2112391 60.9983243,12.386547 59.0921266,12.386547 Z M59.0921266,13.8816039 C61.8804079,13.8816039 63.614674,11.3998094 63.614674,8.21533804 C63.614674,5.2252241 61.6935258,2.84808352 59.0921266,2.84808352 C56.4907275,2.84808352 54.5695793,5.2252241 54.5695793,8.21533804 C54.5695793,11.4446611 56.3038454,13.9339309 59.0921266,13.9339309 L59.0921266,13.8816039 Z" id="Shape"></path>
                    <path d="M72.7046203,13.7470488 L71.3814949,13.7470488 C69.6472288,11.2951554 67.920438,8.85821253 66.2011225,6.09983243 L66.2011225,6.09983243 L66.2011225,13.7470488 L64.7060656,13.7470488 L64.7060656,3.07981735 L66.029191,3.07981735 C67.7634571,5.51676021 69.4902479,7.9387525 71.1946128,10.682182 L71.1946128,10.682182 L71.1946128,3.07981735 L72.6896698,3.07981735 L72.6896698,13.7470488 L72.7046203,13.7470488 Z" id="Path"></path>
                    <path d="M76.1955784,9.53098817 C76.6216696,8.1331099 77.0477608,6.83241034 77.4290004,5.18784768 L77.4290004,5.18784768 C77.8550916,6.83241034 78.2363311,8.1331099 78.6325212,9.53098817 L76.1656772,9.53098817 L76.1955784,9.53098817 Z M76.8982551,3.08729264 L73.2129397,13.7545241 L74.7977001,13.7545241 L75.7246354,10.8466383 L78.9390079,10.8466383 L79.7762398,13.7545241 L81.8169926,13.7545241 L78.4232132,3.08729264 L76.9281563,3.08729264 L76.8982551,3.08729264 Z" id="Shape"></path>
                    <polygon id="Path" points="82.3477378 3.07981735 84.164232 3.07981735 84.164232 12.3117941 87.7747946 12.3117941 87.7747946 13.7470488 82.3477378 13.7470488"></polygon>
                    <g id="Group" transform="translate(26.163497, 16.445627)">
                        <path d="M8.30504145,6.22691227 L8.30504145,10.629855 C7.3431008,11.0359693 6.31383801,11.2590607 5.27007581,11.2876801 C2.13045618,11.2876801 0.149505697,8.85073725 0.149505697,5.71111762 C0.149505697,2.80323181 2.13045618,0.254159684 5.32987809,0.254159684 C6.25805648,0.257864909 7.1630013,0.544735024 7.92380193,1.07644102 L7.33325443,2.33976415 C6.74263106,1.98661242 6.07020834,1.7933875 5.38220508,1.77911779 C3.43115574,1.77911779 2.10803032,3.31902647 2.10803032,5.74101876 C2.10803032,8.16301104 3.60308729,9.762722 5.20279825,9.762722 C5.64390049,9.78168937 6.08289428,9.69183684 6.48107195,9.50108703 L6.48107195,6.22691227 L8.31251674,6.22691227 L8.30504145,6.22691227 Z" id="Path"></path>
                        <polygon id="Path" points="14.8459157 1.86882121 11.7959995 1.86882121 11.7959995 4.79165758 14.7861134 4.79165758 14.7861134 6.22691227 11.7959995 6.22691227 11.7959995 9.67301858 15.3916115 9.67301858 15.3916115 11.1082733 9.96455469 11.1082733 9.96455469 0.426091236 14.8384404 0.426091236 14.8384404 1.86134592"></polygon>
                        <path d="M20.4822805,9.762722 C18.5760828,9.762722 17.9107825,7.66216696 17.9107825,5.6214142 C17.9107825,3.58066144 18.658311,1.77911779 20.4822805,1.77911779 C22.30625,1.77911779 23.0612537,3.65541429 23.0612537,5.6214142 C23.0612537,7.58741411 22.3884781,9.762722 20.4822805,9.762722 Z M20.4822805,11.257779 C23.2705617,11.257779 25.0048278,8.7759844 25.0048278,5.59151306 C25.0048278,2.60139912 23.0836796,0.224258545 20.4822805,0.224258545 C17.8808813,0.224258545 15.9597331,2.60139912 15.9597331,5.59151306 C15.9597331,8.80588554 17.6939992,11.2876801 20.4822805,11.2876801 L20.4822805,11.257779 Z" id="Shape"></path>
                        <path d="M33.7882875,6.22691227 L33.7882875,10.629855 C32.8262938,11.0358019 31.7970629,11.2588864 30.7533218,11.2876801 C27.6137022,11.2876801 25.6327517,8.85073725 25.6327517,5.71111762 C25.6327517,2.80323181 27.6137022,0.254159684 30.8131241,0.254159684 C31.7413771,0.257388666 32.6464607,0.544302784 33.4070479,1.07644102 L32.8165004,2.33976415 C32.2258771,1.98661242 31.5534544,1.7933875 30.8654511,1.77911779 C28.9144018,1.77911779 27.5912763,3.31902647 27.5912763,5.74101876 C27.5912763,8.16301104 29.0863333,9.762722 30.6860443,9.762722 C31.1271465,9.78168937 31.5661403,9.69183684 31.964318,9.50108703 L31.964318,6.22691227 L33.7957628,6.22691227 L33.7882875,6.22691227 Z" id="Path"></path>
                        <path d="M37.2941961,1.86882121 L38.1015268,1.86882121 C38.5675874,1.82267307 39.0294718,1.99009054 39.3577204,2.32414884 C39.685969,2.65820714 39.8452581,3.12295745 39.7909412,3.58813672 C39.8559101,4.10142622 39.7069042,4.61884301 39.3788918,5.01896162 C39.0508794,5.41908023 38.5727376,5.66667538 38.0566751,5.70364233 L37.3091466,5.74849404 L37.3091466,1.86134592 L37.2941961,1.86882121 Z M41.9288727,11.100798 L39.813367,6.68290465 C40.9631595,6.04459057 41.6716347,4.82842248 41.6597624,3.51338387 C41.6597624,1.44272997 40.3964393,0.433566521 38.3556865,0.433566521 L35.507603,0.433566521 L35.507603,11.100798 L37.3390478,11.100798 L37.3390478,7.07909474 L38.1613291,7.07909474 L39.8806446,11.100798 L41.9662491,11.100798 L41.9288727,11.100798 Z" id="Shape"></path>
                        <path d="M44.9414124,6.88473734 C45.3675037,5.48685907 45.7935949,4.18615951 46.1748344,2.54159684 L46.1748344,2.54159684 C46.6009257,4.18615951 46.9821652,5.47938379 47.3783553,6.88473734 L44.9115113,6.88473734 L44.9414124,6.88473734 Z M45.6440892,0.426091236 L41.9587738,11.0933227 L43.5510095,11.0933227 L44.4779448,8.1854369 L47.6923173,8.1854369 L48.5295492,11.0933227 L50.5703019,11.0933227 L47.1690473,0.426091236 L45.6739904,0.426091236 L45.6440892,0.426091236 Z" id="Shape"></path>
                        <path d="M54.0164082,0.426091236 L51.1683247,0.426091236 L51.1683247,11.0933227 L52.9997695,11.0933227 L52.9997695,7.07909474 L53.8220508,7.07909474 C54.7642365,7.08542349 55.6688019,6.70981817 56.329385,6.03796713 C56.9899681,5.36611609 57.3502216,4.45532774 57.3279594,3.51338387 C57.2980583,1.44272997 56.0347351,0.426091236 54.0164082,0.426091236 Z M53.7547733,5.69616705 L53.0072448,5.74101876 L53.0072448,1.86134592 L53.8295261,1.86134592 C54.2931177,1.82003124 54.7506817,1.98958216 55.0754118,2.3230104 C55.4001419,2.65643864 55.5575416,3.11832361 55.5039899,3.58066144 C55.573599,4.10242104 55.4217272,4.62950628 55.0851646,5.03423349 C54.7486019,5.43896069 54.2580518,5.6844082 53.7323474,5.71111762 L53.7547733,5.69616705 Z" id="Shape"></path>
                        <polygon id="Path" points="65.7750313 11.100798 63.9435865 11.100798 63.9435865 5.9652773 60.1461418 5.9652773 60.1461418 11.100798 58.3296476 11.100798 58.3296476 0.426091236 60.1461418 0.426091236 60.1461418 4.52254733 63.9435865 4.52254733 63.9435865 0.455992375 65.7750313 0.455992375 65.7750313 11.0933227"></polygon>
                        <polygon id="Path" points="67.5242479 11.100798 67.5242479 0.426091236 69.3407422 0.426091236 69.3407422 11.0933227 67.5242479 11.0933227"></polygon>
                        <path d="M77.5710308,2.36966529 C77.0072894,2.01365955 76.3607526,1.81016788 75.6947343,1.77911779 C73.8333883,1.77911779 72.4803618,3.31902647 72.4803618,5.74101876 C72.4803618,8.16301104 73.9754188,9.762722 75.739586,9.762722 C76.3877204,9.76078017 77.0222867,9.57688544 77.5710308,9.23197677 L78.0718748,10.5551022 C77.353821,11.0214946 76.5207656,11.2802074 75.6648331,11.3026307 C72.5252135,11.3026307 70.544263,8.86568782 70.544263,5.72606819 C70.544263,2.81818238 72.5102629,0.269110254 75.6947343,0.269110254 C76.5750389,0.29652578 77.4277905,0.582509527 78.1466277,1.09139159 L77.5710308,2.36966529 Z" id="Path"></path>
                    </g>
                </g>
            </g>
        </g>
    </g>
</svg>