<?xml version="1.0" encoding="UTF-8"?>
<svg width="110px" height="27px" viewBox="0 0 110 27" version="1.1" xmlns="http://www.w3.org/2000/svg" xmlns:xlink="http://www.w3.org/1999/xlink">
    <title>PayPal-White</title>
    <g id="Homepage" stroke="none" stroke-width="1" fill="none" fill-rule="evenodd">
        <g id="1.-10P-WEB-REVAMP_HOMEPAGE_UPDATE-1" transform="translate(-439.000000, -896.000000)" fill-rule="nonzero">
            <g id="Group-6" transform="translate(190.000000, 896.000000)">
                <g id="PayPal-White" transform="translate(249.000000, 0.000000)">
                    <g id="Group" transform="translate(31.860000, 5.670000)" fill="#434343">
                        <path d="M52.2801,0.2592 L46.2726,0.2592 C45.8622,0.2592 45.5112,0.5589 45.4491,0.9639 L43.0191,16.3674 C42.9705,16.6725 43.2054,16.9452 43.5132,16.9452 L46.5966,16.9452 C46.8828,16.9452 47.1285,16.7373 47.1744,16.4511 L47.8629,12.0852 C47.9277,11.6802 48.276,11.3805 48.6864,11.3805 L50.5872,11.3805 C54.5454,11.3805 56.8269,9.4662 57.4236,5.67 C57.6909,4.0095 57.4344,2.7054 56.6568,1.7928 C55.8036,0.7884 54.2889,0.2592 52.2801,0.2592 Z M52.974,5.8833 C52.6446,8.0406 50.9976,8.0406 49.4046,8.0406 L48.4974,8.0406 L49.1319,4.0149 C49.1697,3.7719 49.3803,3.591 49.626,3.591 L50.0418,3.591 C51.1272,3.591 52.1505,3.591 52.6797,4.2093 C52.9956,4.5792 53.0928,5.1273 52.974,5.8833 Z" id="Shape"></path>
                        <path d="M9.4311,0.2592 L3.4236,0.2592 C3.0132,0.2592 2.6622,0.5589 2.6001,0.9639 L0.1701,16.3674 C0.1215,16.6725 0.3564,16.9452 0.6642,16.9452 L3.5316,16.9452 C3.942,16.9452 4.293,16.6455 4.3551,16.2405 L5.0112,12.0852 C5.076,11.6802 5.4243,11.3805 5.8347,11.3805 L7.7355,11.3805 C11.6937,11.3805 13.9752,9.4662 14.5719,5.67 C14.8392,4.0095 14.5827,2.7054 13.8051,1.7928 C12.9546,0.7884 11.4426,0.2592 9.4311,0.2592 Z M10.125,5.8833 C9.7956,8.0406 8.1486,8.0406 6.5556,8.0406 L5.6484,8.0406 L6.2829,4.0149 C6.3207,3.7719 6.5313,3.591 6.777,3.591 L7.1928,3.591 C8.2782,3.591 9.3015,3.591 9.828,4.2093 C10.1493,4.5792 10.2438,5.1273 10.125,5.8833 Z" id="Shape"></path>
                        <path d="M27.3888,5.8158 L24.5133,5.8158 C24.2676,5.8158 24.057,5.994 24.0192,6.2397 L23.8923,7.0443 L23.6898,6.75 C23.0661,5.8455 21.6783,5.5431 20.2932,5.5431 C17.1153,5.5431 14.3991,7.9515 13.8726,11.3292 C13.5972,13.014 13.9887,14.6259 14.9445,15.7491 C15.822,16.7805 17.0748,17.2125 18.5679,17.2125 C21.1302,17.2125 22.5504,15.5655 22.5504,15.5655 L22.4208,16.3647 C22.3722,16.6698 22.6071,16.9452 22.9149,16.9452 L25.5042,16.9452 C25.9146,16.9452 26.2656,16.6455 26.3277,16.2405 L27.8829,6.3936 C27.9288,6.0885 27.6939,5.8158 27.3888,5.8158 Z M23.3793,11.4129 C23.1012,13.0572 21.7971,14.1588 20.1312,14.1588 C19.2969,14.1588 18.63,13.8915 18.2007,13.3812 C17.7741,12.8763 17.6148,12.1608 17.7498,11.3616 C18.009,9.7335 19.3347,8.5941 20.9736,8.5941 C21.7917,8.5941 22.4532,8.8641 22.8906,9.3771 C23.3307,9.8955 23.5035,10.6191 23.3793,11.4129 Z" id="Shape"></path>
                        <path d="M70.2351,5.8158 L67.3596,5.8158 C67.1139,5.8158 66.9033,5.994 66.8655,6.2397 L66.7386,7.0443 L66.5361,6.75 C65.9124,5.8455 64.5246,5.5431 63.1395,5.5431 C59.9616,5.5431 57.2454,7.9515 56.7189,11.3292 C56.4435,13.014 56.835,14.6259 57.7908,15.7491 C58.6683,16.7805 59.9211,17.2125 61.4142,17.2125 C63.9765,17.2125 65.3967,15.5655 65.3967,15.5655 L65.2671,16.3647 C65.2185,16.6698 65.4534,16.9452 65.7612,16.9452 L68.3505,16.9452 C68.7609,16.9452 69.1119,16.6455 69.174,16.2405 L70.7292,6.3936 C70.7778,6.0885 70.5429,5.8158 70.2351,5.8158 Z M66.2256,11.4129 C65.9475,13.0572 64.6434,14.1588 62.9775,14.1588 C62.1432,14.1588 61.4763,13.8915 61.047,13.3812 C60.6204,12.8763 60.4611,12.1608 60.5961,11.3616 C60.8553,9.7335 62.181,8.5941 63.8199,8.5941 C64.638,8.5941 65.2995,8.8641 65.7369,9.3771 C66.1797,9.8955 66.3525,10.6191 66.2256,11.4129 Z" id="Shape"></path>
                        <path d="M42.7086,5.8158 L39.8169,5.8158 C39.5415,5.8158 39.2823,5.9535 39.1257,6.183 L35.1378,12.0582 L33.4476,6.4125 C33.3423,6.0588 33.0156,5.8158 32.6484,5.8158 L29.8053,5.8158 C29.4624,5.8158 29.2194,6.1533 29.3301,6.4773 L32.5134,15.822 L29.5191,20.0475 C29.2842,20.3796 29.5218,20.8386 29.9268,20.8386 L32.8158,20.8386 C33.0885,20.8386 33.345,20.7036 33.5016,20.4795 L43.1163,6.6015 C43.3512,6.2694 43.1136,5.8158 42.7086,5.8158 Z" id="Path"></path>
                        <path d="M73.6263,0.6804 L71.1612,16.3674 C71.1126,16.6725 71.3475,16.9452 71.6553,16.9452 L74.1339,16.9452 C74.5443,16.9452 74.8953,16.6455 74.9574,16.2405 L77.3874,0.837 C77.436,0.5319 77.2011,0.2592 76.8933,0.2592 L74.1177,0.2592 C73.8747,0.2592 73.6641,0.4374 73.6263,0.6804 Z" id="Path"></path>
                    </g>
                    <g id="Group">
                        <path d="M20.2446,6.7338 C20.5686,4.671 20.2419,3.2697 19.1268,1.998 C17.8983,0.5994 15.6816,0 12.8439,0 L4.6035,0 C4.023,0 3.5289,0.4212 3.4398,0.9963 L0.0081,22.7502 C-0.0594,23.1795 0.2727,23.5683 0.7074,23.5683 L5.7942,23.5683 L5.4432,25.7958 C5.3838,26.1711 5.6754,26.5113 6.0534,26.5113 L10.341,26.5113 C10.8486,26.5113 11.2806,26.1414 11.3589,25.6419 L11.4021,25.4232 L12.2094,20.3013 L12.2607,20.0178 C12.339,19.5156 12.771,19.1484 13.2786,19.1484 L13.9212,19.1484 C18.0738,19.1484 21.3273,17.4609 22.2777,12.582 C22.6746,10.5435 22.4694,8.8398 21.4191,7.6437 C21.1005,7.2792 20.7063,6.9795 20.2446,6.7338 L20.2446,6.7338" id="Path" fill="#434343" opacity="0.5"></path>
                        <path d="M20.2446,6.7338 C20.5686,4.671 20.2419,3.2697 19.1268,1.998 C17.8983,0.5994 15.6816,0 12.8439,0 L4.6035,0 C4.023,0 3.5289,0.4212 3.4398,0.9963 L0.0081,22.7502 C-0.0594,23.1795 0.2727,23.5683 0.7074,23.5683 L5.7942,23.5683 L7.0713,15.4656 L7.0308,15.7194 C7.1199,15.147 7.6113,14.7231 8.1918,14.7231 L10.6083,14.7231 C15.3549,14.7231 19.0728,12.7953 20.1609,7.2171 C20.1933,7.0524 20.2203,6.8931 20.2446,6.7338" id="Path" fill="#000000"></path>
                        <path d="M8.4429,6.7635 C8.4969,6.4179 8.7183,6.1371 9.0153,5.994 C9.1503,5.9292 9.3015,5.8941 9.4608,5.8941 L15.9192,5.8941 C16.6833,5.8941 17.3988,5.9454 18.0495,6.048 C18.2358,6.0777 18.4167,6.1128 18.5922,6.1506 C18.7677,6.1884 18.9405,6.2343 19.1052,6.2829 C19.1889,6.3072 19.2699,6.3315 19.3482,6.3585 C19.6695,6.4638 19.9665,6.5907 20.2419,6.7365 C20.5659,4.6737 20.2392,3.2724 19.1241,2.0007 C17.8983,0.5994 15.6816,0 12.8439,0 L4.6035,0 C4.023,0 3.5289,0.4212 3.4398,0.9963 L0.0081,22.7502 C-0.0594,23.1795 0.2727,23.5683 0.7074,23.5683 L5.7942,23.5683 L7.0713,15.4656 L8.4429,6.7635 Z" id="Path" fill="#434343"></path>
                    </g>
                </g>
            </g>
        </g>
    </g>
</svg>