<?xml version="1.0" encoding="UTF-8"?>
<svg width="117px" height="49px" viewBox="0 0 117 49" version="1.1" xmlns="http://www.w3.org/2000/svg" xmlns:xlink="http://www.w3.org/1999/xlink">
    <title>Vertical_Sabaeus_RGB</title>
    <g id="Homepage" stroke="none" stroke-width="1" fill="none" fill-rule="evenodd">
        <g id="1.-10P-WEB-REVAMP_HOMEPAGE_UPDATE-1" transform="translate(-885.000000, -978.000000)" fill="#434343" fill-rule="nonzero">
            <g id="Group-6" transform="translate(190.000000, 896.000000)">
                <g id="Vertical_Sabaeus_RGB" transform="translate(695.000000, 82.000000)">
                    <path d="M105.727405,35.9993 L108.120387,41.9354502 L110.528307,35.9993 L112.604615,35.9993 L107.367539,48.9112481 L105.291231,48.9112481 L107.080739,44.5017073 L103.651097,35.9993 L105.727405,35.9993 Z M45.5622676,35.9993 L47.9552501,41.9354502 L50.3631701,35.9993 L52.4394783,35.9993 L47.1994142,48.9112481 L45.123106,48.9112481 L46.9126148,44.5017073 L43.4859594,35.9993 L45.5622676,35.9993 Z M71.3178592,35.8305627 C73.834801,35.8216757 75.8998146,37.8212178 75.9719668,40.337141 L75.9719668,40.3700034 C75.9675276,41.5935434 75.4704882,42.763732 74.593031,43.6164563 C73.774071,44.4123323 72.6881496,44.8690526 71.5525199,44.9015841 L71.308489,44.9020315 C70.0956899,44.9326431 68.9219265,44.4721738 68.0534543,43.6250759 C67.1849821,42.777978 66.6954123,41.6160512 66.6957984,40.4028659 L66.6957984,40.3700034 C66.750123,37.8536322 68.8009175,35.8395091 71.3178592,35.8305627 Z M39.1899434,35.8200504 C41.9593501,35.8200504 43.3724347,37.9949459 43.3724347,40.4984657 C43.3724347,40.6807028 43.3545097,40.8599524 43.3395722,41.0601145 L36.9463356,41.0601145 C37.1614351,42.4761865 38.165233,43.2678724 39.4498553,43.2678724 C40.3475534,43.2717782 41.2045658,42.8937804 41.8069879,42.2282246 L42.9780855,43.2678724 C42.1124528,44.3381732 40.7958583,44.9417505 39.4199804,44.899044 C36.8835982,44.899044 34.9387397,43.0706978 34.9387397,40.3849409 L34.9387397,40.3520785 C34.9387397,37.8634961 36.7013611,35.8200504 39.1899434,35.8200504 Z M99.3550806,35.8200504 C102.124487,35.8200504 103.537572,37.9949459 103.537572,40.4984657 C103.537572,40.6807028 103.519647,40.8599524 103.504709,41.0601145 L97.1114727,41.0601145 C97.3265723,42.4761865 98.3303702,43.2678724 99.6149925,43.2678724 C100.51277,43.2721577 101.36993,42.8940946 101.972125,42.2282246 L103.143223,43.2678724 C102.27759,44.3381732 100.960995,44.9417505 99.5851176,44.899044 C97.0487354,44.899044 95.1038769,43.0706978 95.1038769,40.3849409 L95.1038769,40.3520785 C95.1038769,37.8634961 96.8664983,35.8200504 99.3550806,35.8200504 Z M12.257687,36.0022875 L12.257687,40.9465897 C12.257687,42.2969369 12.9328606,43.0706978 14.1188956,43.0706978 C15.3049306,43.0706978 16.0786915,42.2640745 16.0786915,40.9137273 L16.0786915,36.0022875 L18.0713499,36.0022875 L18.0713499,44.7018694 L16.081679,44.7018694 L16.081679,43.8056213 C15.3818617,44.5528614 14.3848127,44.9483941 13.3630597,44.8841065 C11.4002763,44.8841065 10.2650286,43.5666218 10.2650286,41.5381135 L10.2650286,36.0022875 L12.257687,36.0022875 Z M4.39759084,32.9998563 C5.91980774,32.9694058 7.40292266,33.4831992 8.58008213,34.4487908 L7.4926344,35.9813751 C6.45597405,35.2076142 5.41632622,34.7863776 4.36174092,34.7863776 C3.1667434,34.7863776 2.48260733,35.3838763 2.48260733,36.1546497 L2.48260733,36.1875121 C2.48260733,37.0837603 3.01139373,37.4721345 5.21915163,38.0009209 C7.66292154,38.6043946 8.94754387,39.4797303 8.94754387,41.3917263 L8.94754387,41.4245887 C8.94754387,43.5815592 7.2506474,44.8691691 4.82778995,44.8691691 C3.04384423,44.8814675 1.32051375,44.2224216 2.23820962e-13,43.0228979 L1.21889746,41.5739634 C2.32427016,42.5299614 3.42665536,43.0677103 4.86065238,43.0677103 C6.11241227,43.0677103 6.90409812,42.491124 6.90409812,41.6187758 L6.90409812,41.5859134 C6.90409812,40.7613651 6.44103659,40.3162285 4.29900355,39.8232921 C1.84328366,39.2257933 0.460074042,38.5058073 0.460074042,36.3787117 L0.460074042,36.3458493 C0.460074042,34.3681284 2.10917061,32.9998563 4.39759084,32.9998563 Z M28.1362164,36.0022875 L30.475424,42.0579374 L32.8474941,36.0022875 L34.9387397,36.0022875 L31.3537472,44.7675943 L29.5612509,44.7675943 L25.9941834,36.0022875 L28.1362164,36.0022875 Z M81.9977417,35.8200504 C83.9545501,35.8349879 85.0927853,37.1375352 85.0927853,39.1660434 L85.0927853,44.7018694 L83.1001269,44.7018694 L83.1001269,39.7605547 C83.1001269,38.4102075 82.4249533,37.6364466 81.2389183,37.6364466 C80.0528833,37.6364466 79.2791224,38.4430699 79.2791224,39.7934171 L79.2791224,44.7048569 L77.286464,44.7048569 L77.286464,36.0022875 L79.2791224,36.0022875 L79.2791224,36.8985357 C79.9789397,36.1512955 80.9759887,35.7557628 81.9977417,35.8200504 Z M89.1169394,32.6742194 L89.1169394,39.859142 L92.7258319,36.0022875 L95.1486893,36.0022875 L91.7011215,39.5454551 L95.286114,44.7048569 L92.9797689,44.7048569 L90.3597368,40.9465897 L89.1408393,42.2162746 L89.1408393,44.7048569 L87.148181,44.7048569 L87.124281,32.6742194 L89.1169394,32.6742194 Z M56.0872082,33.1671559 L59.5975134,39.0525187 L63.1078186,33.1671559 L65.2677766,33.1671559 L65.2677766,44.7018694 L63.2422558,44.7018694 L63.2422558,36.4324866 L59.6005009,42.2999244 L59.534776,42.2999244 L55.922896,36.4623616 L55.922896,44.7018694 L53.9302377,44.7018694 L53.9302377,33.1671559 L56.0872082,33.1671559 Z M25.2801723,35.8349879 L25.2801723,37.6035842 L25.1636601,37.6035842 C23.4159762,37.6035842 22.1970788,38.7716943 22.1970788,41.3887388 L22.1970788,44.7018694 L20.2074079,44.7018694 L20.2074079,36.0022875 L22.2000663,36.0022875 L22.2000663,37.451222 C22.7437901,36.1486747 23.747588,35.769263 25.2801723,35.8349879 Z M71.308489,37.5677343 C69.7430422,37.5677343 68.6974194,38.8224816 68.6974194,40.337141 L68.6974194,40.3700034 C68.6974194,41.8876503 69.8027921,43.1722726 71.3503139,43.1722726 C72.9575856,43.1692851 73.9793084,41.9025877 73.9793084,40.4028659 L73.9793084,40.3700034 C73.9793084,38.8374191 72.8739357,37.5677343 71.308489,37.5677343 Z M99.3520931,37.451222 C98.1331956,37.451222 97.2757849,38.389295 97.0935478,39.7426297 L101.559851,39.7426297 C101.428401,38.4580074 100.663603,37.451222 99.3520931,37.451222 Z M39.1750059,37.451222 C37.9561084,37.451222 37.0837603,38.389295 36.9164606,39.7426297 L41.3827638,39.7426297 C41.2513141,38.4580074 40.4865157,37.451222 39.1750059,37.451222 Z M114.812373,35.9276002 C115.058304,35.9288859 115.299878,35.9926203 115.514434,36.1128248 C115.742335,36.2316134 115.929581,36.4157388 116.052183,36.6416112 C116.308514,37.08311 116.308514,37.6281344 116.052183,38.0696332 C115.929665,38.2932622 115.746332,38.477631 115.523397,38.6014071 C115.306626,38.7245097 115.06166,38.7893536 114.812373,38.7896192 C114.562249,38.7885287 114.316523,38.7237557 114.098362,38.6014071 C113.874325,38.4780809 113.689915,38.2936705 113.566588,38.0696332 C113.444359,37.8535899 113.379559,37.6098175 113.378376,37.3615972 C113.378293,37.1095951 113.445319,36.8621163 113.572563,36.6445987 C113.695092,36.4196992 113.881063,36.2358058 114.107325,36.1158123 C114.323011,35.995727 114.565515,35.9320182 114.812373,35.9305877 L114.812373,35.9276002 Z M114.817,36.1632194 C114.612403,36.1623502 114.406653,36.2148164 114.223837,36.3159744 C114.03427,36.4171743 113.877709,36.5706252 113.772726,36.7581234 C113.670947,36.94097 113.616517,37.1463685 113.614384,37.3556222 C113.613852,37.5652281 113.668458,37.7712879 113.772726,37.953121 C113.876097,38.1397915 114.0305,38.2931576 114.217862,38.39527 C114.587596,38.6087358 115.043126,38.6087358 115.41286,38.39527 C115.59922,38.2928381 115.752577,38.1394809 115.855009,37.953121 C116.068474,37.5833874 116.068474,37.127857 115.855009,36.7581234 C115.75315,36.5703145 115.598363,36.4165662 115.409872,36.3159744 C115.263423,36.2355436 115.102558,36.1859058 114.937138,36.1695641 L114.817,36.1632194 Z M114.928886,36.5549739 C115.098454,36.5457229 115.264834,36.6036876 115.391947,36.7162985 C115.457997,36.7864214 115.501109,36.8740787 115.516889,36.9676861 L115.523397,37.0628478 C115.530043,37.2945123 115.370539,37.497974 115.143985,37.5468218 L115.577172,38.1443206 L115.242572,38.1443206 L114.848223,37.5856592 L114.495699,37.5856592 L114.495699,38.1443206 L114.214875,38.1443206 L114.214875,36.5549739 L114.928886,36.5549739 Z M114.904986,36.8148858 L114.495699,36.8148858 L114.495699,37.3526347 L114.907973,37.3496472 C115.079541,37.3496472 115.198431,37.2728259 115.228898,37.1474035 L115.236597,37.0807728 C115.236597,36.9104856 115.11411,36.8148858 114.904986,36.8148858 Z M60.9657855,0.00896248133 L61.2645349,0.776748382 C59.3376014,2.13605805 59.274864,3.6507174 59.2360266,4.95923967 L59.2360266,4.95923967 L59.4730345,4.99033174 C59.6270564,5.01201873 59.7757672,5.03591868 59.9351002,5.06380195 C65.2792326,6.02855723 69.568175,10.0244082 70.9081648,15.2870057 C71.2600007,15.1993597 71.6210781,15.1542251 71.9836626,15.1525684 C73.7861614,15.1680777 75.4051619,16.2585972 76.0969055,17.9231492 C76.7886491,19.5877012 76.4194032,21.504483 75.158797,22.7929374 C73.8981908,24.0813917 71.9899334,24.4924257 70.3106661,23.8372129 C69.9269628,24.7952274 69.4369333,25.7071433 68.8497816,26.5558322 L68.8497816,26.5558322 L65.1184019,24.0403624 L65.1512643,23.9985375 C66.1371373,22.7288527 66.740611,20.8616691 66.8421858,19.0034479 C66.9557106,16.9540272 66.4538116,14.9135689 65.1452893,13.7185714 C62.4565449,11.4211887 59.516851,12.469799 57.6765549,14.6715819 L57.6765549,14.6715819 L57.1806309,14.6715819 C55.3492972,12.4668115 52.4006409,11.4211887 49.7118965,13.7185714 C48.4033742,14.9165564 47.9044627,16.9540272 48.015,19.0034479 C48.1135873,20.8616691 48.7200485,22.7288527 49.7059215,23.9985375 L49.7059215,23.9985375 L49.7387839,24.0403624 L46.0074042,26.5558322 C45.4202525,25.7071433 44.9302229,24.7952274 44.5465197,23.8372129 C42.7394954,24.5494754 40.6793823,24.0208415 39.4385835,22.5264945 C38.1977846,21.0321475 38.0568498,18.9099653 39.0891433,17.2646615 C40.1214369,15.6193576 42.093553,14.822942 43.9788959,15.2899932 C45.3183288,10.0253782 49.6088617,6.02796558 54.954948,5.06380195 L54.954948,5.06380195 L54.9193357,4.85989906 C54.7496029,4.05231873 54.2555458,3.34581925 53.5478385,2.90981894 L53.5478385,2.90981894 L53.9780376,2.21373289 C54.8444108,2.41986996 56.5950821,3.51329268 56.7832942,4.38862836 C57.2134933,1.17408505 60.9657855,0.00896248133 60.9657855,0.00896248133 L60.9657855,0.00896248133 Z M42.8257233,18.3222993 C42.0931468,18.3222993 41.4992761,18.91617 41.4992761,19.6487466 C41.4992761,20.3813231 42.0931468,20.9752119 42.8257233,20.9752119 C43.1511907,20.9768906 43.4659221,20.8588664 43.7100215,20.643582 C43.6269821,19.9494069 43.5801147,19.2513816 43.5696093,18.5523364 C43.3499247,18.4036292 43.0910034,18.3235612 42.8257233,18.3222993 Z M72.6850451,18.4670621 C72.2504428,18.2362776 71.7236802,18.265671 71.3174515,18.5433739 C71.3069461,19.2424191 71.2600787,19.9404444 71.1770393,20.6346195 C71.4228751,20.8559203 71.7425239,20.9773868 72.0732874,20.9751938 C72.4242933,20.9728248 72.7599809,20.8311122 73.0064987,20.5812328 C73.2530164,20.3313534 73.3901697,19.9937774 73.3877847,19.6427716 C73.3903249,19.1507003 73.1196473,18.6978466 72.6850451,18.4670621 Z" id="Combined-Shape"></path>
                </g>
            </g>
        </g>
    </g>
</svg>