<?xml version="1.0" encoding="UTF-8"?>
<svg width="67px" height="24px" viewBox="0 0 67 24" version="1.1" xmlns="http://www.w3.org/2000/svg" xmlns:xlink="http://www.w3.org/1999/xlink">
    <title>Uber_logo_2018-2</title>
    <g id="Homepage" stroke="none" stroke-width="1" fill="none" fill-rule="evenodd">
        <g id="1.-10P-WEB-REVAMP_HOMEPAGE_UPDATE-1" transform="translate(-910.000000, -897.000000)" fill="#434343" fill-rule="nonzero">
            <g id="Group-6" transform="translate(190.000000, 896.000000)">
                <g id="Uber_logo_2018-2" transform="translate(720.000000, 1.000000)">
                    <path d="M3.839616,16.546248 C4.12164,17.294688 4.512096,17.934624 5.011056,18.466056 C5.510016,18.99756 6.101136,19.404288 6.784416,19.686312 C7.467768,19.968336 8.210736,20.109312 9.013392,20.109312 C9.794376,20.109312 10.526472,19.962864 11.209824,19.669968 C11.893176,19.377072 12.489696,18.964944 12.999456,18.433512 C13.509216,17.902008 13.905144,17.267544 14.187168,16.529976 C14.469192,15.792408 14.610168,14.968152 14.610168,14.056992 L14.610168,0 L18.026784,0 L18.026784,22.777488 L14.642712,22.777488 L14.642712,20.662416 C13.883472,21.465 12.988584,22.083264 11.958192,22.517208 C10.927728,22.951008 9.816048,23.167944 8.622936,23.167944 C7.40808,23.167944 6.274656,22.956408 5.22252,22.533408 C4.170456,22.110408 3.259296,21.508488 2.489256,20.727504 C1.719216,19.94652 1.111752,19.008432 0.66708,17.91288 C0.222336,16.8174 0,15.597216 0,14.252184 L0,0 L3.416616,0 L3.416616,14.056992 C3.416616,14.968152 3.557592,15.797808 3.839616,16.546248 Z" id="Path"></path>
                    <path d="M23.916096,0 L23.916096,8.297496 C24.675336,7.538256 25.553952,6.936336 26.5518,6.491592 C27.549648,6.046848 28.634328,5.824512 29.805696,5.824512 C31.020552,5.824512 32.159304,6.052248 33.222312,6.507792 C34.285248,6.963336 35.207136,7.5816 35.98812,8.362584 C36.769104,9.143568 37.387368,10.065456 37.842912,11.128392 C38.298456,12.1914 38.526192,13.319424 38.526192,14.512536 C38.526192,15.705576 38.298456,16.8282 37.842912,17.880264 C37.387368,18.9324 36.769104,19.84896 35.98812,20.6298 C35.207136,21.410784 34.285248,22.029048 33.222312,22.484592 C32.159304,22.940136 31.02048,23.167872 29.805696,23.167872 C28.634256,23.167872 27.544248,22.945536 26.535528,22.500792 C25.526808,22.05612 24.642792,21.454128 23.883552,20.694888 L23.883552,22.777416 L20.629656,22.777416 L20.629656,0 L23.916096,0 Z M24.29028,16.757712 C24.583104,17.451936 24.989904,18.059328 25.510536,18.57996 C26.031168,19.100592 26.63856,19.512792 27.332712,19.816488 C28.026936,20.120184 28.775304,20.272032 29.57796,20.272032 C30.358944,20.272032 31.09644,20.120184 31.790592,19.816488 C32.484744,19.512792 33.086664,19.100664 33.596568,18.57996 C34.106328,18.0594 34.513056,17.451936 34.816752,16.757712 C35.120448,16.06356 35.272296,15.315192 35.272296,14.512536 C35.272296,13.70988 35.120448,12.95604 34.816752,12.251016 C34.513056,11.545992 34.106328,10.9332 33.596568,10.412568 C33.086736,9.892008 32.484816,9.485208 31.790592,9.192384 C31.096368,8.89956 30.358872,8.75304 29.57796,8.75304 C28.797048,8.75304 28.05948,8.899488 27.365328,9.192384 C26.671176,9.48528 26.063784,9.892008 25.54308,10.412568 C25.02252,10.9332 24.61032,11.545992 24.306624,12.251016 C24.002928,12.95604 23.85108,13.70988 23.85108,14.512536 C23.85108,15.315192 23.997456,16.06356 24.29028,16.757712 Z" id="Shape"></path>
                    <path d="M40.380624,11.161008 C40.814424,10.119744 41.411088,9.203256 42.170256,8.411472 C42.929424,7.619688 43.829784,6.996024 44.871048,6.54048 C45.912312,6.084936 47.040336,5.8572 48.25512,5.8572 C49.448232,5.8572 50.554584,6.074136 51.574176,6.507936 C52.593696,6.941808 53.47224,7.5438 54.209808,8.313912 C54.947376,9.083952 55.522296,9.995112 55.934352,11.047176 C56.346552,12.099312 56.552616,13.243608 56.552616,14.480136 L56.552616,15.553944 L43.048872,15.553944 C43.157376,16.226424 43.374312,16.850088 43.69968,17.424864 C44.02512,17.999712 44.431776,18.498672 44.919864,18.921672 C45.407952,19.344744 45.961128,19.675584 46.579392,19.91412 C47.197656,20.152728 47.853792,20.272104 48.548016,20.272104 C50.522112,20.272104 52.116552,19.458576 53.331336,17.831592 L55.706688,19.58868 C54.88236,20.695032 53.86284,21.562776 52.648056,22.19184 C51.4332,22.820904 50.066568,23.135472 48.548088,23.135472 C47.31156,23.135472 46.156464,22.918464 45.082656,22.484664 C44.008848,22.050864 43.076088,21.4434 42.284304,20.662416 C41.49252,19.881432 40.868856,18.964944 40.413312,17.91288 C39.957768,16.860816 39.7299599,15.716448 39.7299599,14.479992 C39.7299599,13.308624 39.946824,12.202272 40.380624,11.161008 Z M44.952408,9.875664 C44.030448,10.645776 43.417656,11.670768 43.11396,12.95064 L53.233704,12.95064 C52.95168,11.670768 52.349688,10.645776 51.427728,9.875664 C50.505768,9.105624 49.42656,8.720568 48.190104,8.720568 C46.953576,8.720568 45.874368,9.105624 44.952408,9.875664 Z" id="Shape"></path>
                    <path d="M62.702352,10.249848 C62.0082,11.009088 61.661088,12.03948 61.661088,13.341096 L61.661088,22.77756 L58.374576,22.77756 L58.374576,6.182496 L61.628472,6.182496 L61.628472,8.23248 C62.040672,7.56 62.577576,7.028496 63.239184,6.63804 C63.900792,6.247512 64.687176,6.052248 65.598336,6.052248 L66.73716,6.052248 L66.73716,9.110952 L65.370528,9.110952 C64.28592,9.111024 63.396504,9.490608 62.702352,10.249848 Z" id="Path"></path>
                </g>
            </g>
        </g>
    </g>
</svg>