<?xml version="1.0" encoding="utf-8"?>
<!-- Generator: Adobe Illustrator 22.0.0, SVG Export Plug-In . SVG Version: 6.00 Build 0)  -->
<svg version="1.1" id="Layer_1" xmlns="http://www.w3.org/2000/svg" xmlns:xlink="http://www.w3.org/1999/xlink" x="0px" y="0px"
	 viewBox="0 0 373.6 116.9" style="enable-background:new 0 0 373.6 116.9;" xml:space="preserve">
<style type="text/css">
	.st0{fill-rule:evenodd;clip-rule:evenodd;fill:#FFFFFF;}
	.st1{fill:#FFFFFF;}
</style>
<g>
	<g>
		<path class="st0" d="M60.4,4.3c17.5,0,33,8.3,42.9,21.1c-3.3-1.7-6.9-2.9-10.5-3.7l-1.8-0.3l-2.3-0.2h-6.3l-2.5,0.2
			C64.8,24,53.4,34.6,49.3,48.9c-0.9,3.2-1.3,6.4-1.3,9.7v0c0,6.6,1.6,13.1,5,18.8c5.7,9.6,15.7,16.5,27.4,18.1l2.5,0.2H89l2.5-0.2
			c4.1-0.7,8-2,11.6-3.9c-10.3,13.3-26.8,21.7-45.1,20.9c-28-1.2-50.7-23.9-51.8-51.9C5.1,29.8,29.8,4.3,60.4,4.3 M32.8,94.2h12.4
			V23.5H19.8l7.5,12.8h5.5V94.2z"/>
		<path class="st0" d="M85.9,32.8c14.2,0,25.7,11.5,25.7,25.7c0,14.2-11.5,25.7-25.7,25.7c-14.2,0-25.7-11.5-25.7-25.7
			C60.2,44.3,71.7,32.8,85.9,32.8"/>
	</g>
	<g>
		<path class="st1" d="M138.3,72.2v22.5h-14.7V29.4h23c16.4,0,24.6,6.9,24.6,20.8c0,6.6-2.4,11.8-7.1,15.9c-4.7,4-11,6.1-18.9,6.1
			H138.3z M138.3,40.7V61h5.8c7.8,0,11.7-3.4,11.7-10.3c0-6.7-3.9-10.1-11.7-10.1H138.3z"/>
		<path class="st1" d="M215.9,75.5h-30.4c0.5,6.7,4.7,10.1,12.8,10.1c5.1,0,9.6-1.2,13.5-3.6v10.4c-4.3,2.3-9.9,3.4-16.8,3.4
			c-7.5,0-13.3-2.1-17.5-6.3c-4.1-4.2-6.2-10-6.2-17.4c0-7.7,2.2-13.9,6.7-18.4c4.5-4.5,10-6.8,16.5-6.8c6.8,0,12,2,15.8,6
			c3.7,4,5.6,9.5,5.6,16.4V75.5z M202.6,66.6c0-6.7-2.7-10-8.1-10c-2.3,0-4.3,0.9-6,2.9c-1.7,1.9-2.7,4.3-3.1,7.1H202.6z"/>
		<path class="st1" d="M261.4,94.6h-13.6V88h-0.2c-3.1,5.2-7.8,7.8-13.9,7.8c-4.5,0-8.1-1.3-10.7-3.8c-2.6-2.6-3.9-6-3.9-10.3
			c0-9,5.4-14.2,16-15.6l12.7-1.7c0-5.1-2.8-7.6-8.3-7.6c-5.6,0-10.8,1.6-15.8,4.9V50.9c2-1,4.7-1.9,8.2-2.7
			c3.5-0.8,6.6-1.2,9.5-1.2c13.3,0,19.9,6.6,19.9,19.9V94.6z M247.9,75.7v-3.1l-8.5,1.1c-4.7,0.6-7,2.7-7,6.3c0,1.6,0.6,3,1.7,4
			c1.2,1,2.7,1.6,4.6,1.6c2.7,0,4.9-0.9,6.6-2.8C247.1,80.9,247.9,78.6,247.9,75.7"/>
		<path class="st1" d="M299.1,61c-1.7-0.9-3.8-1.4-6.1-1.4c-3.1,0-5.5,1.1-7.3,3.4c-1.8,2.3-2.6,5.4-2.6,9.3v22.2h-14.4V48.1h14.4
			v8.6h0.2c2.3-6.3,6.4-9.5,12.3-9.5c1.5,0,2.7,0.2,3.6,0.5V61z"/>
		<path class="st1" d="M318.2,78.9c0,2,0.5,3.5,1.4,4.5c0.9,1,2.2,1.5,3.8,1.5c0.8,0,1.6-0.1,2.4-0.2c0.8-0.1,1.6-0.3,2.4-0.5v10.1
			c-1.7,0.4-3.6,0.8-5.5,1.1c-1.9,0.3-3.9,0.4-6,0.4c-1.9,0-3.6-0.3-5.2-0.9c-1.6-0.6-2.9-1.6-4-2.8c-1.1-1.2-2-2.6-2.6-4.3
			c-0.6-1.7-0.9-3.6-0.9-5.7V25.7h14.3V78.9z"/>
		<path class="st1" d="M331.6,93.4V81.8c2.4,1.4,4.7,2.5,7.1,3.2c2.3,0.7,4.6,1,6.7,1c2.5,0,4.6-0.3,6-1c1.5-0.7,2.2-1.8,2.2-3.2
			c0-0.9-0.3-1.7-1-2.3c-0.7-0.6-1.5-1.1-2.6-1.6c-1-0.4-2.2-0.9-3.4-1.2c-1.2-0.4-2.4-0.8-3.6-1.2c-1.8-0.7-3.5-1.5-4.9-2.2
			c-1.4-0.8-2.6-1.7-3.6-2.8c-0.9-1.1-1.7-2.3-2.2-3.7c-0.5-1.4-0.8-3-0.8-5c0-2.6,0.6-4.9,1.7-6.7c1.1-1.9,2.7-3.4,4.5-4.6
			c1.9-1.2,4.1-2.1,6.5-2.6c2.4-0.6,5-0.8,7.6-0.8c2.1,0,4.1,0.2,6.3,0.5c2.1,0.3,4.2,0.8,6.3,1.4v11.1c-1.8-1.1-3.8-1.9-5.8-2.4
			c-2.1-0.5-4.1-0.8-6.1-0.8c-0.9,0-1.8,0.1-2.6,0.3c-0.8,0.2-1.6,0.4-2.2,0.7c-0.6,0.3-1.1,0.7-1.5,1.2c-0.4,0.5-0.6,1.1-0.6,1.7
			c0,0.8,0.3,1.6,0.8,2.2c0.6,0.6,1.3,1.1,2.1,1.6c0.9,0.5,1.9,0.8,2.9,1.2c1.1,0.4,2.1,0.7,3.2,1.1c1.9,0.7,3.6,1.4,5.2,2.2
			c1.5,0.8,2.9,1.7,4,2.8c1.1,1.1,2,2.3,2.5,3.7c0.6,1.4,0.9,3.1,0.9,5.1c0,2.8-0.6,5.1-1.8,7.1c-1.2,2-2.8,3.5-4.8,4.8
			c-2,1.2-4.3,2.1-6.9,2.7c-2.6,0.6-5.3,0.8-8.1,0.8C340.7,95.8,335.9,95,331.6,93.4"/>
	</g>
</g>
</svg>
